G04 EAGLE Gerber RS-274X export*
G75*
%MOMM*%
%FSLAX34Y34*%
%LPD*%
%INBottom Copper*%
%IPPOS*%
%AMOC8*
5,1,8,0,0,1.08239X$1,22.5*%
G01*
%ADD10C,1.676400*%
%ADD11C,1.500000*%
%ADD12C,0.706400*%
%ADD13C,0.254000*%
%ADD14C,0.756400*%
%ADD15C,0.152400*%

G36*
X366810Y4373D02*
X366810Y4373D01*
X366870Y4383D01*
X366918Y4382D01*
X402333Y9124D01*
X402392Y9141D01*
X402439Y9144D01*
X437150Y17624D01*
X437207Y17647D01*
X437253Y17656D01*
X470866Y29777D01*
X470920Y29806D01*
X470965Y29819D01*
X503099Y45445D01*
X503150Y45479D01*
X503194Y45497D01*
X504346Y46218D01*
X505969Y47234D01*
X507591Y48249D01*
X510836Y50279D01*
X510837Y50279D01*
X512459Y51295D01*
X514082Y52310D01*
X515704Y53325D01*
X515705Y53325D01*
X517327Y54340D01*
X518950Y55356D01*
X522195Y57386D01*
X523817Y58401D01*
X523818Y58401D01*
X525440Y59417D01*
X528685Y61447D01*
X530308Y62462D01*
X531930Y63478D01*
X533484Y64450D01*
X533531Y64489D01*
X533540Y64493D01*
X533543Y64496D01*
X533573Y64512D01*
X561677Y86577D01*
X561720Y86621D01*
X561759Y86648D01*
X578923Y103362D01*
X578984Y103440D01*
X579050Y103512D01*
X579070Y103552D01*
X579097Y103586D01*
X579133Y103678D01*
X579178Y103767D01*
X579186Y103810D01*
X579202Y103851D01*
X579211Y103949D01*
X579229Y104046D01*
X579225Y104090D01*
X579229Y104134D01*
X579211Y104231D01*
X579201Y104329D01*
X579185Y104370D01*
X579177Y104413D01*
X579133Y104501D01*
X579096Y104593D01*
X579069Y104628D01*
X579049Y104667D01*
X578982Y104740D01*
X578922Y104818D01*
X578886Y104844D01*
X578856Y104876D01*
X578772Y104927D01*
X578692Y104985D01*
X578655Y104997D01*
X578613Y105023D01*
X578442Y105069D01*
X578374Y105092D01*
X577649Y105207D01*
X576146Y105695D01*
X574737Y106412D01*
X573459Y107341D01*
X572341Y108459D01*
X571412Y109737D01*
X570695Y111146D01*
X570207Y112649D01*
X570156Y112969D01*
X578984Y112969D01*
X579042Y112977D01*
X579100Y112975D01*
X579182Y112997D01*
X579265Y113009D01*
X579319Y113033D01*
X579375Y113047D01*
X579448Y113090D01*
X579525Y113125D01*
X579569Y113163D01*
X579620Y113193D01*
X579677Y113254D01*
X579742Y113309D01*
X579774Y113357D01*
X579814Y113400D01*
X579853Y113475D01*
X579899Y113545D01*
X579917Y113601D01*
X579944Y113653D01*
X579955Y113721D01*
X579985Y113816D01*
X579988Y113916D01*
X579999Y113984D01*
X579999Y115001D01*
X581016Y115001D01*
X581074Y115009D01*
X581132Y115008D01*
X581214Y115029D01*
X581297Y115041D01*
X581351Y115065D01*
X581407Y115079D01*
X581480Y115122D01*
X581557Y115157D01*
X581601Y115195D01*
X581652Y115225D01*
X581709Y115286D01*
X581774Y115341D01*
X581806Y115389D01*
X581846Y115432D01*
X581885Y115507D01*
X581931Y115577D01*
X581949Y115633D01*
X581976Y115685D01*
X581987Y115753D01*
X582017Y115848D01*
X582020Y115948D01*
X582031Y116016D01*
X582031Y124844D01*
X582351Y124793D01*
X583854Y124305D01*
X585263Y123588D01*
X586541Y122659D01*
X587659Y121541D01*
X588588Y120263D01*
X589305Y118854D01*
X589793Y117351D01*
X589821Y117178D01*
X589862Y117045D01*
X589902Y116912D01*
X589903Y116909D01*
X589904Y116906D01*
X589981Y116789D01*
X590055Y116673D01*
X590058Y116671D01*
X590060Y116668D01*
X590165Y116577D01*
X590270Y116486D01*
X590273Y116484D01*
X590275Y116482D01*
X590402Y116424D01*
X590527Y116366D01*
X590530Y116365D01*
X590533Y116364D01*
X590673Y116343D01*
X590808Y116321D01*
X590811Y116322D01*
X590815Y116321D01*
X590952Y116340D01*
X591090Y116357D01*
X591093Y116358D01*
X591096Y116359D01*
X591222Y116414D01*
X591351Y116469D01*
X591354Y116471D01*
X591357Y116473D01*
X591575Y116654D01*
X591590Y116675D01*
X591605Y116689D01*
X610237Y139162D01*
X610269Y139214D01*
X610302Y139249D01*
X630054Y169025D01*
X630081Y169080D01*
X630109Y169118D01*
X646585Y200824D01*
X646605Y200882D01*
X646629Y200922D01*
X659641Y234200D01*
X659655Y234260D01*
X659675Y234303D01*
X669076Y268776D01*
X669084Y268836D01*
X669099Y268881D01*
X669813Y273310D01*
X670958Y280417D01*
X671448Y283463D01*
X672103Y287524D01*
X672593Y290569D01*
X672593Y290570D01*
X673248Y294631D01*
X673738Y297676D01*
X673738Y297677D01*
X674782Y304151D01*
X674782Y304152D01*
X674783Y304158D01*
X674784Y304219D01*
X674794Y304265D01*
X676696Y339946D01*
X676690Y340007D01*
X676696Y340054D01*
X674794Y375735D01*
X674782Y375795D01*
X674783Y375842D01*
X669099Y411119D01*
X669081Y411177D01*
X669076Y411224D01*
X659675Y445697D01*
X659651Y445753D01*
X659641Y445800D01*
X646629Y479078D01*
X646599Y479131D01*
X646585Y479176D01*
X630109Y510882D01*
X630074Y510932D01*
X630054Y510975D01*
X610302Y540751D01*
X610261Y540797D01*
X610237Y540838D01*
X587432Y568345D01*
X587387Y568386D01*
X587359Y568424D01*
X561759Y593352D01*
X561709Y593388D01*
X561677Y593423D01*
X533573Y615488D01*
X533520Y615519D01*
X533484Y615550D01*
X503194Y634503D01*
X503138Y634528D01*
X503099Y634555D01*
X470965Y650181D01*
X470907Y650200D01*
X470866Y650223D01*
X437253Y662344D01*
X437193Y662357D01*
X437150Y662376D01*
X402439Y670856D01*
X402378Y670862D01*
X402333Y670876D01*
X366917Y675618D01*
X366856Y675618D01*
X366810Y675627D01*
X331091Y676578D01*
X331030Y676571D01*
X330983Y676575D01*
X295365Y673724D01*
X295306Y673711D01*
X295258Y673710D01*
X260146Y667089D01*
X260088Y667070D01*
X260041Y667064D01*
X225830Y656748D01*
X225775Y656723D01*
X225729Y656712D01*
X192809Y642818D01*
X192756Y642787D01*
X192712Y642771D01*
X161455Y625457D01*
X161406Y625420D01*
X161364Y625400D01*
X132125Y604862D01*
X132080Y604820D01*
X132040Y604795D01*
X105149Y581266D01*
X105109Y581219D01*
X105072Y581190D01*
X80835Y554936D01*
X80800Y554885D01*
X80766Y554853D01*
X59457Y526171D01*
X59427Y526117D01*
X59397Y526080D01*
X41257Y495296D01*
X41243Y495262D01*
X41229Y495242D01*
X41224Y495225D01*
X41207Y495200D01*
X26443Y462662D01*
X26425Y462603D01*
X26403Y462561D01*
X15181Y428638D01*
X15170Y428577D01*
X15152Y428533D01*
X7599Y393609D01*
X7595Y393548D01*
X7582Y393503D01*
X3784Y357974D01*
X3786Y357912D01*
X3778Y357866D01*
X3778Y322134D01*
X3787Y322074D01*
X3784Y322026D01*
X7582Y286497D01*
X7597Y286438D01*
X7599Y286391D01*
X15152Y251467D01*
X15174Y251409D01*
X15181Y251362D01*
X26403Y217439D01*
X26431Y217384D01*
X26443Y217338D01*
X41207Y184800D01*
X41240Y184748D01*
X41257Y184704D01*
X59397Y153920D01*
X59435Y153872D01*
X59457Y153829D01*
X80766Y125147D01*
X80809Y125104D01*
X80835Y125064D01*
X88456Y116809D01*
X88543Y116738D01*
X88625Y116662D01*
X88652Y116648D01*
X88676Y116629D01*
X88779Y116585D01*
X88879Y116535D01*
X88909Y116529D01*
X88937Y116517D01*
X89049Y116503D01*
X89159Y116483D01*
X89189Y116486D01*
X89220Y116482D01*
X89330Y116500D01*
X89442Y116511D01*
X89470Y116522D01*
X89500Y116527D01*
X89602Y116575D01*
X89706Y116616D01*
X89730Y116635D01*
X89758Y116648D01*
X89842Y116722D01*
X89931Y116791D01*
X89949Y116815D01*
X89971Y116835D01*
X90032Y116930D01*
X90098Y117020D01*
X90107Y117046D01*
X90125Y117075D01*
X90194Y117306D01*
X90205Y117339D01*
X90207Y117351D01*
X90695Y118854D01*
X91412Y120263D01*
X92341Y121541D01*
X93459Y122659D01*
X94737Y123588D01*
X96146Y124305D01*
X97649Y124793D01*
X97969Y124844D01*
X97969Y116016D01*
X97977Y115958D01*
X97975Y115900D01*
X97997Y115818D01*
X98009Y115735D01*
X98033Y115681D01*
X98047Y115625D01*
X98090Y115552D01*
X98125Y115475D01*
X98163Y115431D01*
X98193Y115380D01*
X98254Y115323D01*
X98309Y115258D01*
X98357Y115226D01*
X98400Y115186D01*
X98475Y115147D01*
X98545Y115101D01*
X98601Y115083D01*
X98653Y115056D01*
X98721Y115045D01*
X98816Y115015D01*
X98916Y115012D01*
X98984Y115001D01*
X100001Y115001D01*
X100001Y113984D01*
X100009Y113926D01*
X100008Y113868D01*
X100029Y113786D01*
X100041Y113703D01*
X100065Y113649D01*
X100079Y113593D01*
X100122Y113520D01*
X100157Y113443D01*
X100195Y113398D01*
X100225Y113348D01*
X100286Y113290D01*
X100341Y113226D01*
X100389Y113194D01*
X100432Y113154D01*
X100507Y113115D01*
X100577Y113069D01*
X100633Y113051D01*
X100685Y113024D01*
X100753Y113013D01*
X100848Y112983D01*
X100948Y112980D01*
X101016Y112969D01*
X109844Y112969D01*
X109793Y112649D01*
X109305Y111146D01*
X108588Y109737D01*
X107659Y108459D01*
X106541Y107341D01*
X105263Y106412D01*
X103854Y105695D01*
X102351Y105207D01*
X101447Y105063D01*
X101378Y105042D01*
X101307Y105031D01*
X101243Y105001D01*
X101175Y104980D01*
X101115Y104941D01*
X101050Y104910D01*
X100997Y104863D01*
X100937Y104825D01*
X100890Y104770D01*
X100836Y104723D01*
X100798Y104663D01*
X100752Y104609D01*
X100722Y104544D01*
X100683Y104483D01*
X100663Y104415D01*
X100633Y104351D01*
X100622Y104280D01*
X100602Y104211D01*
X100601Y104140D01*
X100591Y104070D01*
X100600Y103998D01*
X100600Y103927D01*
X100619Y103858D01*
X100628Y103788D01*
X100657Y103722D01*
X100676Y103653D01*
X100709Y103602D01*
X100742Y103527D01*
X100819Y103435D01*
X100860Y103372D01*
X105072Y98810D01*
X105119Y98771D01*
X105149Y98734D01*
X132040Y75205D01*
X132091Y75171D01*
X132125Y75138D01*
X161364Y54600D01*
X161418Y54572D01*
X161455Y54543D01*
X192712Y37229D01*
X192769Y37207D01*
X192809Y37182D01*
X225729Y23288D01*
X225788Y23273D01*
X225831Y23252D01*
X260041Y12936D01*
X260101Y12927D01*
X260146Y12911D01*
X295258Y6290D01*
X295320Y6287D01*
X295365Y6276D01*
X330983Y3425D01*
X331044Y3429D01*
X331091Y3422D01*
X366810Y4373D01*
G37*
%LPC*%
G36*
X56382Y399996D02*
X56382Y399996D01*
X54431Y400804D01*
X52938Y402297D01*
X52130Y404247D01*
X52130Y406358D01*
X52938Y408309D01*
X54500Y409870D01*
X54552Y409940D01*
X54612Y410004D01*
X54638Y410053D01*
X54671Y410098D01*
X54702Y410179D01*
X54742Y410257D01*
X54750Y410305D01*
X54772Y410363D01*
X54784Y410511D01*
X54797Y410588D01*
X54797Y451037D01*
X54785Y451124D01*
X54782Y451211D01*
X54765Y451264D01*
X54757Y451319D01*
X54722Y451399D01*
X54695Y451482D01*
X54667Y451521D01*
X54641Y451578D01*
X54545Y451692D01*
X54500Y451755D01*
X53483Y452772D01*
X52675Y454723D01*
X52675Y456834D01*
X53483Y458784D01*
X54975Y460277D01*
X56926Y461085D01*
X59080Y461085D01*
X59089Y461086D01*
X59099Y461085D01*
X59230Y461106D01*
X59361Y461125D01*
X59370Y461129D01*
X59380Y461130D01*
X59500Y461187D01*
X59621Y461241D01*
X59628Y461247D01*
X59637Y461251D01*
X59678Y461290D01*
X59838Y461425D01*
X59860Y461458D01*
X59883Y461479D01*
X150954Y579280D01*
X150965Y579300D01*
X150981Y579317D01*
X151035Y579423D01*
X151094Y579527D01*
X151100Y579549D01*
X151110Y579570D01*
X151123Y579645D01*
X151145Y579737D01*
X151813Y580405D01*
X151823Y580418D01*
X151829Y580423D01*
X151847Y580450D01*
X151857Y580464D01*
X151898Y580502D01*
X152490Y581267D01*
X152557Y581385D01*
X152626Y581502D01*
X152627Y581509D01*
X152631Y581514D01*
X152663Y581647D01*
X152696Y581778D01*
X152696Y581784D01*
X152697Y581791D01*
X152691Y581927D01*
X152687Y582062D01*
X152685Y582068D01*
X152685Y582075D01*
X152641Y582203D01*
X152599Y582333D01*
X152596Y582337D01*
X152594Y582344D01*
X152432Y582578D01*
X152415Y582591D01*
X152405Y582606D01*
X148521Y586490D01*
X146459Y591467D01*
X146459Y596853D01*
X148413Y601569D01*
X148448Y601705D01*
X148483Y601839D01*
X148483Y601842D01*
X148484Y601845D01*
X148480Y601980D01*
X148476Y602123D01*
X148476Y602126D01*
X148475Y602129D01*
X148434Y602259D01*
X148391Y602394D01*
X148390Y602397D01*
X148389Y602400D01*
X148313Y602513D01*
X148234Y602631D01*
X148232Y602633D01*
X148231Y602636D01*
X148127Y602723D01*
X148018Y602816D01*
X148015Y602817D01*
X148013Y602819D01*
X147888Y602874D01*
X147759Y602933D01*
X147756Y602933D01*
X147753Y602934D01*
X147615Y602953D01*
X147477Y602973D01*
X147474Y602973D01*
X147472Y602973D01*
X147334Y602953D01*
X147196Y602934D01*
X147193Y602933D01*
X147190Y602932D01*
X146931Y602815D01*
X146912Y602799D01*
X146893Y602790D01*
X140323Y598193D01*
X140280Y598152D01*
X140240Y598128D01*
X114459Y575815D01*
X114378Y575723D01*
X114344Y575691D01*
X114334Y575683D01*
X114333Y575681D01*
X114322Y575671D01*
X111685Y572283D01*
X111675Y572265D01*
X111661Y572251D01*
X111604Y572142D01*
X111543Y572036D01*
X111539Y572017D01*
X111529Y571999D01*
X111516Y571926D01*
X111490Y571816D01*
X110827Y571166D01*
X110780Y571104D01*
X110737Y571065D01*
X110164Y570329D01*
X110156Y570326D01*
X110038Y570294D01*
X110021Y570284D01*
X110002Y570278D01*
X109941Y570235D01*
X109795Y570147D01*
X109760Y570109D01*
X109727Y570086D01*
X106116Y566541D01*
X106047Y566450D01*
X105994Y566397D01*
X84669Y535756D01*
X84645Y535708D01*
X84612Y535664D01*
X84581Y535581D01*
X84541Y535502D01*
X84531Y535449D01*
X84512Y535398D01*
X84505Y535310D01*
X84488Y535223D01*
X84494Y535169D01*
X84489Y535115D01*
X84505Y535045D01*
X84515Y534940D01*
X84550Y534852D01*
X84565Y534788D01*
X84707Y534443D01*
X84707Y532432D01*
X83937Y530573D01*
X82515Y529150D01*
X80656Y528381D01*
X78645Y528381D01*
X76786Y529150D01*
X75364Y530573D01*
X74594Y532432D01*
X74594Y534443D01*
X75364Y536302D01*
X76786Y537724D01*
X78645Y538494D01*
X79235Y538494D01*
X79269Y538499D01*
X79304Y538496D01*
X79410Y538519D01*
X79516Y538534D01*
X79548Y538548D01*
X79582Y538556D01*
X79677Y538606D01*
X79776Y538650D01*
X79802Y538673D01*
X79833Y538689D01*
X79888Y538746D01*
X79993Y538834D01*
X80031Y538892D01*
X80068Y538929D01*
X100938Y568917D01*
X101000Y569038D01*
X101062Y569157D01*
X101063Y569164D01*
X101067Y569171D01*
X101119Y569450D01*
X101118Y569467D01*
X101692Y570030D01*
X101762Y570122D01*
X101814Y570175D01*
X102274Y570836D01*
X102381Y570871D01*
X102510Y570912D01*
X102516Y570916D01*
X102523Y570918D01*
X102758Y571078D01*
X102772Y571094D01*
X102785Y571104D01*
X106549Y574799D01*
X106596Y574860D01*
X106639Y574900D01*
X109431Y578487D01*
X109495Y578600D01*
X109563Y578711D01*
X109566Y578722D01*
X109572Y578734D01*
X109640Y579010D01*
X109639Y579025D01*
X109642Y579038D01*
X109642Y579039D01*
X110234Y579551D01*
X110315Y579644D01*
X110371Y579695D01*
X110852Y580313D01*
X110853Y580313D01*
X110978Y580347D01*
X111105Y580379D01*
X111115Y580384D01*
X111128Y580388D01*
X111371Y580535D01*
X111381Y580547D01*
X111392Y580553D01*
X135708Y601598D01*
X135731Y601624D01*
X135760Y601646D01*
X135824Y601731D01*
X135895Y601812D01*
X135910Y601844D01*
X135931Y601872D01*
X135957Y601946D01*
X135967Y601966D01*
X136797Y602547D01*
X136840Y602588D01*
X136880Y602612D01*
X137641Y603271D01*
X137695Y603274D01*
X137728Y603286D01*
X137763Y603291D01*
X137834Y603325D01*
X137962Y603372D01*
X138019Y603413D01*
X138066Y603436D01*
X167578Y624086D01*
X167606Y624113D01*
X167639Y624133D01*
X167710Y624209D01*
X167786Y624280D01*
X167806Y624313D01*
X167832Y624342D01*
X167865Y624412D01*
X167866Y624415D01*
X168765Y624923D01*
X168809Y624957D01*
X168848Y624975D01*
X169686Y625561D01*
X169724Y625560D01*
X169762Y625570D01*
X169800Y625571D01*
X169874Y625598D01*
X170000Y625629D01*
X170064Y625667D01*
X170116Y625686D01*
X188963Y636328D01*
X189151Y636472D01*
X189182Y636494D01*
X189632Y636945D01*
X189789Y636945D01*
X189880Y636958D01*
X189972Y636961D01*
X190014Y636977D01*
X190070Y636985D01*
X190216Y637050D01*
X190288Y637076D01*
X190424Y637153D01*
X191038Y636982D01*
X191274Y636951D01*
X191310Y636945D01*
X340523Y636945D01*
X340610Y636957D01*
X340697Y636960D01*
X340750Y636977D01*
X340804Y636985D01*
X340884Y637020D01*
X340967Y637047D01*
X341007Y637075D01*
X341064Y637101D01*
X341177Y637197D01*
X341241Y637242D01*
X342436Y638437D01*
X344294Y639207D01*
X346306Y639207D01*
X348164Y638437D01*
X349587Y637014D01*
X350357Y635156D01*
X350357Y633144D01*
X349587Y631286D01*
X348164Y629863D01*
X346306Y629093D01*
X344294Y629093D01*
X342436Y629863D01*
X341241Y631058D01*
X341171Y631110D01*
X341107Y631170D01*
X341058Y631196D01*
X341014Y631229D01*
X340932Y631260D01*
X340854Y631300D01*
X340806Y631308D01*
X340748Y631330D01*
X340600Y631342D01*
X340523Y631355D01*
X272126Y631355D01*
X272012Y631339D01*
X271898Y631329D01*
X271872Y631319D01*
X271844Y631315D01*
X271739Y631268D01*
X271632Y631227D01*
X271610Y631211D01*
X271585Y631199D01*
X271497Y631125D01*
X271406Y631056D01*
X271389Y631033D01*
X271368Y631016D01*
X271304Y630920D01*
X271235Y630828D01*
X271226Y630802D01*
X271210Y630779D01*
X271176Y630669D01*
X271135Y630562D01*
X271133Y630534D01*
X271124Y630508D01*
X271121Y630393D01*
X271112Y630279D01*
X271118Y630254D01*
X271117Y630224D01*
X271184Y629967D01*
X271188Y629951D01*
X272034Y627909D01*
X272034Y625897D01*
X271264Y624039D01*
X269841Y622616D01*
X267983Y621846D01*
X265971Y621846D01*
X264113Y622616D01*
X262918Y623811D01*
X262848Y623864D01*
X262784Y623924D01*
X262735Y623949D01*
X262691Y623982D01*
X262609Y624013D01*
X262531Y624053D01*
X262483Y624061D01*
X262425Y624083D01*
X262277Y624096D01*
X262200Y624108D01*
X257768Y624108D01*
X257682Y624096D01*
X257594Y624093D01*
X257542Y624076D01*
X257487Y624069D01*
X257407Y624033D01*
X257324Y624006D01*
X257285Y623978D01*
X257227Y623952D01*
X257114Y623857D01*
X257051Y623811D01*
X246680Y613440D01*
X233654Y613440D01*
X233567Y613428D01*
X233480Y613425D01*
X233427Y613408D01*
X233373Y613401D01*
X233293Y613365D01*
X233210Y613338D01*
X233170Y613310D01*
X233113Y613284D01*
X233000Y613189D01*
X232936Y613143D01*
X231741Y611948D01*
X229883Y611178D01*
X227871Y611178D01*
X226013Y611948D01*
X224818Y613143D01*
X224748Y613196D01*
X224684Y613256D01*
X224635Y613281D01*
X224591Y613314D01*
X224509Y613345D01*
X224431Y613385D01*
X224383Y613393D01*
X224325Y613415D01*
X224177Y613428D01*
X224100Y613440D01*
X217652Y613440D01*
X217565Y613428D01*
X217478Y613425D01*
X217425Y613408D01*
X217371Y613401D01*
X217291Y613365D01*
X217208Y613338D01*
X217168Y613310D01*
X217111Y613284D01*
X216998Y613189D01*
X216934Y613143D01*
X215739Y611948D01*
X213881Y611178D01*
X211869Y611178D01*
X210011Y611948D01*
X208588Y613371D01*
X207818Y615229D01*
X207818Y617241D01*
X208588Y619100D01*
X209387Y619899D01*
X209422Y619946D01*
X209465Y619986D01*
X209508Y620059D01*
X209558Y620126D01*
X209579Y620181D01*
X209609Y620231D01*
X209629Y620313D01*
X209659Y620392D01*
X209664Y620450D01*
X209679Y620507D01*
X209676Y620591D01*
X209683Y620675D01*
X209671Y620732D01*
X209670Y620791D01*
X209644Y620871D01*
X209627Y620954D01*
X209600Y621006D01*
X209582Y621061D01*
X209542Y621118D01*
X209496Y621206D01*
X209427Y621278D01*
X209387Y621335D01*
X208588Y622134D01*
X207818Y623992D01*
X207818Y626004D01*
X208588Y627863D01*
X210011Y629285D01*
X210293Y629402D01*
X210367Y629446D01*
X210445Y629481D01*
X210489Y629518D01*
X210538Y629547D01*
X210597Y629609D01*
X210662Y629665D01*
X210694Y629712D01*
X210733Y629753D01*
X210772Y629830D01*
X210820Y629901D01*
X210837Y629955D01*
X210863Y630006D01*
X210880Y630090D01*
X210906Y630172D01*
X210907Y630229D01*
X210918Y630285D01*
X210911Y630370D01*
X210913Y630456D01*
X210899Y630511D01*
X210894Y630568D01*
X210863Y630648D01*
X210841Y630731D01*
X210812Y630780D01*
X210792Y630833D01*
X210740Y630902D01*
X210696Y630976D01*
X210654Y631015D01*
X210620Y631060D01*
X210551Y631112D01*
X210489Y631170D01*
X210438Y631196D01*
X210392Y631230D01*
X210312Y631261D01*
X210235Y631300D01*
X210187Y631308D01*
X210126Y631331D01*
X209982Y631342D01*
X209904Y631355D01*
X191791Y631355D01*
X191700Y631342D01*
X191608Y631339D01*
X191566Y631323D01*
X191510Y631315D01*
X191365Y631250D01*
X191292Y631224D01*
X171835Y620237D01*
X171791Y620203D01*
X171752Y620185D01*
X156550Y609548D01*
X156464Y609467D01*
X156375Y609391D01*
X156361Y609371D01*
X156343Y609354D01*
X156282Y609253D01*
X156217Y609155D01*
X156210Y609131D01*
X156197Y609110D01*
X156167Y608996D01*
X156131Y608884D01*
X156131Y608859D01*
X156124Y608835D01*
X156127Y608717D01*
X156124Y608600D01*
X156130Y608576D01*
X156131Y608551D01*
X156166Y608438D01*
X156196Y608325D01*
X156208Y608303D01*
X156216Y608279D01*
X156281Y608181D01*
X156341Y608080D01*
X156359Y608063D01*
X156373Y608042D01*
X156462Y607966D01*
X156548Y607886D01*
X156571Y607874D01*
X156589Y607858D01*
X156697Y607810D01*
X156801Y607756D01*
X156824Y607753D01*
X156849Y607741D01*
X157130Y607701D01*
X157131Y607701D01*
X157133Y607701D01*
X162693Y607701D01*
X167670Y605639D01*
X171479Y601830D01*
X173541Y596853D01*
X173541Y591467D01*
X171479Y586490D01*
X168117Y583128D01*
X168100Y583104D01*
X168077Y583085D01*
X168015Y582991D01*
X167946Y582901D01*
X167936Y582873D01*
X167920Y582849D01*
X167886Y582741D01*
X167845Y582635D01*
X167843Y582606D01*
X167834Y582578D01*
X167831Y582464D01*
X167822Y582352D01*
X167827Y582323D01*
X167827Y582294D01*
X167855Y582184D01*
X167878Y582073D01*
X167891Y582047D01*
X167898Y582019D01*
X167956Y581921D01*
X168009Y581821D01*
X168029Y581799D01*
X168044Y581774D01*
X168126Y581697D01*
X168204Y581615D01*
X168230Y581600D01*
X168251Y581580D01*
X168352Y581528D01*
X168450Y581471D01*
X168478Y581464D01*
X168504Y581450D01*
X168582Y581437D01*
X168725Y581401D01*
X168788Y581403D01*
X168835Y581395D01*
X180212Y581395D01*
X180216Y581395D01*
X180220Y581395D01*
X180358Y581415D01*
X180494Y581435D01*
X180497Y581436D01*
X180501Y581437D01*
X180529Y581450D01*
X180753Y581551D01*
X180778Y581572D01*
X180803Y581584D01*
X210321Y602681D01*
X210392Y602749D01*
X210448Y602789D01*
X211054Y603395D01*
X211124Y603406D01*
X211262Y603425D01*
X211265Y603427D01*
X211269Y603427D01*
X211297Y603441D01*
X211514Y603538D01*
X212350Y603399D01*
X212449Y603397D01*
X212517Y603385D01*
X213431Y603385D01*
X213492Y603362D01*
X213573Y603321D01*
X213618Y603314D01*
X213672Y603293D01*
X213829Y603280D01*
X213905Y603268D01*
X239945Y603461D01*
X240028Y603473D01*
X240112Y603476D01*
X240168Y603494D01*
X240226Y603503D01*
X240303Y603537D01*
X240382Y603563D01*
X240424Y603593D01*
X240485Y603621D01*
X240592Y603712D01*
X240656Y603758D01*
X241886Y604988D01*
X243745Y605758D01*
X245756Y605758D01*
X247615Y604988D01*
X249037Y603566D01*
X249807Y601707D01*
X249807Y599696D01*
X249037Y597837D01*
X247615Y596415D01*
X245756Y595645D01*
X243745Y595645D01*
X241886Y596415D01*
X240726Y597574D01*
X240654Y597629D01*
X240587Y597691D01*
X240541Y597714D01*
X240499Y597745D01*
X240414Y597778D01*
X240333Y597818D01*
X240288Y597826D01*
X240234Y597846D01*
X240077Y597859D01*
X240001Y597871D01*
X213913Y597678D01*
X213835Y597667D01*
X213243Y597667D01*
X213239Y597666D01*
X213235Y597667D01*
X213097Y597646D01*
X212961Y597627D01*
X212958Y597625D01*
X212954Y597625D01*
X212926Y597611D01*
X212702Y597511D01*
X212677Y597489D01*
X212653Y597477D01*
X183315Y576509D01*
X183243Y576441D01*
X183187Y576401D01*
X182582Y575795D01*
X182512Y575785D01*
X182374Y575765D01*
X182370Y575764D01*
X182367Y575763D01*
X182339Y575750D01*
X182122Y575652D01*
X181286Y575791D01*
X181187Y575794D01*
X181119Y575805D01*
X179856Y575805D01*
X155831Y575805D01*
X155821Y575804D01*
X155812Y575805D01*
X155681Y575784D01*
X155549Y575765D01*
X155541Y575762D01*
X155531Y575760D01*
X155411Y575704D01*
X155290Y575649D01*
X155283Y575643D01*
X155274Y575639D01*
X155233Y575601D01*
X155073Y575466D01*
X155051Y575433D01*
X155028Y575411D01*
X63500Y457020D01*
X63489Y457000D01*
X63473Y456983D01*
X63419Y456876D01*
X63360Y456772D01*
X63354Y456750D01*
X63344Y456730D01*
X63331Y456655D01*
X63293Y456496D01*
X63295Y456441D01*
X63288Y456399D01*
X63288Y454723D01*
X62480Y452772D01*
X60977Y451269D01*
X60893Y451219D01*
X60769Y451146D01*
X60767Y451145D01*
X60766Y451144D01*
X60671Y451042D01*
X60573Y450939D01*
X60573Y450938D01*
X60572Y450937D01*
X60509Y450815D01*
X60443Y450686D01*
X60443Y450685D01*
X60442Y450683D01*
X60440Y450669D01*
X60388Y450408D01*
X60391Y450377D01*
X60387Y450352D01*
X60387Y411607D01*
X60397Y411537D01*
X60397Y411465D01*
X60416Y411397D01*
X60426Y411326D01*
X60428Y411323D01*
X60395Y410304D01*
X60406Y410201D01*
X60409Y410097D01*
X60421Y410060D01*
X60425Y410021D01*
X60465Y409925D01*
X60497Y409827D01*
X60517Y409799D01*
X60533Y409758D01*
X60655Y409605D01*
X60692Y409553D01*
X61936Y408309D01*
X62744Y406358D01*
X62744Y404247D01*
X61936Y402297D01*
X60443Y400804D01*
X58493Y399996D01*
X56382Y399996D01*
G37*
%LPD*%
%LPC*%
G36*
X65192Y385477D02*
X65192Y385477D01*
X63334Y386247D01*
X61911Y387670D01*
X61141Y389528D01*
X61141Y391540D01*
X61911Y393399D01*
X63334Y394821D01*
X65192Y395591D01*
X67204Y395591D01*
X69063Y394821D01*
X70485Y393399D01*
X70550Y393241D01*
X70551Y393239D01*
X70552Y393238D01*
X70622Y393119D01*
X70695Y392996D01*
X70696Y392995D01*
X70697Y392993D01*
X70801Y392896D01*
X70901Y392801D01*
X70903Y392800D01*
X70904Y392799D01*
X71028Y392736D01*
X71154Y392671D01*
X71156Y392670D01*
X71157Y392670D01*
X71172Y392667D01*
X71433Y392616D01*
X71464Y392618D01*
X71488Y392614D01*
X79542Y392614D01*
X79600Y392622D01*
X79658Y392621D01*
X79740Y392642D01*
X79823Y392654D01*
X79877Y392678D01*
X79933Y392693D01*
X80006Y392736D01*
X80083Y392770D01*
X80127Y392808D01*
X80178Y392838D01*
X80235Y392899D01*
X80300Y392954D01*
X80332Y393002D01*
X80372Y393045D01*
X80410Y393120D01*
X80457Y393190D01*
X80475Y393246D01*
X80501Y393298D01*
X80513Y393366D01*
X80543Y393461D01*
X80546Y393561D01*
X80557Y393629D01*
X80557Y410496D01*
X81896Y411835D01*
X608340Y411835D01*
X608342Y411835D01*
X608344Y411835D01*
X608487Y411856D01*
X608622Y411875D01*
X608623Y411876D01*
X608625Y411876D01*
X608755Y411935D01*
X608881Y411991D01*
X608882Y411992D01*
X608884Y411993D01*
X608990Y412083D01*
X609098Y412175D01*
X609099Y412176D01*
X609100Y412177D01*
X609109Y412191D01*
X609254Y412409D01*
X610680Y413835D01*
X612539Y414605D01*
X614551Y414605D01*
X616409Y413835D01*
X617832Y412413D01*
X618601Y410554D01*
X618601Y408543D01*
X617832Y406684D01*
X616409Y405262D01*
X614551Y404492D01*
X612539Y404492D01*
X610680Y405262D01*
X609237Y406704D01*
X609206Y406758D01*
X609134Y406880D01*
X609133Y406881D01*
X609132Y406882D01*
X609027Y406981D01*
X608927Y407075D01*
X608926Y407076D01*
X608924Y407077D01*
X608797Y407142D01*
X608674Y407205D01*
X608673Y407205D01*
X608671Y407206D01*
X608656Y407209D01*
X608396Y407260D01*
X608365Y407258D01*
X608340Y407262D01*
X86146Y407262D01*
X86088Y407253D01*
X86029Y407255D01*
X85948Y407234D01*
X85864Y407222D01*
X85811Y407198D01*
X85754Y407183D01*
X85682Y407140D01*
X85605Y407106D01*
X85560Y407068D01*
X85510Y407038D01*
X85452Y406976D01*
X85388Y406922D01*
X85355Y406873D01*
X85315Y406831D01*
X85277Y406755D01*
X85230Y406685D01*
X85213Y406629D01*
X85186Y406577D01*
X85175Y406509D01*
X85144Y406414D01*
X85142Y406314D01*
X85130Y406246D01*
X85130Y389380D01*
X83791Y388041D01*
X71276Y388041D01*
X71190Y388028D01*
X71102Y388026D01*
X71049Y388008D01*
X70995Y388001D01*
X70915Y387965D01*
X70832Y387938D01*
X70792Y387910D01*
X70735Y387884D01*
X70622Y387789D01*
X70558Y387743D01*
X69062Y386247D01*
X67204Y385477D01*
X65192Y385477D01*
G37*
%LPD*%
%LPC*%
G36*
X65802Y355377D02*
X65802Y355377D01*
X63943Y356147D01*
X62521Y357569D01*
X61751Y359428D01*
X61751Y361439D01*
X62521Y363298D01*
X63943Y364720D01*
X65802Y365490D01*
X67814Y365490D01*
X69672Y364720D01*
X71095Y363298D01*
X71107Y363267D01*
X71108Y363266D01*
X71109Y363264D01*
X71179Y363147D01*
X71252Y363023D01*
X71253Y363021D01*
X71254Y363020D01*
X71358Y362922D01*
X71459Y362827D01*
X71460Y362827D01*
X71461Y362826D01*
X71588Y362760D01*
X71711Y362697D01*
X71713Y362697D01*
X71714Y362696D01*
X71730Y362694D01*
X71990Y362642D01*
X72021Y362645D01*
X72045Y362641D01*
X80178Y362641D01*
X80236Y362649D01*
X80295Y362647D01*
X80376Y362669D01*
X80460Y362680D01*
X80513Y362704D01*
X80570Y362719D01*
X80642Y362762D01*
X80719Y362797D01*
X80764Y362835D01*
X80814Y362864D01*
X80872Y362926D01*
X80936Y362980D01*
X80969Y363029D01*
X81009Y363072D01*
X81047Y363147D01*
X81094Y363217D01*
X81111Y363273D01*
X81138Y363325D01*
X81149Y363393D01*
X81179Y363488D01*
X81182Y363588D01*
X81193Y363656D01*
X81193Y380528D01*
X82533Y381867D01*
X608072Y381867D01*
X608074Y381867D01*
X608075Y381867D01*
X608215Y381887D01*
X608354Y381907D01*
X608355Y381908D01*
X608357Y381908D01*
X608487Y381967D01*
X608613Y382023D01*
X608614Y382024D01*
X608616Y382025D01*
X608726Y382119D01*
X608830Y382207D01*
X608831Y382208D01*
X608832Y382209D01*
X608841Y382222D01*
X608986Y382441D01*
X610412Y383867D01*
X612271Y384637D01*
X614283Y384637D01*
X616141Y383867D01*
X617564Y382445D01*
X618334Y380586D01*
X618334Y378575D01*
X617564Y376716D01*
X616141Y375293D01*
X614283Y374524D01*
X612271Y374524D01*
X610412Y375293D01*
X608969Y376736D01*
X608939Y376788D01*
X608866Y376912D01*
X608865Y376913D01*
X608864Y376914D01*
X608760Y377012D01*
X608659Y377107D01*
X608658Y377108D01*
X608657Y377109D01*
X608531Y377173D01*
X608406Y377237D01*
X608405Y377237D01*
X608403Y377238D01*
X608388Y377241D01*
X608127Y377292D01*
X608097Y377289D01*
X608072Y377294D01*
X86782Y377294D01*
X86724Y377285D01*
X86666Y377287D01*
X86584Y377266D01*
X86501Y377254D01*
X86447Y377230D01*
X86391Y377215D01*
X86318Y377172D01*
X86241Y377138D01*
X86197Y377100D01*
X86146Y377070D01*
X86089Y377008D01*
X86024Y376954D01*
X85992Y376905D01*
X85952Y376863D01*
X85913Y376787D01*
X85867Y376717D01*
X85849Y376661D01*
X85822Y376609D01*
X85811Y376541D01*
X85781Y376446D01*
X85778Y376346D01*
X85767Y376278D01*
X85767Y359407D01*
X84427Y358067D01*
X71979Y358067D01*
X71978Y358067D01*
X71976Y358067D01*
X71835Y358047D01*
X71698Y358027D01*
X71696Y358027D01*
X71695Y358026D01*
X71566Y357968D01*
X71438Y357911D01*
X71437Y357910D01*
X71436Y357909D01*
X71326Y357816D01*
X71221Y357727D01*
X71221Y357726D01*
X71219Y357725D01*
X71211Y357711D01*
X71159Y357633D01*
X69672Y356147D01*
X67814Y355377D01*
X65802Y355377D01*
G37*
%LPD*%
%LPC*%
G36*
X65883Y325443D02*
X65883Y325443D01*
X64025Y326212D01*
X62602Y327635D01*
X61832Y329493D01*
X61832Y331505D01*
X62602Y333364D01*
X64025Y334786D01*
X65883Y335556D01*
X67895Y335556D01*
X69754Y334786D01*
X71197Y333343D01*
X71227Y333292D01*
X71300Y333168D01*
X71301Y333167D01*
X71302Y333165D01*
X71406Y333068D01*
X71507Y332973D01*
X71508Y332972D01*
X71510Y332971D01*
X71635Y332907D01*
X71760Y332843D01*
X71761Y332842D01*
X71763Y332842D01*
X71778Y332839D01*
X72039Y332788D01*
X72069Y332790D01*
X72094Y332786D01*
X82029Y332786D01*
X82087Y332794D01*
X82146Y332793D01*
X82227Y332814D01*
X82311Y332826D01*
X82364Y332850D01*
X82421Y332865D01*
X82493Y332908D01*
X82570Y332942D01*
X82615Y332980D01*
X82665Y333010D01*
X82723Y333071D01*
X82787Y333126D01*
X82820Y333174D01*
X82860Y333217D01*
X82898Y333292D01*
X82945Y333362D01*
X82963Y333418D01*
X82989Y333470D01*
X83001Y333538D01*
X83031Y333633D01*
X83033Y333733D01*
X83045Y333801D01*
X83045Y350550D01*
X84384Y351889D01*
X608179Y351889D01*
X608180Y351889D01*
X608182Y351889D01*
X608321Y351909D01*
X608460Y351929D01*
X608462Y351930D01*
X608463Y351930D01*
X608593Y351989D01*
X608720Y352045D01*
X608721Y352046D01*
X608722Y352047D01*
X608832Y352141D01*
X608937Y352229D01*
X608938Y352230D01*
X608939Y352231D01*
X608947Y352244D01*
X609093Y352463D01*
X610519Y353889D01*
X612378Y354659D01*
X614389Y354659D01*
X616248Y353889D01*
X617670Y352467D01*
X618440Y350608D01*
X618440Y348596D01*
X617670Y346738D01*
X616248Y345315D01*
X614389Y344546D01*
X612378Y344546D01*
X610519Y345315D01*
X609076Y346758D01*
X609045Y346810D01*
X608972Y346934D01*
X608971Y346935D01*
X608970Y346936D01*
X608866Y347034D01*
X608766Y347129D01*
X608764Y347130D01*
X608763Y347131D01*
X608637Y347195D01*
X608513Y347259D01*
X608511Y347259D01*
X608510Y347260D01*
X608495Y347263D01*
X608234Y347314D01*
X608203Y347311D01*
X608179Y347316D01*
X88633Y347316D01*
X88575Y347307D01*
X88517Y347309D01*
X88435Y347288D01*
X88352Y347276D01*
X88298Y347252D01*
X88242Y347237D01*
X88169Y347194D01*
X88092Y347159D01*
X88048Y347122D01*
X87998Y347092D01*
X87940Y347030D01*
X87875Y346976D01*
X87843Y346927D01*
X87803Y346885D01*
X87765Y346809D01*
X87718Y346739D01*
X87700Y346683D01*
X87674Y346631D01*
X87662Y346563D01*
X87632Y346468D01*
X87629Y346368D01*
X87618Y346300D01*
X87618Y329552D01*
X86279Y328213D01*
X72094Y328213D01*
X72092Y328212D01*
X72091Y328213D01*
X71951Y328192D01*
X71812Y328173D01*
X71811Y328172D01*
X71809Y328172D01*
X71679Y328113D01*
X71553Y328056D01*
X71552Y328055D01*
X71550Y328055D01*
X71440Y327961D01*
X71336Y327873D01*
X71335Y327872D01*
X71334Y327870D01*
X71326Y327857D01*
X71180Y327639D01*
X69754Y326212D01*
X67895Y325443D01*
X65883Y325443D01*
G37*
%LPD*%
%LPC*%
G36*
X65869Y295453D02*
X65869Y295453D01*
X64011Y296222D01*
X62588Y297645D01*
X61819Y299503D01*
X61819Y301515D01*
X62588Y303374D01*
X64011Y304796D01*
X65869Y305566D01*
X67881Y305566D01*
X69740Y304796D01*
X71200Y303336D01*
X71271Y303216D01*
X71272Y303215D01*
X71273Y303214D01*
X71374Y303118D01*
X71477Y303021D01*
X71479Y303020D01*
X71480Y303019D01*
X71601Y302957D01*
X71730Y302891D01*
X71732Y302890D01*
X71733Y302890D01*
X71748Y302887D01*
X72009Y302836D01*
X72039Y302838D01*
X72064Y302834D01*
X81738Y302834D01*
X81796Y302842D01*
X81854Y302841D01*
X81936Y302862D01*
X82019Y302874D01*
X82073Y302898D01*
X82129Y302913D01*
X82202Y302956D01*
X82279Y302990D01*
X82323Y303028D01*
X82374Y303058D01*
X82431Y303119D01*
X82496Y303174D01*
X82528Y303223D01*
X82568Y303265D01*
X82607Y303340D01*
X82653Y303411D01*
X82671Y303466D01*
X82698Y303518D01*
X82709Y303586D01*
X82739Y303682D01*
X82742Y303781D01*
X82753Y303849D01*
X82753Y320400D01*
X84093Y321739D01*
X608181Y321739D01*
X608183Y321739D01*
X608184Y321739D01*
X608324Y321759D01*
X608463Y321779D01*
X608464Y321780D01*
X608466Y321780D01*
X608596Y321839D01*
X608722Y321895D01*
X608723Y321896D01*
X608725Y321897D01*
X608835Y321991D01*
X608939Y322079D01*
X608940Y322080D01*
X608941Y322081D01*
X608949Y322094D01*
X609095Y322313D01*
X610521Y323739D01*
X612380Y324509D01*
X614392Y324509D01*
X616250Y323739D01*
X617673Y322317D01*
X618442Y320458D01*
X618442Y318447D01*
X617673Y316588D01*
X616250Y315165D01*
X614392Y314396D01*
X612380Y314396D01*
X610521Y315165D01*
X609078Y316608D01*
X609048Y316660D01*
X608975Y316784D01*
X608973Y316785D01*
X608973Y316786D01*
X608869Y316884D01*
X608768Y316979D01*
X608767Y316980D01*
X608765Y316981D01*
X608640Y317045D01*
X608515Y317109D01*
X608514Y317109D01*
X608512Y317110D01*
X608497Y317113D01*
X608236Y317164D01*
X608206Y317161D01*
X608181Y317166D01*
X88342Y317166D01*
X88284Y317157D01*
X88225Y317159D01*
X88144Y317138D01*
X88060Y317126D01*
X88007Y317102D01*
X87950Y317087D01*
X87878Y317044D01*
X87801Y317010D01*
X87756Y316972D01*
X87706Y316942D01*
X87648Y316880D01*
X87584Y316826D01*
X87551Y316777D01*
X87511Y316735D01*
X87473Y316659D01*
X87426Y316589D01*
X87409Y316533D01*
X87382Y316481D01*
X87371Y316413D01*
X87340Y316318D01*
X87338Y316218D01*
X87327Y316150D01*
X87327Y299600D01*
X85987Y298261D01*
X72096Y298261D01*
X72094Y298260D01*
X72092Y298261D01*
X71952Y298240D01*
X71814Y298221D01*
X71813Y298220D01*
X71811Y298220D01*
X71680Y298161D01*
X71555Y298105D01*
X71553Y298104D01*
X71552Y298103D01*
X71444Y298011D01*
X71338Y297921D01*
X71337Y297920D01*
X71336Y297919D01*
X71327Y297905D01*
X71180Y297684D01*
X71171Y297655D01*
X71168Y297651D01*
X69740Y296222D01*
X67881Y295453D01*
X65869Y295453D01*
G37*
%LPD*%
%LPC*%
G36*
X66005Y265388D02*
X66005Y265388D01*
X64147Y266158D01*
X62724Y267580D01*
X61954Y269439D01*
X61954Y271451D01*
X62724Y273309D01*
X64147Y274732D01*
X66005Y275502D01*
X68017Y275502D01*
X69876Y274732D01*
X71318Y273289D01*
X71349Y273237D01*
X71422Y273113D01*
X71423Y273112D01*
X71424Y273111D01*
X71528Y273013D01*
X71629Y272918D01*
X71630Y272918D01*
X71631Y272916D01*
X71757Y272852D01*
X71882Y272788D01*
X71883Y272788D01*
X71885Y272787D01*
X71900Y272784D01*
X72161Y272733D01*
X72191Y272736D01*
X72216Y272732D01*
X82227Y272732D01*
X82284Y272740D01*
X82343Y272738D01*
X82424Y272760D01*
X82508Y272771D01*
X82561Y272795D01*
X82618Y272810D01*
X82690Y272853D01*
X82767Y272888D01*
X82812Y272925D01*
X82862Y272955D01*
X82920Y273017D01*
X82984Y273071D01*
X83017Y273120D01*
X83057Y273163D01*
X83095Y273238D01*
X83142Y273308D01*
X83160Y273364D01*
X83186Y273416D01*
X83198Y273484D01*
X83228Y273579D01*
X83230Y273679D01*
X83242Y273747D01*
X83242Y290441D01*
X84581Y291780D01*
X608165Y291780D01*
X608166Y291780D01*
X608168Y291780D01*
X608307Y291800D01*
X608446Y291820D01*
X608448Y291821D01*
X608449Y291821D01*
X608579Y291880D01*
X608706Y291936D01*
X608707Y291937D01*
X608708Y291938D01*
X608818Y292032D01*
X608923Y292120D01*
X608923Y292121D01*
X608925Y292122D01*
X608933Y292135D01*
X609079Y292354D01*
X610505Y293780D01*
X612363Y294550D01*
X614375Y294550D01*
X616234Y293780D01*
X617656Y292358D01*
X618426Y290499D01*
X618426Y288488D01*
X617656Y286629D01*
X616234Y285207D01*
X614375Y284437D01*
X612363Y284437D01*
X610505Y285207D01*
X609062Y286649D01*
X609031Y286701D01*
X608958Y286825D01*
X608957Y286826D01*
X608956Y286827D01*
X608852Y286925D01*
X608751Y287020D01*
X608750Y287021D01*
X608749Y287022D01*
X608623Y287086D01*
X608499Y287150D01*
X608497Y287150D01*
X608496Y287151D01*
X608481Y287154D01*
X608220Y287205D01*
X608189Y287203D01*
X608165Y287207D01*
X88830Y287207D01*
X88773Y287198D01*
X88714Y287200D01*
X88633Y287179D01*
X88549Y287167D01*
X88496Y287143D01*
X88439Y287128D01*
X88367Y287085D01*
X88290Y287051D01*
X88245Y287013D01*
X88195Y286983D01*
X88137Y286921D01*
X88073Y286867D01*
X88040Y286818D01*
X88000Y286776D01*
X87962Y286700D01*
X87915Y286630D01*
X87897Y286574D01*
X87871Y286522D01*
X87859Y286454D01*
X87829Y286359D01*
X87827Y286259D01*
X87815Y286191D01*
X87815Y269498D01*
X86476Y268158D01*
X72216Y268158D01*
X72214Y268158D01*
X72213Y268158D01*
X72073Y268138D01*
X71934Y268118D01*
X71933Y268118D01*
X71931Y268117D01*
X71801Y268059D01*
X71675Y268002D01*
X71674Y268001D01*
X71672Y268000D01*
X71562Y267907D01*
X71458Y267818D01*
X71457Y267817D01*
X71456Y267816D01*
X71447Y267803D01*
X71302Y267584D01*
X69876Y266158D01*
X68017Y265388D01*
X66005Y265388D01*
G37*
%LPD*%
%LPC*%
G36*
X95491Y235519D02*
X95491Y235519D01*
X93633Y236288D01*
X92210Y237711D01*
X91441Y239570D01*
X91441Y241581D01*
X92210Y243440D01*
X93633Y244862D01*
X95491Y245632D01*
X97503Y245632D01*
X99362Y244862D01*
X100784Y243440D01*
X100861Y243254D01*
X100862Y243253D01*
X100862Y243251D01*
X100934Y243130D01*
X101006Y243009D01*
X101007Y243008D01*
X101008Y243007D01*
X101112Y242909D01*
X101212Y242814D01*
X101214Y242813D01*
X101215Y242812D01*
X101339Y242749D01*
X101465Y242684D01*
X101467Y242684D01*
X101468Y242683D01*
X101483Y242680D01*
X101744Y242629D01*
X101774Y242631D01*
X101799Y242627D01*
X111924Y242627D01*
X111982Y242636D01*
X112040Y242634D01*
X112122Y242655D01*
X112205Y242667D01*
X112259Y242691D01*
X112315Y242706D01*
X112388Y242749D01*
X112465Y242783D01*
X112509Y242821D01*
X112559Y242851D01*
X112617Y242913D01*
X112682Y242967D01*
X112714Y243016D01*
X112754Y243058D01*
X112792Y243133D01*
X112839Y243204D01*
X112857Y243260D01*
X112883Y243312D01*
X112895Y243380D01*
X112925Y243475D01*
X112928Y243575D01*
X112939Y243643D01*
X112939Y260599D01*
X114278Y261939D01*
X607847Y261939D01*
X607849Y261939D01*
X607850Y261939D01*
X607990Y261959D01*
X608129Y261979D01*
X608130Y261979D01*
X608132Y261980D01*
X608262Y262038D01*
X608388Y262095D01*
X608389Y262096D01*
X608391Y262097D01*
X608501Y262190D01*
X608605Y262279D01*
X608606Y262280D01*
X608607Y262281D01*
X608615Y262294D01*
X608761Y262513D01*
X610187Y263939D01*
X612046Y264709D01*
X614058Y264709D01*
X615916Y263939D01*
X617339Y262517D01*
X618108Y260658D01*
X618108Y258646D01*
X617339Y256788D01*
X615916Y255365D01*
X614058Y254595D01*
X612046Y254595D01*
X610187Y255365D01*
X608744Y256808D01*
X608714Y256860D01*
X608641Y256984D01*
X608640Y256985D01*
X608639Y256986D01*
X608535Y257084D01*
X608434Y257179D01*
X608433Y257179D01*
X608431Y257181D01*
X608306Y257245D01*
X608181Y257309D01*
X608180Y257309D01*
X608178Y257310D01*
X608163Y257313D01*
X607902Y257364D01*
X607872Y257361D01*
X607847Y257365D01*
X118528Y257365D01*
X118470Y257357D01*
X118411Y257359D01*
X118330Y257337D01*
X118246Y257326D01*
X118193Y257302D01*
X118136Y257287D01*
X118064Y257244D01*
X117987Y257209D01*
X117942Y257172D01*
X117892Y257142D01*
X117834Y257080D01*
X117770Y257026D01*
X117737Y256977D01*
X117697Y256934D01*
X117659Y256859D01*
X117612Y256789D01*
X117594Y256733D01*
X117568Y256681D01*
X117556Y256613D01*
X117526Y256518D01*
X117524Y256418D01*
X117512Y256350D01*
X117512Y239393D01*
X116173Y238054D01*
X101548Y238054D01*
X101461Y238042D01*
X101374Y238039D01*
X101321Y238022D01*
X101266Y238014D01*
X101186Y237978D01*
X101103Y237951D01*
X101064Y237923D01*
X101007Y237898D01*
X100893Y237802D01*
X100830Y237756D01*
X99362Y236288D01*
X97503Y235519D01*
X95491Y235519D01*
G37*
%LPD*%
%LPC*%
G36*
X74954Y424541D02*
X74954Y424541D01*
X73095Y425311D01*
X71673Y426733D01*
X70903Y428592D01*
X70903Y430603D01*
X71673Y432462D01*
X73095Y433884D01*
X74954Y434654D01*
X76966Y434654D01*
X78824Y433884D01*
X80197Y432511D01*
X80221Y432494D01*
X80240Y432471D01*
X80334Y432408D01*
X80425Y432340D01*
X80452Y432330D01*
X80476Y432314D01*
X80584Y432279D01*
X80690Y432239D01*
X80720Y432237D01*
X80747Y432228D01*
X80861Y432225D01*
X80974Y432216D01*
X81002Y432221D01*
X81032Y432221D01*
X81141Y432249D01*
X81252Y432271D01*
X81278Y432285D01*
X81307Y432292D01*
X81404Y432350D01*
X81505Y432402D01*
X81526Y432423D01*
X81551Y432438D01*
X81629Y432520D01*
X81711Y432598D01*
X81726Y432624D01*
X81746Y432645D01*
X81797Y432746D01*
X81854Y432843D01*
X81862Y432872D01*
X81875Y432898D01*
X81888Y432975D01*
X81925Y433119D01*
X81923Y433181D01*
X81931Y433229D01*
X81931Y440526D01*
X83270Y441866D01*
X578713Y441866D01*
X578714Y441866D01*
X578716Y441866D01*
X578855Y441886D01*
X578994Y441906D01*
X578995Y441906D01*
X578997Y441906D01*
X579127Y441965D01*
X579253Y442022D01*
X579255Y442023D01*
X579256Y442023D01*
X579366Y442117D01*
X579470Y442205D01*
X579471Y442207D01*
X579473Y442208D01*
X579481Y442221D01*
X579626Y442440D01*
X581053Y443866D01*
X582911Y444636D01*
X584923Y444636D01*
X586782Y443866D01*
X588204Y442443D01*
X588974Y440585D01*
X588974Y438573D01*
X588204Y436715D01*
X586782Y435292D01*
X584923Y434522D01*
X582911Y434522D01*
X581053Y435292D01*
X579610Y436735D01*
X579579Y436787D01*
X579506Y436910D01*
X579505Y436911D01*
X579504Y436913D01*
X579400Y437010D01*
X579299Y437106D01*
X579298Y437106D01*
X579297Y437107D01*
X579171Y437172D01*
X579047Y437236D01*
X579045Y437236D01*
X579044Y437237D01*
X579029Y437239D01*
X578768Y437291D01*
X578737Y437288D01*
X578713Y437292D01*
X87519Y437292D01*
X87461Y437284D01*
X87403Y437286D01*
X87321Y437264D01*
X87238Y437252D01*
X87184Y437229D01*
X87128Y437214D01*
X87055Y437171D01*
X86978Y437136D01*
X86934Y437098D01*
X86883Y437069D01*
X86826Y437007D01*
X86761Y436953D01*
X86729Y436904D01*
X86689Y436861D01*
X86651Y436786D01*
X86604Y436716D01*
X86586Y436660D01*
X86560Y436608D01*
X86548Y436540D01*
X86518Y436445D01*
X86515Y436345D01*
X86504Y436277D01*
X86504Y431265D01*
X86516Y431179D01*
X86519Y431091D01*
X86536Y431039D01*
X86544Y430984D01*
X86580Y430904D01*
X86607Y430821D01*
X86635Y430782D01*
X86660Y430725D01*
X86677Y430704D01*
X86677Y428650D01*
X85338Y427311D01*
X81164Y427311D01*
X81163Y427311D01*
X81161Y427311D01*
X81022Y427291D01*
X80883Y427271D01*
X80881Y427270D01*
X80880Y427270D01*
X80750Y427211D01*
X80624Y427155D01*
X80622Y427154D01*
X80621Y427153D01*
X80511Y427059D01*
X80407Y426971D01*
X80406Y426970D01*
X80404Y426969D01*
X80396Y426956D01*
X80251Y426737D01*
X78824Y425311D01*
X76966Y424541D01*
X74954Y424541D01*
G37*
%LPD*%
%LPC*%
G36*
X95739Y445361D02*
X95739Y445361D01*
X93881Y446131D01*
X92458Y447553D01*
X91688Y449412D01*
X91688Y451423D01*
X92458Y453282D01*
X93881Y454704D01*
X95739Y455474D01*
X97751Y455474D01*
X99610Y454704D01*
X101053Y453261D01*
X101085Y453207D01*
X101156Y453086D01*
X101157Y453085D01*
X101158Y453084D01*
X101262Y452986D01*
X101363Y452891D01*
X101364Y452890D01*
X101366Y452889D01*
X101491Y452825D01*
X101616Y452761D01*
X101617Y452760D01*
X101619Y452760D01*
X101634Y452757D01*
X101895Y452706D01*
X101925Y452708D01*
X101950Y452704D01*
X111857Y452704D01*
X111915Y452712D01*
X111973Y452711D01*
X112055Y452732D01*
X112138Y452744D01*
X112192Y452768D01*
X112248Y452783D01*
X112321Y452826D01*
X112398Y452860D01*
X112442Y452898D01*
X112493Y452928D01*
X112550Y452990D01*
X112615Y453044D01*
X112647Y453093D01*
X112687Y453135D01*
X112726Y453210D01*
X112772Y453281D01*
X112790Y453336D01*
X112817Y453388D01*
X112828Y453456D01*
X112858Y453552D01*
X112861Y453651D01*
X112872Y453719D01*
X112872Y470417D01*
X114212Y471757D01*
X578332Y471757D01*
X578334Y471757D01*
X578335Y471757D01*
X578475Y471777D01*
X578614Y471797D01*
X578615Y471797D01*
X578617Y471798D01*
X578747Y471856D01*
X578873Y471913D01*
X578874Y471914D01*
X578876Y471915D01*
X578986Y472008D01*
X579090Y472097D01*
X579091Y472098D01*
X579092Y472099D01*
X579101Y472112D01*
X579246Y472331D01*
X580672Y473757D01*
X582531Y474527D01*
X584543Y474527D01*
X586401Y473757D01*
X587824Y472335D01*
X588594Y470476D01*
X588594Y468464D01*
X587824Y466606D01*
X586401Y465183D01*
X584543Y464413D01*
X582531Y464413D01*
X580672Y465183D01*
X579229Y466626D01*
X579199Y466678D01*
X579126Y466802D01*
X579125Y466803D01*
X579124Y466804D01*
X579020Y466902D01*
X578919Y466997D01*
X578918Y466997D01*
X578917Y466999D01*
X578791Y467063D01*
X578666Y467127D01*
X578665Y467127D01*
X578663Y467128D01*
X578648Y467131D01*
X578387Y467182D01*
X578357Y467179D01*
X578332Y467183D01*
X118461Y467183D01*
X118403Y467175D01*
X118344Y467177D01*
X118263Y467155D01*
X118179Y467144D01*
X118126Y467120D01*
X118069Y467105D01*
X117997Y467062D01*
X117920Y467027D01*
X117875Y466990D01*
X117825Y466960D01*
X117767Y466898D01*
X117703Y466844D01*
X117670Y466795D01*
X117630Y466752D01*
X117592Y466677D01*
X117545Y466607D01*
X117528Y466551D01*
X117501Y466499D01*
X117490Y466431D01*
X117459Y466336D01*
X117457Y466236D01*
X117446Y466168D01*
X117446Y449470D01*
X116106Y448131D01*
X101950Y448131D01*
X101948Y448131D01*
X101947Y448131D01*
X101807Y448111D01*
X101668Y448091D01*
X101667Y448090D01*
X101665Y448090D01*
X101535Y448031D01*
X101409Y447975D01*
X101408Y447974D01*
X101406Y447973D01*
X101296Y447879D01*
X101192Y447791D01*
X101191Y447790D01*
X101190Y447789D01*
X101182Y447776D01*
X101036Y447557D01*
X99610Y446131D01*
X97751Y445361D01*
X95739Y445361D01*
G37*
%LPD*%
%LPC*%
G36*
X95866Y205508D02*
X95866Y205508D01*
X94007Y206278D01*
X92585Y207700D01*
X91815Y209559D01*
X91815Y211570D01*
X92585Y213429D01*
X94007Y214851D01*
X95866Y215621D01*
X97877Y215621D01*
X99736Y214851D01*
X101135Y213452D01*
X101205Y213400D01*
X101269Y213340D01*
X101318Y213315D01*
X101362Y213281D01*
X101444Y213250D01*
X101522Y213210D01*
X101569Y213202D01*
X101628Y213180D01*
X101776Y213168D01*
X101853Y213155D01*
X111482Y213155D01*
X111540Y213163D01*
X111598Y213162D01*
X111680Y213183D01*
X111763Y213195D01*
X111817Y213219D01*
X111873Y213233D01*
X111946Y213276D01*
X112023Y213311D01*
X112067Y213349D01*
X112118Y213379D01*
X112175Y213440D01*
X112240Y213495D01*
X112272Y213543D01*
X112312Y213586D01*
X112351Y213661D01*
X112397Y213731D01*
X112415Y213787D01*
X112442Y213839D01*
X112453Y213907D01*
X112483Y214002D01*
X112486Y214102D01*
X112497Y214170D01*
X112497Y230369D01*
X113837Y231709D01*
X578136Y231709D01*
X578138Y231709D01*
X578140Y231709D01*
X578283Y231730D01*
X578418Y231749D01*
X578419Y231749D01*
X578421Y231750D01*
X578551Y231808D01*
X578677Y231865D01*
X578679Y231866D01*
X578680Y231867D01*
X578786Y231957D01*
X578894Y232049D01*
X578895Y232050D01*
X578896Y232051D01*
X578905Y232065D01*
X579050Y232283D01*
X580476Y233709D01*
X582335Y234479D01*
X584347Y234479D01*
X586205Y233709D01*
X587628Y232287D01*
X588398Y230428D01*
X588398Y228416D01*
X587628Y226558D01*
X586205Y225135D01*
X584347Y224365D01*
X582335Y224365D01*
X580476Y225135D01*
X579034Y226578D01*
X579002Y226632D01*
X578930Y226753D01*
X578929Y226755D01*
X578928Y226756D01*
X578823Y226855D01*
X578723Y226949D01*
X578722Y226949D01*
X578721Y226951D01*
X578594Y227015D01*
X578471Y227079D01*
X578469Y227079D01*
X578467Y227080D01*
X578452Y227083D01*
X578192Y227134D01*
X578161Y227131D01*
X578136Y227135D01*
X118086Y227135D01*
X118028Y227127D01*
X117969Y227129D01*
X117888Y227107D01*
X117804Y227096D01*
X117751Y227072D01*
X117694Y227057D01*
X117622Y227014D01*
X117545Y226979D01*
X117500Y226942D01*
X117450Y226912D01*
X117392Y226850D01*
X117328Y226796D01*
X117295Y226747D01*
X117255Y226704D01*
X117217Y226629D01*
X117170Y226559D01*
X117153Y226503D01*
X117126Y226451D01*
X117115Y226383D01*
X117085Y226288D01*
X117082Y226188D01*
X117071Y226120D01*
X117071Y209921D01*
X115731Y208581D01*
X102202Y208581D01*
X102200Y208581D01*
X102199Y208581D01*
X102058Y208561D01*
X101920Y208542D01*
X101919Y208541D01*
X101917Y208541D01*
X101787Y208482D01*
X101661Y208425D01*
X101660Y208424D01*
X101658Y208424D01*
X101551Y208333D01*
X101444Y208242D01*
X101443Y208240D01*
X101442Y208239D01*
X101434Y208227D01*
X101286Y208005D01*
X101277Y207976D01*
X101264Y207955D01*
X101158Y207700D01*
X99736Y206278D01*
X97877Y205508D01*
X95866Y205508D01*
G37*
%LPD*%
%LPC*%
G36*
X125760Y175495D02*
X125760Y175495D01*
X123901Y176265D01*
X122479Y177688D01*
X121709Y179546D01*
X121709Y181558D01*
X122479Y183417D01*
X123901Y184839D01*
X125760Y185609D01*
X127771Y185609D01*
X129630Y184839D01*
X131052Y183417D01*
X131188Y183090D01*
X131188Y183089D01*
X131189Y183088D01*
X131262Y182965D01*
X131332Y182846D01*
X131333Y182845D01*
X131334Y182843D01*
X131438Y182745D01*
X131539Y182650D01*
X131540Y182650D01*
X131541Y182649D01*
X131667Y182584D01*
X131791Y182520D01*
X131793Y182520D01*
X131794Y182519D01*
X131809Y182517D01*
X132070Y182465D01*
X132101Y182468D01*
X132125Y182464D01*
X139805Y182464D01*
X139863Y182472D01*
X139921Y182470D01*
X140003Y182492D01*
X140087Y182504D01*
X140140Y182527D01*
X140196Y182542D01*
X140269Y182585D01*
X140346Y182620D01*
X140391Y182658D01*
X140441Y182687D01*
X140499Y182749D01*
X140563Y182803D01*
X140595Y182852D01*
X140635Y182895D01*
X140674Y182970D01*
X140721Y183040D01*
X140738Y183096D01*
X140765Y183148D01*
X140776Y183216D01*
X140806Y183311D01*
X140809Y183411D01*
X140820Y183479D01*
X140820Y200448D01*
X142160Y201788D01*
X577898Y201788D01*
X577900Y201788D01*
X577901Y201788D01*
X578045Y201809D01*
X578179Y201828D01*
X578181Y201828D01*
X578183Y201829D01*
X578312Y201887D01*
X578439Y201944D01*
X578440Y201945D01*
X578442Y201946D01*
X578548Y202036D01*
X578656Y202128D01*
X578657Y202129D01*
X578658Y202130D01*
X578667Y202144D01*
X578812Y202362D01*
X580238Y203788D01*
X582097Y204558D01*
X584108Y204558D01*
X585967Y203788D01*
X587389Y202366D01*
X588159Y200507D01*
X588159Y198495D01*
X587389Y196637D01*
X585967Y195214D01*
X584108Y194444D01*
X582097Y194444D01*
X580238Y195214D01*
X578795Y196657D01*
X578763Y196710D01*
X578692Y196832D01*
X578690Y196833D01*
X578689Y196835D01*
X578584Y196934D01*
X578485Y197028D01*
X578483Y197028D01*
X578482Y197029D01*
X578355Y197094D01*
X578232Y197158D01*
X578231Y197158D01*
X578229Y197159D01*
X578213Y197162D01*
X577953Y197213D01*
X577923Y197210D01*
X577898Y197214D01*
X146409Y197214D01*
X146351Y197206D01*
X146293Y197208D01*
X146211Y197186D01*
X146127Y197175D01*
X146074Y197151D01*
X146018Y197136D01*
X145945Y197093D01*
X145868Y197058D01*
X145823Y197021D01*
X145773Y196991D01*
X145715Y196929D01*
X145651Y196875D01*
X145619Y196826D01*
X145579Y196783D01*
X145540Y196708D01*
X145493Y196638D01*
X145476Y196582D01*
X145449Y196530D01*
X145438Y196462D01*
X145408Y196367D01*
X145405Y196267D01*
X145394Y196199D01*
X145394Y179230D01*
X144054Y177890D01*
X131676Y177890D01*
X131589Y177878D01*
X131501Y177875D01*
X131449Y177858D01*
X131394Y177850D01*
X131314Y177815D01*
X131231Y177788D01*
X131192Y177760D01*
X131135Y177734D01*
X131021Y177638D01*
X130958Y177593D01*
X129630Y176265D01*
X127771Y175495D01*
X125760Y175495D01*
G37*
%LPD*%
%LPC*%
G36*
X95820Y475376D02*
X95820Y475376D01*
X93961Y476146D01*
X92539Y477568D01*
X91769Y479427D01*
X91769Y481439D01*
X92539Y483297D01*
X93961Y484720D01*
X95820Y485490D01*
X97832Y485490D01*
X99690Y484720D01*
X101113Y483297D01*
X101262Y482936D01*
X101263Y482934D01*
X101264Y482933D01*
X101334Y482814D01*
X101407Y482691D01*
X101408Y482690D01*
X101409Y482688D01*
X101513Y482591D01*
X101614Y482496D01*
X101615Y482495D01*
X101616Y482494D01*
X101742Y482429D01*
X101866Y482365D01*
X101868Y482365D01*
X101869Y482364D01*
X101884Y482362D01*
X102145Y482310D01*
X102176Y482313D01*
X102200Y482309D01*
X112293Y482309D01*
X112351Y482317D01*
X112410Y482316D01*
X112491Y482337D01*
X112575Y482349D01*
X112628Y482373D01*
X112685Y482387D01*
X112757Y482430D01*
X112834Y482465D01*
X112879Y482503D01*
X112929Y482533D01*
X112987Y482594D01*
X113051Y482649D01*
X113084Y482697D01*
X113124Y482740D01*
X113162Y482815D01*
X113209Y482885D01*
X113226Y482941D01*
X113253Y482993D01*
X113264Y483061D01*
X113295Y483156D01*
X113297Y483256D01*
X113308Y483324D01*
X113308Y499098D01*
X113308Y499099D01*
X113308Y500046D01*
X113977Y500715D01*
X113977Y500716D01*
X113978Y500716D01*
X114647Y501386D01*
X115584Y501386D01*
X115585Y501386D01*
X547719Y501665D01*
X547720Y501665D01*
X547721Y501665D01*
X547864Y501685D01*
X548000Y501705D01*
X548001Y501705D01*
X548003Y501705D01*
X548131Y501763D01*
X548260Y501821D01*
X548261Y501822D01*
X548262Y501822D01*
X548369Y501913D01*
X548476Y502005D01*
X548477Y502006D01*
X548478Y502007D01*
X548485Y502018D01*
X548634Y502242D01*
X548634Y502243D01*
X550060Y503668D01*
X551918Y504438D01*
X553930Y504438D01*
X555789Y503668D01*
X557211Y502246D01*
X557981Y500387D01*
X557981Y498375D01*
X557211Y496517D01*
X555789Y495094D01*
X553930Y494325D01*
X551918Y494325D01*
X550060Y495094D01*
X548615Y496539D01*
X548588Y496585D01*
X548514Y496709D01*
X548513Y496711D01*
X548512Y496712D01*
X548410Y496808D01*
X548308Y496904D01*
X548306Y496905D01*
X548305Y496907D01*
X548178Y496971D01*
X548055Y497035D01*
X548053Y497035D01*
X548051Y497036D01*
X548033Y497039D01*
X547776Y497090D01*
X547745Y497087D01*
X547720Y497091D01*
X118897Y496815D01*
X118839Y496807D01*
X118781Y496808D01*
X118699Y496787D01*
X118615Y496775D01*
X118562Y496751D01*
X118506Y496736D01*
X118433Y496693D01*
X118356Y496658D01*
X118311Y496621D01*
X118261Y496591D01*
X118204Y496529D01*
X118139Y496475D01*
X118107Y496426D01*
X118067Y496384D01*
X118028Y496308D01*
X117981Y496238D01*
X117964Y496182D01*
X117937Y496131D01*
X117926Y496062D01*
X117896Y495967D01*
X117893Y495868D01*
X117882Y495800D01*
X117882Y479075D01*
X116542Y477735D01*
X101700Y477735D01*
X101613Y477723D01*
X101526Y477720D01*
X101473Y477703D01*
X101419Y477696D01*
X101339Y477660D01*
X101255Y477633D01*
X101216Y477605D01*
X101159Y477579D01*
X101046Y477483D01*
X100982Y477438D01*
X99690Y476146D01*
X97832Y475376D01*
X95820Y475376D01*
G37*
%LPD*%
%LPC*%
G36*
X125765Y505358D02*
X125765Y505358D01*
X123906Y506127D01*
X122484Y507550D01*
X121714Y509409D01*
X121714Y511420D01*
X122484Y513279D01*
X123906Y514701D01*
X125765Y515471D01*
X127776Y515471D01*
X129635Y514701D01*
X131057Y513279D01*
X131192Y512954D01*
X131192Y512953D01*
X131193Y512952D01*
X131263Y512833D01*
X131336Y512710D01*
X131337Y512709D01*
X131338Y512707D01*
X131442Y512609D01*
X131543Y512514D01*
X131544Y512514D01*
X131545Y512513D01*
X131671Y512448D01*
X131796Y512384D01*
X131797Y512384D01*
X131799Y512383D01*
X131813Y512381D01*
X132074Y512329D01*
X132105Y512332D01*
X132130Y512328D01*
X140067Y512328D01*
X140124Y512336D01*
X140183Y512334D01*
X140264Y512356D01*
X140348Y512368D01*
X140401Y512391D01*
X140458Y512406D01*
X140530Y512449D01*
X140607Y512484D01*
X140652Y512522D01*
X140702Y512551D01*
X140760Y512613D01*
X140824Y512667D01*
X140857Y512716D01*
X140897Y512759D01*
X140935Y512834D01*
X140982Y512904D01*
X141000Y512960D01*
X141026Y513012D01*
X141038Y513080D01*
X141068Y513175D01*
X141070Y513275D01*
X141082Y513343D01*
X141082Y530559D01*
X142421Y531898D01*
X517924Y531898D01*
X517926Y531898D01*
X517928Y531898D01*
X518067Y531918D01*
X518206Y531938D01*
X518207Y531939D01*
X518209Y531939D01*
X518339Y531998D01*
X518465Y532054D01*
X518467Y532055D01*
X518468Y532056D01*
X518578Y532150D01*
X518682Y532238D01*
X518683Y532239D01*
X518684Y532240D01*
X518693Y532253D01*
X518838Y532472D01*
X520265Y533898D01*
X522123Y534668D01*
X524135Y534668D01*
X525994Y533898D01*
X527416Y532476D01*
X528186Y530617D01*
X528186Y528606D01*
X527416Y526747D01*
X525994Y525324D01*
X524135Y524555D01*
X522123Y524555D01*
X520265Y525324D01*
X518822Y526767D01*
X518791Y526819D01*
X518718Y526943D01*
X518717Y526944D01*
X518716Y526945D01*
X518612Y527043D01*
X518511Y527138D01*
X518510Y527139D01*
X518509Y527140D01*
X518383Y527204D01*
X518259Y527268D01*
X518257Y527268D01*
X518256Y527269D01*
X518241Y527272D01*
X517980Y527323D01*
X517949Y527320D01*
X517924Y527325D01*
X146670Y527325D01*
X146613Y527316D01*
X146554Y527318D01*
X146473Y527297D01*
X146389Y527285D01*
X146336Y527261D01*
X146279Y527246D01*
X146207Y527203D01*
X146130Y527169D01*
X146085Y527131D01*
X146035Y527101D01*
X145977Y527039D01*
X145913Y526985D01*
X145880Y526936D01*
X145840Y526894D01*
X145802Y526818D01*
X145755Y526748D01*
X145737Y526692D01*
X145711Y526640D01*
X145699Y526572D01*
X145669Y526477D01*
X145667Y526377D01*
X145655Y526309D01*
X145655Y509094D01*
X144316Y507754D01*
X131682Y507754D01*
X131596Y507742D01*
X131508Y507739D01*
X131456Y507722D01*
X131401Y507714D01*
X131321Y507679D01*
X131238Y507652D01*
X131198Y507624D01*
X131141Y507598D01*
X131028Y507502D01*
X130964Y507457D01*
X129635Y506127D01*
X127776Y505358D01*
X125765Y505358D01*
G37*
%LPD*%
%LPC*%
G36*
X155945Y145437D02*
X155945Y145437D01*
X154086Y146207D01*
X152664Y147629D01*
X151894Y149488D01*
X151894Y151500D01*
X152664Y153358D01*
X154086Y154781D01*
X155945Y155551D01*
X157956Y155551D01*
X159815Y154781D01*
X161284Y153312D01*
X161337Y153222D01*
X161338Y153221D01*
X161339Y153219D01*
X161440Y153124D01*
X161544Y153027D01*
X161545Y153026D01*
X161546Y153025D01*
X161672Y152961D01*
X161796Y152897D01*
X161798Y152896D01*
X161799Y152896D01*
X161814Y152893D01*
X162075Y152842D01*
X162106Y152844D01*
X162130Y152840D01*
X171562Y152840D01*
X171620Y152848D01*
X171678Y152847D01*
X171760Y152868D01*
X171844Y152880D01*
X171897Y152904D01*
X171954Y152919D01*
X172026Y152962D01*
X172103Y152996D01*
X172148Y153034D01*
X172198Y153064D01*
X172256Y153125D01*
X172320Y153180D01*
X172352Y153228D01*
X172392Y153271D01*
X172431Y153346D01*
X172478Y153416D01*
X172495Y153472D01*
X172522Y153524D01*
X172533Y153592D01*
X172563Y153687D01*
X172566Y153787D01*
X172577Y153855D01*
X172577Y170338D01*
X173917Y171678D01*
X547879Y171678D01*
X547880Y171678D01*
X547882Y171678D01*
X548021Y171698D01*
X548160Y171718D01*
X548162Y171718D01*
X548163Y171719D01*
X548293Y171777D01*
X548420Y171834D01*
X548421Y171835D01*
X548422Y171836D01*
X548532Y171929D01*
X548637Y172018D01*
X548637Y172019D01*
X548639Y172020D01*
X548647Y172033D01*
X548793Y172252D01*
X550219Y173678D01*
X552077Y174448D01*
X554089Y174448D01*
X555948Y173678D01*
X557370Y172256D01*
X558140Y170397D01*
X558140Y168385D01*
X557370Y166527D01*
X555948Y165104D01*
X554089Y164334D01*
X552077Y164334D01*
X550219Y165104D01*
X548776Y166547D01*
X548745Y166599D01*
X548672Y166723D01*
X548671Y166724D01*
X548670Y166725D01*
X548567Y166821D01*
X548465Y166918D01*
X548464Y166918D01*
X548463Y166920D01*
X548337Y166984D01*
X548213Y167048D01*
X548211Y167048D01*
X548210Y167049D01*
X548195Y167052D01*
X547934Y167103D01*
X547903Y167100D01*
X547879Y167104D01*
X178166Y167104D01*
X178108Y167096D01*
X178050Y167098D01*
X177968Y167076D01*
X177885Y167065D01*
X177831Y167041D01*
X177775Y167026D01*
X177702Y166983D01*
X177625Y166948D01*
X177581Y166911D01*
X177530Y166881D01*
X177473Y166819D01*
X177408Y166765D01*
X177376Y166716D01*
X177336Y166673D01*
X177297Y166598D01*
X177251Y166528D01*
X177233Y166472D01*
X177206Y166420D01*
X177195Y166352D01*
X177165Y166257D01*
X177162Y166157D01*
X177151Y166089D01*
X177151Y149606D01*
X175811Y148267D01*
X162180Y148267D01*
X162178Y148266D01*
X162176Y148267D01*
X162037Y148246D01*
X161898Y148227D01*
X161897Y148226D01*
X161895Y148226D01*
X161769Y148169D01*
X161639Y148110D01*
X161637Y148109D01*
X161636Y148109D01*
X161529Y148018D01*
X161422Y147927D01*
X161421Y147926D01*
X161420Y147924D01*
X161411Y147911D01*
X161264Y147690D01*
X161255Y147661D01*
X161242Y147640D01*
X161237Y147629D01*
X159815Y146207D01*
X157956Y145437D01*
X155945Y145437D01*
G37*
%LPD*%
%LPC*%
G36*
X154922Y535439D02*
X154922Y535439D01*
X153064Y536209D01*
X151641Y537631D01*
X150872Y539490D01*
X150872Y541502D01*
X151641Y543360D01*
X153064Y544783D01*
X154922Y545553D01*
X156934Y545553D01*
X158793Y544783D01*
X160236Y543340D01*
X160266Y543288D01*
X160339Y543164D01*
X160341Y543163D01*
X160341Y543162D01*
X160445Y543064D01*
X160546Y542969D01*
X160548Y542969D01*
X160549Y542967D01*
X160675Y542903D01*
X160799Y542839D01*
X160800Y542839D01*
X160802Y542838D01*
X160817Y542835D01*
X161078Y542784D01*
X161108Y542787D01*
X161133Y542783D01*
X171694Y542783D01*
X171752Y542791D01*
X171810Y542789D01*
X171892Y542811D01*
X171976Y542822D01*
X172029Y542846D01*
X172085Y542861D01*
X172158Y542904D01*
X172235Y542939D01*
X172280Y542976D01*
X172330Y543006D01*
X172388Y543068D01*
X172452Y543122D01*
X172484Y543171D01*
X172524Y543214D01*
X172563Y543289D01*
X172610Y543359D01*
X172627Y543415D01*
X172654Y543467D01*
X172665Y543535D01*
X172695Y543630D01*
X172698Y543730D01*
X172709Y543798D01*
X172709Y559236D01*
X174049Y560576D01*
X488056Y560576D01*
X488058Y560576D01*
X488059Y560576D01*
X488199Y560596D01*
X488338Y560615D01*
X488339Y560616D01*
X488341Y560616D01*
X488466Y560673D01*
X488597Y560732D01*
X488598Y560733D01*
X488600Y560733D01*
X488707Y560825D01*
X488814Y560915D01*
X488815Y560917D01*
X488816Y560918D01*
X488824Y560931D01*
X488972Y561152D01*
X488981Y561181D01*
X488994Y561202D01*
X489447Y562296D01*
X490870Y563719D01*
X492728Y564489D01*
X494740Y564489D01*
X496599Y563719D01*
X498021Y562296D01*
X498791Y560438D01*
X498791Y558426D01*
X498021Y556567D01*
X496599Y555145D01*
X494740Y554375D01*
X492728Y554375D01*
X490870Y555145D01*
X490310Y555705D01*
X490240Y555757D01*
X490176Y555817D01*
X490127Y555842D01*
X490083Y555876D01*
X490001Y555907D01*
X489923Y555947D01*
X489875Y555955D01*
X489817Y555977D01*
X489669Y555989D01*
X489592Y556002D01*
X178298Y556002D01*
X178240Y555994D01*
X178182Y555995D01*
X178100Y555974D01*
X178016Y555962D01*
X177963Y555938D01*
X177907Y555924D01*
X177834Y555881D01*
X177757Y555846D01*
X177712Y555808D01*
X177662Y555778D01*
X177604Y555717D01*
X177540Y555662D01*
X177508Y555614D01*
X177468Y555571D01*
X177429Y555496D01*
X177382Y555426D01*
X177365Y555370D01*
X177338Y555318D01*
X177327Y555250D01*
X177297Y555155D01*
X177294Y555055D01*
X177283Y554987D01*
X177283Y539549D01*
X175943Y538209D01*
X161133Y538209D01*
X161131Y538209D01*
X161130Y538209D01*
X160990Y538189D01*
X160851Y538169D01*
X160850Y538169D01*
X160848Y538168D01*
X160718Y538110D01*
X160592Y538053D01*
X160591Y538052D01*
X160589Y538051D01*
X160479Y537958D01*
X160375Y537869D01*
X160374Y537868D01*
X160373Y537867D01*
X160365Y537854D01*
X160219Y537635D01*
X158793Y536209D01*
X156934Y535439D01*
X154922Y535439D01*
G37*
%LPD*%
%LPC*%
G36*
X186037Y115156D02*
X186037Y115156D01*
X184178Y115926D01*
X182756Y117348D01*
X181986Y119207D01*
X181986Y121219D01*
X182756Y123077D01*
X184178Y124500D01*
X186037Y125270D01*
X188048Y125270D01*
X189907Y124500D01*
X191350Y123057D01*
X191381Y123004D01*
X191454Y122881D01*
X191455Y122880D01*
X191456Y122879D01*
X191559Y122781D01*
X191660Y122686D01*
X191662Y122686D01*
X191663Y122684D01*
X191789Y122620D01*
X191913Y122556D01*
X191915Y122556D01*
X191916Y122555D01*
X191931Y122552D01*
X192192Y122501D01*
X192222Y122504D01*
X192247Y122500D01*
X201590Y122500D01*
X201648Y122508D01*
X201706Y122506D01*
X201788Y122528D01*
X201871Y122539D01*
X201925Y122563D01*
X201981Y122578D01*
X202054Y122621D01*
X202131Y122656D01*
X202175Y122693D01*
X202226Y122723D01*
X202283Y122785D01*
X202348Y122839D01*
X202380Y122888D01*
X202420Y122931D01*
X202458Y123006D01*
X202505Y123076D01*
X202523Y123132D01*
X202549Y123184D01*
X202561Y123252D01*
X202591Y123347D01*
X202594Y123447D01*
X202605Y123515D01*
X202605Y140501D01*
X203944Y141841D01*
X518098Y141841D01*
X518099Y141841D01*
X518101Y141841D01*
X518240Y141861D01*
X518379Y141881D01*
X518381Y141881D01*
X518382Y141882D01*
X518512Y141940D01*
X518639Y141997D01*
X518640Y141998D01*
X518641Y141999D01*
X518751Y142092D01*
X518856Y142181D01*
X518857Y142182D01*
X518858Y142183D01*
X518866Y142196D01*
X519012Y142415D01*
X520438Y143841D01*
X522297Y144611D01*
X524308Y144611D01*
X526167Y143841D01*
X527589Y142419D01*
X528359Y140560D01*
X528359Y138548D01*
X527589Y136690D01*
X526167Y135267D01*
X524308Y134497D01*
X522297Y134497D01*
X520438Y135267D01*
X518995Y136710D01*
X518964Y136762D01*
X518891Y136886D01*
X518890Y136887D01*
X518889Y136888D01*
X518785Y136986D01*
X518685Y137081D01*
X518683Y137081D01*
X518682Y137083D01*
X518556Y137147D01*
X518432Y137211D01*
X518430Y137211D01*
X518429Y137212D01*
X518414Y137214D01*
X518153Y137266D01*
X518122Y137263D01*
X518098Y137267D01*
X208194Y137267D01*
X208136Y137259D01*
X208077Y137261D01*
X207996Y137239D01*
X207912Y137228D01*
X207859Y137204D01*
X207802Y137189D01*
X207730Y137146D01*
X207653Y137111D01*
X207608Y137074D01*
X207558Y137044D01*
X207500Y136982D01*
X207436Y136928D01*
X207403Y136879D01*
X207363Y136836D01*
X207325Y136761D01*
X207278Y136691D01*
X207261Y136635D01*
X207234Y136583D01*
X207223Y136515D01*
X207192Y136420D01*
X207190Y136320D01*
X207178Y136252D01*
X207178Y119266D01*
X205839Y117926D01*
X192247Y117926D01*
X192246Y117926D01*
X192244Y117926D01*
X192105Y117906D01*
X191966Y117886D01*
X191964Y117886D01*
X191963Y117885D01*
X191832Y117827D01*
X191706Y117770D01*
X191705Y117769D01*
X191703Y117768D01*
X191593Y117675D01*
X191489Y117586D01*
X191488Y117585D01*
X191487Y117584D01*
X191479Y117571D01*
X191333Y117352D01*
X189907Y115926D01*
X188048Y115156D01*
X186037Y115156D01*
G37*
%LPD*%
%LPC*%
G36*
X185694Y563537D02*
X185694Y563537D01*
X183836Y564307D01*
X182413Y565729D01*
X181643Y567588D01*
X181643Y569599D01*
X182413Y571458D01*
X183836Y572880D01*
X185694Y573650D01*
X187706Y573650D01*
X189565Y572880D01*
X191086Y571359D01*
X191156Y571307D01*
X191219Y571247D01*
X191269Y571222D01*
X191313Y571188D01*
X191395Y571157D01*
X191472Y571117D01*
X191520Y571109D01*
X191578Y571087D01*
X191726Y571075D01*
X191804Y571062D01*
X231642Y571062D01*
X231700Y571070D01*
X231759Y571069D01*
X231840Y571090D01*
X231924Y571102D01*
X231977Y571126D01*
X232034Y571140D01*
X232106Y571184D01*
X232183Y571218D01*
X232228Y571256D01*
X232278Y571286D01*
X232336Y571347D01*
X232400Y571402D01*
X232433Y571450D01*
X232473Y571493D01*
X232511Y571568D01*
X232558Y571638D01*
X232576Y571694D01*
X232602Y571746D01*
X232614Y571814D01*
X232644Y571909D01*
X232646Y572009D01*
X232658Y572077D01*
X232658Y590375D01*
X233997Y591714D01*
X427803Y591714D01*
X427804Y591715D01*
X427806Y591714D01*
X427949Y591735D01*
X428084Y591754D01*
X428086Y591755D01*
X428087Y591755D01*
X428217Y591814D01*
X428344Y591870D01*
X428345Y591872D01*
X428346Y591872D01*
X428452Y591963D01*
X428561Y592054D01*
X428561Y592055D01*
X428563Y592057D01*
X428571Y592070D01*
X428717Y592288D01*
X430143Y593714D01*
X432001Y594484D01*
X434013Y594484D01*
X435872Y593714D01*
X437294Y592292D01*
X438064Y590433D01*
X438064Y588422D01*
X437294Y586563D01*
X435872Y585141D01*
X434013Y584371D01*
X432001Y584371D01*
X430143Y585141D01*
X428700Y586584D01*
X428668Y586637D01*
X428596Y586759D01*
X428595Y586760D01*
X428594Y586761D01*
X428489Y586860D01*
X428390Y586954D01*
X428388Y586955D01*
X428387Y586956D01*
X428260Y587021D01*
X428137Y587084D01*
X428135Y587085D01*
X428134Y587085D01*
X428118Y587088D01*
X427858Y587139D01*
X427827Y587137D01*
X427803Y587141D01*
X238246Y587141D01*
X238189Y587133D01*
X238130Y587134D01*
X238048Y587113D01*
X237965Y587101D01*
X237912Y587077D01*
X237855Y587062D01*
X237783Y587019D01*
X237706Y586985D01*
X237661Y586947D01*
X237611Y586917D01*
X237553Y586856D01*
X237489Y586801D01*
X237456Y586752D01*
X237416Y586710D01*
X237378Y586635D01*
X237331Y586564D01*
X237313Y586509D01*
X237287Y586457D01*
X237275Y586389D01*
X237245Y586293D01*
X237243Y586194D01*
X237231Y586126D01*
X237231Y567828D01*
X235892Y566488D01*
X191980Y566488D01*
X191978Y566488D01*
X191977Y566488D01*
X191835Y566468D01*
X191698Y566449D01*
X191697Y566448D01*
X191695Y566448D01*
X191564Y566388D01*
X191439Y566332D01*
X191438Y566331D01*
X191436Y566331D01*
X191327Y566238D01*
X191222Y566149D01*
X191221Y566147D01*
X191220Y566146D01*
X191212Y566133D01*
X191064Y565912D01*
X191055Y565883D01*
X191042Y565862D01*
X190987Y565729D01*
X189565Y564307D01*
X187706Y563537D01*
X185694Y563537D01*
G37*
%LPD*%
%LPC*%
G36*
X245842Y85410D02*
X245842Y85410D01*
X243983Y86179D01*
X242561Y87602D01*
X241791Y89460D01*
X241791Y91472D01*
X242561Y93331D01*
X243983Y94753D01*
X245842Y95523D01*
X247854Y95523D01*
X249712Y94753D01*
X251265Y93200D01*
X251335Y93148D01*
X251399Y93088D01*
X251448Y93063D01*
X251492Y93029D01*
X251574Y92998D01*
X251652Y92958D01*
X251700Y92950D01*
X251758Y92928D01*
X251906Y92916D01*
X251983Y92903D01*
X261329Y92903D01*
X261387Y92911D01*
X261445Y92910D01*
X261527Y92931D01*
X261611Y92943D01*
X261664Y92967D01*
X261721Y92981D01*
X261793Y93024D01*
X261870Y93059D01*
X261915Y93097D01*
X261965Y93127D01*
X262023Y93188D01*
X262087Y93243D01*
X262119Y93291D01*
X262159Y93334D01*
X262198Y93409D01*
X262245Y93479D01*
X262262Y93535D01*
X262289Y93587D01*
X262300Y93655D01*
X262330Y93750D01*
X262333Y93850D01*
X262344Y93918D01*
X262344Y110510D01*
X263684Y111849D01*
X488742Y111849D01*
X488744Y111849D01*
X488745Y111849D01*
X488885Y111869D01*
X489024Y111889D01*
X489025Y111890D01*
X489027Y111890D01*
X489157Y111949D01*
X489283Y112005D01*
X489284Y112006D01*
X489286Y112007D01*
X489396Y112101D01*
X489500Y112189D01*
X489501Y112190D01*
X489502Y112191D01*
X489510Y112204D01*
X489656Y112423D01*
X491082Y113849D01*
X492941Y114619D01*
X494953Y114619D01*
X496811Y113849D01*
X498234Y112427D01*
X499003Y110568D01*
X499003Y108557D01*
X498234Y106698D01*
X496811Y105275D01*
X494953Y104506D01*
X492941Y104506D01*
X491082Y105275D01*
X489639Y106718D01*
X489609Y106770D01*
X489536Y106894D01*
X489535Y106895D01*
X489534Y106896D01*
X489430Y106994D01*
X489329Y107089D01*
X489328Y107090D01*
X489326Y107091D01*
X489201Y107155D01*
X489076Y107219D01*
X489075Y107219D01*
X489073Y107220D01*
X489058Y107223D01*
X488797Y107274D01*
X488767Y107271D01*
X488742Y107276D01*
X267933Y107276D01*
X267875Y107267D01*
X267817Y107269D01*
X267735Y107248D01*
X267652Y107236D01*
X267598Y107212D01*
X267542Y107197D01*
X267469Y107154D01*
X267392Y107120D01*
X267348Y107082D01*
X267297Y107052D01*
X267240Y106990D01*
X267175Y106936D01*
X267143Y106887D01*
X267103Y106845D01*
X267064Y106769D01*
X267018Y106699D01*
X267000Y106643D01*
X266973Y106591D01*
X266962Y106523D01*
X266932Y106428D01*
X266929Y106328D01*
X266918Y106260D01*
X266918Y89669D01*
X265578Y88329D01*
X252115Y88329D01*
X252113Y88329D01*
X252111Y88329D01*
X251972Y88309D01*
X251833Y88290D01*
X251832Y88289D01*
X251830Y88289D01*
X251700Y88230D01*
X251574Y88173D01*
X251572Y88172D01*
X251571Y88172D01*
X251461Y88078D01*
X251357Y87990D01*
X251356Y87988D01*
X251355Y87987D01*
X251346Y87974D01*
X251199Y87753D01*
X251190Y87724D01*
X251177Y87703D01*
X251135Y87602D01*
X249712Y86179D01*
X247854Y85410D01*
X245842Y85410D01*
G37*
%LPD*%
%LPC*%
G36*
X517307Y580619D02*
X517307Y580619D01*
X512330Y582681D01*
X508521Y586490D01*
X506459Y591467D01*
X506459Y596853D01*
X508521Y601830D01*
X512330Y605639D01*
X517307Y607701D01*
X522693Y607701D01*
X527670Y605639D01*
X531479Y601830D01*
X533541Y596853D01*
X533541Y591467D01*
X531479Y586490D01*
X527670Y582681D01*
X522693Y580619D01*
X517307Y580619D01*
G37*
%LPD*%
%LPC*%
G36*
X337307Y16459D02*
X337307Y16459D01*
X332330Y18521D01*
X328521Y22330D01*
X326459Y27307D01*
X326459Y32693D01*
X328521Y37670D01*
X332330Y41479D01*
X337307Y43541D01*
X342693Y43541D01*
X347670Y41479D01*
X351479Y37670D01*
X353541Y32693D01*
X353541Y27307D01*
X351479Y22330D01*
X347670Y18521D01*
X342693Y16459D01*
X337307Y16459D01*
G37*
%LPD*%
%LPC*%
G36*
X378964Y629023D02*
X378964Y629023D01*
X377106Y629793D01*
X375683Y631216D01*
X374913Y633074D01*
X374913Y635086D01*
X375683Y636944D01*
X377106Y638367D01*
X378964Y639137D01*
X380654Y639137D01*
X380740Y639149D01*
X380828Y639152D01*
X380881Y639169D01*
X380935Y639177D01*
X381015Y639212D01*
X381098Y639239D01*
X381138Y639267D01*
X381195Y639293D01*
X381308Y639389D01*
X381372Y639434D01*
X386766Y644829D01*
X386835Y644920D01*
X386909Y645008D01*
X386920Y645034D01*
X386937Y645056D01*
X386978Y645163D01*
X387025Y645268D01*
X387028Y645295D01*
X387038Y645321D01*
X387048Y645436D01*
X387063Y645550D01*
X387060Y645577D01*
X387062Y645605D01*
X387039Y645717D01*
X387023Y645831D01*
X387011Y645856D01*
X387006Y645883D01*
X386953Y645985D01*
X386906Y646090D01*
X386888Y646111D01*
X386875Y646136D01*
X386796Y646219D01*
X386721Y646306D01*
X386700Y646320D01*
X386679Y646342D01*
X386449Y646476D01*
X386437Y646484D01*
X385188Y647001D01*
X382402Y649788D01*
X380893Y653429D01*
X380893Y657371D01*
X382402Y661012D01*
X385188Y663798D01*
X388829Y665307D01*
X392771Y665307D01*
X396412Y663798D01*
X399198Y661012D01*
X400707Y657371D01*
X400707Y653429D01*
X399198Y649788D01*
X396412Y647001D01*
X394221Y646094D01*
X394220Y646093D01*
X394219Y646093D01*
X394095Y646019D01*
X393977Y645950D01*
X393976Y645949D01*
X393974Y645948D01*
X393877Y645844D01*
X393781Y645743D01*
X393781Y645742D01*
X393780Y645740D01*
X393715Y645615D01*
X393651Y645490D01*
X393651Y645489D01*
X393650Y645487D01*
X393648Y645473D01*
X393596Y645211D01*
X393599Y645181D01*
X393595Y645156D01*
X393595Y643752D01*
X385324Y635482D01*
X385272Y635412D01*
X385212Y635348D01*
X385186Y635299D01*
X385153Y635255D01*
X385122Y635173D01*
X385082Y635095D01*
X385074Y635047D01*
X385052Y634989D01*
X385040Y634841D01*
X385027Y634764D01*
X385027Y633074D01*
X384257Y631216D01*
X382834Y629793D01*
X380976Y629023D01*
X378964Y629023D01*
G37*
%LPD*%
%LPC*%
G36*
X36732Y449216D02*
X36732Y449216D01*
X34874Y449986D01*
X33451Y451408D01*
X32681Y453267D01*
X32681Y455278D01*
X33451Y457137D01*
X34874Y458559D01*
X35764Y458928D01*
X35844Y458976D01*
X35929Y459015D01*
X35966Y459047D01*
X36009Y459072D01*
X36073Y459141D01*
X36143Y459202D01*
X36166Y459239D01*
X36204Y459279D01*
X36278Y459424D01*
X36318Y459489D01*
X49412Y492234D01*
X49480Y492510D01*
X49480Y492517D01*
X49481Y492522D01*
X49533Y493115D01*
X49687Y493244D01*
X49741Y493304D01*
X49802Y493358D01*
X49830Y493403D01*
X49877Y493456D01*
X49936Y493578D01*
X49977Y493645D01*
X50051Y493831D01*
X50598Y494066D01*
X50841Y494213D01*
X50846Y494218D01*
X50851Y494221D01*
X51332Y494625D01*
X51419Y494722D01*
X51509Y494819D01*
X51514Y494829D01*
X51522Y494837D01*
X51578Y494954D01*
X51639Y495072D01*
X51640Y495082D01*
X51646Y495093D01*
X51694Y495373D01*
X51692Y495389D01*
X51694Y495403D01*
X51694Y496532D01*
X52464Y498391D01*
X53886Y499813D01*
X55745Y500583D01*
X57757Y500583D01*
X59615Y499813D01*
X61038Y498391D01*
X61808Y496532D01*
X61808Y494521D01*
X61038Y492662D01*
X59615Y491240D01*
X57757Y490470D01*
X55697Y490470D01*
X55675Y490478D01*
X55632Y490480D01*
X55590Y490491D01*
X55490Y490488D01*
X55391Y490493D01*
X55349Y490484D01*
X55306Y490482D01*
X55211Y490452D01*
X55114Y490430D01*
X55081Y490410D01*
X55035Y490396D01*
X54885Y490295D01*
X54824Y490259D01*
X54746Y490194D01*
X54692Y490133D01*
X54631Y490080D01*
X54603Y490035D01*
X54556Y489982D01*
X54497Y489860D01*
X54456Y489793D01*
X41825Y458207D01*
X41792Y458073D01*
X41758Y457940D01*
X41759Y457935D01*
X41757Y457931D01*
X41763Y457793D01*
X41767Y457656D01*
X41769Y457652D01*
X41769Y457647D01*
X41813Y457515D01*
X41855Y457385D01*
X41857Y457382D01*
X41859Y457377D01*
X42020Y457143D01*
X42024Y457140D01*
X42795Y455278D01*
X42795Y453267D01*
X42025Y451408D01*
X40603Y449986D01*
X38744Y449216D01*
X36732Y449216D01*
G37*
%LPD*%
%LPC*%
G36*
X312629Y645493D02*
X312629Y645493D01*
X308988Y647002D01*
X306202Y649788D01*
X304693Y653429D01*
X304693Y657371D01*
X306202Y661012D01*
X308988Y663798D01*
X312629Y665307D01*
X316571Y665307D01*
X320212Y663798D01*
X322998Y661012D01*
X324507Y657371D01*
X324507Y653429D01*
X322998Y649788D01*
X320212Y647002D01*
X316571Y645493D01*
X312629Y645493D01*
G37*
%LPD*%
%LPC*%
G36*
X338029Y645493D02*
X338029Y645493D01*
X334388Y647002D01*
X331602Y649788D01*
X330093Y653429D01*
X330093Y657371D01*
X331602Y661012D01*
X334388Y663798D01*
X338029Y665307D01*
X341971Y665307D01*
X345612Y663798D01*
X348398Y661012D01*
X349907Y657371D01*
X349907Y653429D01*
X348398Y649788D01*
X345612Y647002D01*
X341971Y645493D01*
X338029Y645493D01*
G37*
%LPD*%
%LPC*%
G36*
X287229Y645493D02*
X287229Y645493D01*
X283588Y647002D01*
X280802Y649788D01*
X279293Y653429D01*
X279293Y657371D01*
X280802Y661012D01*
X283588Y663798D01*
X287229Y665307D01*
X291171Y665307D01*
X294812Y663798D01*
X297598Y661012D01*
X299107Y657371D01*
X299107Y653429D01*
X297598Y649788D01*
X294812Y647002D01*
X291171Y645493D01*
X287229Y645493D01*
G37*
%LPD*%
%LPC*%
G36*
X367431Y657431D02*
X367431Y657431D01*
X367431Y666137D01*
X367958Y666054D01*
X369593Y665522D01*
X371125Y664742D01*
X372516Y663731D01*
X373731Y662516D01*
X374742Y661125D01*
X375522Y659593D01*
X376054Y657958D01*
X376137Y657431D01*
X367431Y657431D01*
G37*
%LPD*%
%LPC*%
G36*
X354663Y657431D02*
X354663Y657431D01*
X354746Y657958D01*
X355278Y659593D01*
X356058Y661125D01*
X357069Y662516D01*
X358284Y663731D01*
X359675Y664742D01*
X361207Y665522D01*
X362842Y666054D01*
X363369Y666137D01*
X363369Y657431D01*
X354663Y657431D01*
G37*
%LPD*%
%LPC*%
G36*
X367431Y653369D02*
X367431Y653369D01*
X376137Y653369D01*
X376054Y652842D01*
X375522Y651207D01*
X374742Y649675D01*
X373731Y648284D01*
X372516Y647069D01*
X371125Y646058D01*
X369593Y645278D01*
X367958Y644746D01*
X367431Y644663D01*
X367431Y653369D01*
G37*
%LPD*%
%LPC*%
G36*
X362842Y644746D02*
X362842Y644746D01*
X361207Y645278D01*
X359675Y646058D01*
X358284Y647069D01*
X357069Y648284D01*
X356058Y649675D01*
X355278Y651207D01*
X354746Y652842D01*
X354663Y653369D01*
X363369Y653369D01*
X363369Y644663D01*
X362842Y644746D01*
G37*
%LPD*%
%LPC*%
G36*
X102031Y117031D02*
X102031Y117031D01*
X102031Y124844D01*
X102351Y124793D01*
X103854Y124305D01*
X105263Y123588D01*
X106541Y122659D01*
X107659Y121541D01*
X108588Y120263D01*
X109305Y118854D01*
X109793Y117351D01*
X109844Y117031D01*
X102031Y117031D01*
G37*
%LPD*%
%LPC*%
G36*
X570156Y117031D02*
X570156Y117031D01*
X570207Y117351D01*
X570695Y118854D01*
X571412Y120263D01*
X572341Y121541D01*
X573459Y122659D01*
X574737Y123588D01*
X576146Y124305D01*
X577649Y124793D01*
X577969Y124844D01*
X577969Y117031D01*
X570156Y117031D01*
G37*
%LPD*%
%LPC*%
G36*
X365399Y655399D02*
X365399Y655399D01*
X365399Y655401D01*
X365401Y655401D01*
X365401Y655399D01*
X365399Y655399D01*
G37*
%LPD*%
D10*
X289200Y655400D03*
X314600Y655400D03*
X340000Y655400D03*
X365400Y655400D03*
X390800Y655400D03*
D11*
X100000Y115000D03*
X580000Y115000D03*
D12*
X364216Y605687D03*
X334199Y605590D03*
X304248Y605600D03*
X274109Y605600D03*
X38670Y418123D03*
X117799Y553279D03*
X394246Y605610D03*
X424297Y605659D03*
X214230Y575601D03*
X244036Y575662D03*
X274125Y575563D03*
X304198Y575580D03*
X334312Y575665D03*
X364103Y575645D03*
X394232Y575676D03*
X424203Y575666D03*
X454062Y575473D03*
X484031Y575591D03*
X184147Y545638D03*
X214121Y545534D03*
X244172Y545714D03*
X274151Y545693D03*
X304201Y545633D03*
X334168Y545657D03*
X364122Y545693D03*
X394154Y545672D03*
X424223Y545638D03*
X484130Y545654D03*
X514295Y545649D03*
X154196Y515581D03*
X184216Y515670D03*
X214336Y515638D03*
X244039Y515601D03*
X274133Y515650D03*
X304209Y515664D03*
X334253Y515720D03*
X364216Y515707D03*
X394089Y515581D03*
X424309Y515676D03*
X454089Y515688D03*
X484121Y515651D03*
X514171Y515619D03*
X544183Y515682D03*
X124289Y485659D03*
X154218Y485591D03*
X184146Y485649D03*
X214117Y485518D03*
X244113Y485607D03*
X274135Y485638D03*
X304189Y485581D03*
X334144Y485555D03*
X364104Y485618D03*
X394038Y485686D03*
X424134Y485649D03*
X454156Y485524D03*
X483928Y485712D03*
X514159Y485576D03*
X544152Y485759D03*
X574075Y485591D03*
X124034Y455702D03*
X154222Y455702D03*
X184128Y455612D03*
X214179Y455741D03*
X244013Y455647D03*
X274057Y455630D03*
X304250Y455738D03*
X334211Y455708D03*
X364247Y455673D03*
X394132Y455647D03*
X424188Y455715D03*
X454225Y455599D03*
X484213Y455736D03*
X514227Y455642D03*
X544175Y455736D03*
X574118Y455660D03*
X94212Y425645D03*
X124226Y425739D03*
X154120Y425711D03*
X184101Y425661D03*
X214054Y425543D03*
X244150Y425645D03*
X274249Y425604D03*
X304148Y425650D03*
X334305Y425650D03*
X364201Y425650D03*
X394099Y425707D03*
X424219Y425625D03*
X454193Y425748D03*
X484170Y425736D03*
X514155Y425580D03*
X544241Y425621D03*
X574199Y425698D03*
X604179Y425711D03*
X94233Y395589D03*
X124119Y395611D03*
X154167Y395595D03*
X184160Y395681D03*
X214198Y395557D03*
X244084Y395627D03*
X274151Y395611D03*
X304222Y395692D03*
X334053Y395686D03*
X394052Y395573D03*
X364182Y395703D03*
X424310Y395627D03*
X453867Y395330D03*
X484077Y395660D03*
X514059Y395627D03*
X544084Y395552D03*
X574225Y395595D03*
X604165Y395627D03*
X93978Y365767D03*
X124094Y365696D03*
X154201Y365587D03*
X184091Y365538D03*
X214083Y365624D03*
X244091Y365744D03*
X274159Y365524D03*
X304240Y365635D03*
X334122Y365632D03*
X364185Y365640D03*
X394122Y365669D03*
X424313Y365669D03*
X454143Y365666D03*
X484311Y365585D03*
X514151Y365588D03*
X544193Y365553D03*
X574201Y365669D03*
X604245Y365651D03*
X94035Y305692D03*
X124162Y305692D03*
X154244Y305601D03*
X184171Y305538D03*
X214215Y305601D03*
X244106Y305655D03*
X274223Y305638D03*
X304132Y305647D03*
X334177Y305629D03*
X364167Y305737D03*
X394231Y305647D03*
X424185Y305547D03*
X454248Y305592D03*
X484139Y305529D03*
X514103Y305601D03*
X544301Y305683D03*
X574247Y305728D03*
X604146Y305638D03*
X94219Y275632D03*
X124173Y275512D03*
X154073Y275632D03*
X184283Y275572D03*
X214267Y275670D03*
X244152Y275640D03*
X274264Y275685D03*
X304029Y275632D03*
X334134Y275572D03*
X364207Y275572D03*
X394244Y275542D03*
X424069Y275625D03*
X454166Y275625D03*
X484044Y275715D03*
X514118Y275641D03*
X574138Y275625D03*
X544116Y275670D03*
X604023Y275791D03*
X124187Y245548D03*
X154182Y245548D03*
X184099Y245647D03*
X214176Y245603D03*
X244115Y245618D03*
X274160Y245686D03*
X304039Y245565D03*
X334168Y245648D03*
X364295Y245694D03*
X394099Y245603D03*
X424205Y245551D03*
X454205Y245551D03*
X484053Y245573D03*
X514091Y245732D03*
X544189Y245656D03*
X573925Y245558D03*
X94124Y335539D03*
X124095Y335652D03*
X154219Y335517D03*
X184190Y335640D03*
X214107Y335607D03*
X244101Y335543D03*
X274194Y335690D03*
X304125Y335706D03*
X334098Y335722D03*
X364173Y335635D03*
X394243Y335652D03*
X424150Y335619D03*
X454194Y335663D03*
X484092Y335614D03*
X514037Y335647D03*
X544203Y335630D03*
X574207Y335555D03*
X604065Y335657D03*
X124035Y215724D03*
X154221Y215669D03*
X184092Y215767D03*
X214115Y215539D03*
X244170Y215605D03*
X274236Y215507D03*
X304161Y215745D03*
X334272Y215550D03*
X364056Y215767D03*
X394176Y215517D03*
X424275Y215626D03*
X454071Y215637D03*
X484061Y215789D03*
X514073Y215604D03*
X544106Y215615D03*
X574097Y215604D03*
X154118Y185530D03*
X184076Y185688D03*
X214192Y185582D03*
X244218Y185605D03*
X274304Y185560D03*
X304179Y185605D03*
X334144Y185696D03*
X364259Y185613D03*
X394226Y185545D03*
X424259Y185620D03*
X454307Y185636D03*
X484197Y185643D03*
X514284Y185591D03*
X544173Y185605D03*
X184197Y155651D03*
X214106Y155507D03*
X244322Y155670D03*
X274103Y155625D03*
X304218Y155733D03*
X334262Y155615D03*
X364070Y155679D03*
X394240Y155697D03*
X424238Y155498D03*
X453992Y155733D03*
X484117Y155697D03*
X514151Y155751D03*
X214203Y125770D03*
X244039Y125745D03*
X274146Y125512D03*
X304121Y125625D03*
X334171Y125745D03*
X364271Y125600D03*
X394133Y125637D03*
X424247Y125688D03*
X454108Y125568D03*
X484259Y125631D03*
X273917Y95669D03*
X304090Y95601D03*
X334111Y95646D03*
X364080Y95608D03*
X394070Y95630D03*
X424092Y95653D03*
X247165Y641000D03*
X185314Y614798D03*
X297709Y625085D03*
X454322Y545638D03*
X345300Y634150D03*
X379970Y634080D03*
D13*
X138560Y600370D02*
X112347Y577683D01*
X138560Y600370D02*
X170300Y622580D01*
X190790Y634150D01*
X345300Y634150D01*
X379970Y634080D02*
X390800Y644910D01*
X390800Y655400D01*
X112347Y577683D02*
X108688Y572982D01*
D12*
X79651Y533437D03*
D13*
X103904Y568286D02*
X108688Y572982D01*
X103904Y568286D02*
X79651Y533437D01*
D12*
X244750Y600701D03*
D13*
X181434Y578600D02*
X153960Y578600D01*
X181434Y578600D02*
X181434Y578600D01*
X212202Y600591D01*
X212331Y600461D02*
X244750Y600701D01*
X212331Y600461D02*
X212202Y600591D01*
D14*
X57982Y455778D03*
X57437Y405303D03*
D13*
X57592Y455389D02*
X57982Y455778D01*
X57592Y455389D02*
X57592Y410101D01*
X57816Y454237D02*
X153960Y578600D01*
X57982Y455778D02*
X57816Y454237D01*
X57592Y410101D02*
X57437Y405303D01*
D12*
X56751Y495526D03*
X37738Y454272D03*
D13*
X38115Y456456D01*
X52217Y491719D01*
X56751Y495526D01*
D12*
X433007Y589428D03*
X186700Y568594D03*
D15*
X234944Y589428D02*
X433007Y589428D01*
X234944Y589428D02*
X234944Y568775D01*
X186882Y568775D01*
X186700Y568594D01*
D12*
X493734Y559432D03*
X155928Y540496D03*
D15*
X174996Y558289D02*
X492591Y558289D01*
X174996Y558289D02*
X174996Y540496D01*
X155928Y540496D01*
X492591Y558289D02*
X493734Y559432D01*
D12*
X126770Y510414D03*
X523129Y529611D03*
D15*
X143369Y529611D01*
X143369Y510041D01*
X126770Y510041D01*
X126770Y510414D01*
D12*
X552924Y499381D03*
X96826Y480433D03*
D15*
X115595Y499100D02*
X552924Y499381D01*
X115595Y499100D02*
X115595Y480022D01*
X96826Y480022D02*
X96826Y480433D01*
X96826Y480022D02*
X115595Y480022D01*
D12*
X583537Y469470D03*
X96745Y450418D03*
D15*
X115159Y469470D02*
X583537Y469470D01*
X115159Y450418D02*
X96745Y450418D01*
X115159Y450418D02*
X115159Y469470D01*
D12*
X583917Y439579D03*
X75960Y429597D03*
D15*
X84217Y439579D02*
X583917Y439579D01*
X84217Y439579D02*
X84217Y429724D01*
X84391Y429724D01*
X84391Y429597D01*
X75960Y429597D01*
D12*
X613545Y409548D03*
X66198Y390534D03*
D15*
X82844Y409548D02*
X613545Y409548D01*
X82844Y409548D02*
X82844Y390327D01*
X66198Y390327D01*
X66198Y390534D01*
D12*
X613277Y379580D03*
X66808Y360434D03*
D15*
X83480Y379580D02*
X613277Y379580D01*
X83480Y379580D02*
X83480Y360354D01*
X66808Y360354D01*
X66808Y360434D01*
D12*
X613383Y349602D03*
X66889Y330499D03*
D15*
X85331Y349602D02*
X613383Y349602D01*
X85331Y330499D02*
X66889Y330499D01*
X85331Y330499D02*
X85331Y349602D01*
D12*
X613386Y319452D03*
X66875Y300509D03*
D15*
X85040Y319452D02*
X613386Y319452D01*
X66875Y300547D02*
X66875Y300509D01*
X85040Y300547D02*
X85040Y319452D01*
X85040Y300547D02*
X66875Y300547D01*
D12*
X613369Y289493D03*
X67011Y270445D03*
D15*
X85529Y289493D02*
X613369Y289493D01*
X85529Y270445D02*
X67011Y270445D01*
X85529Y270445D02*
X85529Y289493D01*
D12*
X613052Y259652D03*
X96497Y240575D03*
D15*
X115226Y259652D02*
X613052Y259652D01*
X115226Y259652D02*
X115226Y240341D01*
X96497Y240341D01*
X96497Y240575D01*
D12*
X583341Y229422D03*
X96871Y210565D03*
D15*
X114784Y229422D02*
X583341Y229422D01*
X114784Y229422D02*
X114784Y210868D01*
X96871Y210868D01*
X96871Y210565D01*
D12*
X583103Y199501D03*
X126766Y180552D03*
D15*
X143107Y199501D02*
X583103Y199501D01*
X143107Y199501D02*
X143107Y180177D01*
X126766Y180177D01*
X126766Y180552D01*
D12*
X553083Y169391D03*
X156950Y150494D03*
D15*
X174864Y169391D02*
X553083Y169391D01*
X174864Y169391D02*
X174864Y150553D01*
X156950Y150553D01*
X156950Y150494D01*
D12*
X523302Y139554D03*
X187043Y120213D03*
D15*
X204892Y139554D02*
X523302Y139554D01*
X204892Y120213D02*
X187043Y120213D01*
X204892Y120213D02*
X204892Y139554D01*
D12*
X493947Y109562D03*
X246848Y90466D03*
D15*
X264631Y109562D02*
X493947Y109562D01*
X264631Y109562D02*
X264631Y90616D01*
X246848Y90616D01*
X246848Y90466D01*
D12*
X228877Y624998D03*
X212875Y624998D03*
D13*
X228877Y624998D01*
D12*
X228877Y616235D03*
X212875Y616235D03*
D13*
X228877Y616235D01*
D12*
X266977Y626903D03*
D13*
X256190Y626903D01*
X245522Y616235D02*
X228877Y616235D01*
X245522Y616235D02*
X256190Y626903D01*
M02*
