M48
;GenerationSoftware,Autodesk,EAGLE,9.2.2*%
;CreationDate,2019-03-01T03:04:48Z*%
FMAT,2
ICI,OFF
METRIC,TZ,000.000
T4C0.300
T3C0.350
T2C1.000
T1C2.200
%
G90
M71
T1
X52000Y59416
X34000Y3000
X16000Y59416
T2
X39080Y65540
X28920Y65540
X31460Y65540
X34000Y65540
X36540Y65540
T3
X5798Y45578
X5744Y40530
T4
X27412Y57556
X30420Y57558
X33431Y57566
X36410Y57564
X39423Y57568
X42420Y57567
X45406Y57547
X48403Y57559
X18415Y54564
X21412Y54553
X24417Y54571
X27415Y54569
X30420Y54563
X33417Y54566
X36412Y54569
X39415Y54567
X42422Y54564
X48413Y54565
X51429Y54565
X15420Y51558
X18422Y51567
X21434Y51564
X24404Y51560
X27413Y51565
X30421Y51566
X33425Y51572
X36422Y51571
X39409Y51558
X42431Y51568
X45409Y51569
X48412Y51565
X51417Y51562
X54418Y51568
X12429Y48566
X15422Y48559
X18415Y48565
X21412Y48552
X24411Y48561
X27413Y48564
X30419Y48558
X33414Y48555
X36410Y48562
X39404Y48569
X42413Y48565
X45416Y48552
X48393Y48571
X51416Y48558
X54415Y48576
X57408Y48559
X12403Y45570
X15422Y45570
X18413Y45561
X21418Y45574
X24401Y45565
X27406Y45563
X30425Y45574
X33421Y45571
X36425Y45567
X39413Y45565
X42419Y45572
X45422Y45560
X48421Y45574
X51423Y45564
X54417Y45574
X57412Y45566
X9421Y42565
X12423Y42574
X15412Y42571
X18410Y42566
X21405Y42554
X24415Y42565
X27425Y42560
X30415Y42565
X33430Y42565
X36420Y42565
X39410Y42571
X42422Y42563
X45419Y42575
X48417Y42574
X51415Y42558
X54424Y42562
X57420Y42570
X60418Y42571
X9423Y39559
X12412Y39561
X15417Y39559
X18416Y39568
X21420Y39556
X24408Y39563
X27415Y39561
X30422Y39569
X33405Y39569
X39405Y39557
X36418Y39570
X42431Y39563
X45387Y39533
X48408Y39566
X51406Y39563
X54408Y39555
X57422Y39559
X60416Y39563
X9398Y36577
X12409Y36570
X15420Y36559
X18409Y36554
X21408Y36562
X24409Y36574
X27416Y36552
X30424Y36563
X33412Y36563
X36419Y36564
X39412Y36567
X42431Y36567
X45414Y36567
X48431Y36558
X51415Y36559
X54419Y36555
X57420Y36567
X60425Y36565
X9403Y30569
X12416Y30569
X15424Y30560
X18417Y30554
X21422Y30560
X24411Y30566
X27422Y30564
X30413Y30565
X33418Y30563
X36417Y30574
X39423Y30565
X42418Y30555
X45425Y30559
X48414Y30553
X51410Y30560
X54430Y30568
X57425Y30573
X60415Y30564
X9422Y27563
X12417Y27551
X15407Y27563
X18428Y27557
X21427Y27567
X24415Y27564
X27426Y27568
X30403Y27563
X33413Y27557
X36421Y27557
X39424Y27554
X42407Y27562
X45417Y27562
X48404Y27572
X51412Y27564
X57414Y27562
X54412Y27567
X60402Y27579
X12419Y24555
X15418Y24555
X18410Y24565
X21418Y24560
X24411Y24562
X27416Y24569
X30404Y24557
X33417Y24565
X36430Y24569
X39410Y24560
X42420Y24555
X45420Y24555
X48405Y24557
X51409Y24573
X54419Y24566
X57392Y24556
X9412Y33554
X12409Y33565
X15422Y33552
X18419Y33564
X21411Y33561
X24410Y33554
X27419Y33569
X30413Y33571
X33410Y33572
X36417Y33564
X39424Y33565
X42415Y33562
X45419Y33566
X48409Y33561
X51404Y33565
X54420Y33563
X57421Y33555
X60407Y33566
X12404Y21572
X15422Y21567
X18409Y21577
X21412Y21554
X24417Y21560
X27424Y21551
X30416Y21575
X33427Y21555
X36406Y21577
X39418Y21552
X42428Y21563
X45407Y21564
X48406Y21579
X51407Y21560
X54411Y21561
X57410Y21560
X15412Y18553
X18408Y18569
X21419Y18558
X24422Y18561
X27430Y18556
X30418Y18561
X33414Y18570
X36426Y18561
X39423Y18555
X42426Y18562
X45431Y18564
X48420Y18564
X51428Y18559
X54417Y18561
X18420Y15565
X21411Y15551
X24432Y15567
X27410Y15562
X30422Y15573
X33426Y15562
X36407Y15568
X39424Y15570
X36422Y60569
X45399Y15573
X48412Y15570
X51415Y15575
X21420Y12577
X24404Y12574
X27415Y12551
X30412Y12563
X33417Y12574
X36427Y12560
X39413Y12564
X42425Y12569
X45411Y12557
X48426Y12563
X27392Y9567
X30409Y9560
X33411Y9565
X36408Y9561
X39407Y9563
X42409Y9565
X24716Y64100
X18531Y61480
X29771Y62509
X45432Y54564
X34530Y63415
X37997Y63408
X7965Y53344
X24475Y60070
X33420Y60559
X30425Y60560
X5675Y49553
X3774Y45427
X43301Y58943
X18670Y56859
X49373Y55943
X15593Y54050
X12677Y51041
X52313Y52961
X55292Y49938
X42424Y15550
X58354Y46947
X9675Y45042
X58392Y43958
X7596Y42960
X61354Y40955
X6620Y39053
X61328Y37958
X6681Y36043
X61338Y34960
X6689Y33050
X61339Y31945
X6688Y30051
X61337Y28949
X6701Y27044
X61305Y25965
X9650Y24058
X58334Y22942
X9687Y21056
X58310Y19950
X12677Y18055
X55308Y16939
X15695Y15049
X52330Y13955
X18704Y12021
X49395Y10956
X24685Y9047
X22888Y62500
X21288Y62500
X22888Y61624
X21288Y61624
X26698Y62690
X27411Y60560
X3867Y41812
X11780Y55328
X39425Y60561
X42430Y60566
X21423Y57560
X24404Y57566
X9683Y48043
M30