G04 EAGLE Gerber RS-274X export*
G75*
%MOMM*%
%FSLAX34Y34*%
%LPD*%
%IN*%
%IPPOS*%
%AMOC8*
5,1,8,0,0,1.08239X$1,22.5*%
G01*
%ADD10C,0.254000*%


D10*
X680000Y335827D02*
X680000Y344173D01*
X679795Y352515D01*
X679386Y360851D01*
X678772Y369173D01*
X677954Y377478D01*
X676932Y385761D01*
X675708Y394016D01*
X674281Y402238D01*
X672653Y410423D01*
X670825Y418566D01*
X668797Y426661D01*
X666571Y434704D01*
X664148Y442690D01*
X661531Y450614D01*
X658719Y458471D01*
X655716Y466257D01*
X652522Y473967D01*
X649140Y481597D01*
X645572Y489141D01*
X641820Y496595D01*
X637886Y503955D01*
X633773Y511216D01*
X629483Y518374D01*
X625018Y525424D01*
X620381Y532363D01*
X615576Y539186D01*
X610605Y545889D01*
X605471Y552468D01*
X600176Y558919D01*
X594726Y565238D01*
X589121Y571422D01*
X583367Y577466D01*
X577466Y583367D01*
X571422Y589121D01*
X565238Y594726D01*
X558919Y600176D01*
X552468Y605471D01*
X545889Y610605D01*
X539186Y615576D01*
X532363Y620381D01*
X525424Y625018D01*
X518374Y629483D01*
X511216Y633773D01*
X503955Y637886D01*
X496595Y641820D01*
X489141Y645572D01*
X481597Y649140D01*
X473967Y652522D01*
X466257Y655716D01*
X458471Y658719D01*
X450614Y661531D01*
X442690Y664148D01*
X434704Y666571D01*
X426661Y668797D01*
X418566Y670825D01*
X410423Y672653D01*
X402238Y674281D01*
X394016Y675708D01*
X385761Y676932D01*
X377478Y677954D01*
X369173Y678772D01*
X360851Y679386D01*
X352515Y679795D01*
X344173Y680000D01*
X335827Y680000D01*
X327485Y679795D01*
X319149Y679386D01*
X310827Y678772D01*
X302522Y677954D01*
X294239Y676932D01*
X285984Y675708D01*
X277762Y674281D01*
X269577Y672653D01*
X261434Y670825D01*
X253339Y668797D01*
X245296Y666571D01*
X237310Y664148D01*
X229386Y661531D01*
X221529Y658719D01*
X213743Y655716D01*
X206033Y652522D01*
X198403Y649140D01*
X190859Y645572D01*
X183405Y641820D01*
X176045Y637886D01*
X168784Y633773D01*
X161626Y629483D01*
X154576Y625018D01*
X147637Y620381D01*
X140814Y615576D01*
X134111Y610605D01*
X127532Y605471D01*
X121081Y600176D01*
X114762Y594726D01*
X108578Y589121D01*
X102534Y583367D01*
X96633Y577466D01*
X90879Y571422D01*
X85274Y565238D01*
X79824Y558919D01*
X74529Y552468D01*
X69395Y545889D01*
X64424Y539186D01*
X59619Y532363D01*
X54982Y525424D01*
X50517Y518374D01*
X46227Y511216D01*
X42114Y503955D01*
X38180Y496595D01*
X34428Y489141D01*
X30860Y481597D01*
X27478Y473967D01*
X24284Y466257D01*
X21281Y458471D01*
X18469Y450614D01*
X15852Y442690D01*
X13429Y434704D01*
X11203Y426661D01*
X9176Y418566D01*
X7347Y410423D01*
X5719Y402238D01*
X4292Y394016D01*
X3068Y385761D01*
X2046Y377478D01*
X1228Y369173D01*
X614Y360851D01*
X205Y352515D01*
X0Y344173D01*
X0Y335827D01*
X205Y327485D01*
X614Y319149D01*
X1228Y310827D01*
X2046Y302522D01*
X3068Y294239D01*
X4292Y285984D01*
X5719Y277762D01*
X7347Y269577D01*
X9176Y261434D01*
X11203Y253339D01*
X13429Y245296D01*
X15852Y237310D01*
X18469Y229386D01*
X21281Y221529D01*
X24284Y213743D01*
X27478Y206033D01*
X30860Y198403D01*
X34428Y190859D01*
X38180Y183405D01*
X42114Y176045D01*
X46227Y168784D01*
X50517Y161626D01*
X54982Y154576D01*
X59619Y147637D01*
X64424Y140814D01*
X69395Y134111D01*
X74529Y127532D01*
X79824Y121081D01*
X85274Y114762D01*
X90879Y108578D01*
X96633Y102534D01*
X102534Y96633D01*
X108578Y90879D01*
X114762Y85274D01*
X121081Y79824D01*
X127532Y74529D01*
X134111Y69395D01*
X140814Y64424D01*
X147637Y59619D01*
X154576Y54982D01*
X161626Y50517D01*
X168784Y46227D01*
X176045Y42114D01*
X183405Y38180D01*
X190859Y34428D01*
X198403Y30860D01*
X206033Y27478D01*
X213743Y24284D01*
X221529Y21281D01*
X229386Y18469D01*
X237310Y15852D01*
X245296Y13429D01*
X253339Y11203D01*
X261434Y9176D01*
X269577Y7347D01*
X277762Y5719D01*
X285984Y4292D01*
X294239Y3068D01*
X302522Y2046D01*
X310827Y1228D01*
X319149Y614D01*
X327485Y205D01*
X335827Y0D01*
X344173Y0D01*
X352515Y205D01*
X360851Y614D01*
X369173Y1228D01*
X377478Y2046D01*
X385761Y3068D01*
X394016Y4292D01*
X402238Y5719D01*
X410423Y7347D01*
X418566Y9176D01*
X426661Y11203D01*
X434704Y13429D01*
X442690Y15852D01*
X450614Y18469D01*
X458471Y21281D01*
X466257Y24284D01*
X473967Y27478D01*
X481597Y30860D01*
X489141Y34428D01*
X496595Y38180D01*
X503955Y42114D01*
X511216Y46227D01*
X518374Y50517D01*
X525424Y54982D01*
X532363Y59619D01*
X539186Y64424D01*
X545889Y69395D01*
X552468Y74529D01*
X558919Y79824D01*
X565238Y85274D01*
X571422Y90879D01*
X577466Y96633D01*
X583367Y102534D01*
X589121Y108578D01*
X594726Y114762D01*
X600176Y121081D01*
X605471Y127532D01*
X610605Y134111D01*
X615576Y140814D01*
X620381Y147637D01*
X625018Y154576D01*
X629483Y161626D01*
X633773Y168784D01*
X637886Y176045D01*
X641820Y183405D01*
X645572Y190859D01*
X649140Y198403D01*
X652522Y206033D01*
X655716Y213743D01*
X658719Y221529D01*
X661531Y229386D01*
X664148Y237310D01*
X666571Y245296D01*
X668797Y253339D01*
X670825Y261434D01*
X672653Y269577D01*
X674281Y277762D01*
X675708Y285984D01*
X676932Y294239D01*
X677954Y302522D01*
X678772Y310827D01*
X679386Y319149D01*
X679795Y327485D01*
X680000Y335827D01*
X531000Y593728D02*
X530932Y592866D01*
X530797Y592012D01*
X530595Y591172D01*
X530328Y590350D01*
X529997Y589551D01*
X529605Y588781D01*
X529153Y588044D01*
X528645Y587345D01*
X528084Y586687D01*
X527473Y586076D01*
X526815Y585515D01*
X526116Y585007D01*
X525379Y584555D01*
X524609Y584163D01*
X523810Y583832D01*
X522988Y583565D01*
X522148Y583363D01*
X521294Y583228D01*
X520432Y583160D01*
X519568Y583160D01*
X518706Y583228D01*
X517852Y583363D01*
X517012Y583565D01*
X516190Y583832D01*
X515391Y584163D01*
X514621Y584555D01*
X513884Y585007D01*
X513185Y585515D01*
X512527Y586076D01*
X511916Y586687D01*
X511355Y587345D01*
X510847Y588044D01*
X510395Y588781D01*
X510003Y589551D01*
X509672Y590350D01*
X509405Y591172D01*
X509203Y592012D01*
X509068Y592866D01*
X509000Y593728D01*
X509000Y594592D01*
X509068Y595454D01*
X509203Y596308D01*
X509405Y597148D01*
X509672Y597970D01*
X510003Y598769D01*
X510395Y599539D01*
X510847Y600276D01*
X511355Y600975D01*
X511916Y601633D01*
X512527Y602244D01*
X513185Y602805D01*
X513884Y603313D01*
X514621Y603765D01*
X515391Y604157D01*
X516190Y604488D01*
X517012Y604755D01*
X517852Y604957D01*
X518706Y605092D01*
X519568Y605160D01*
X520432Y605160D01*
X521294Y605092D01*
X522148Y604957D01*
X522988Y604755D01*
X523810Y604488D01*
X524609Y604157D01*
X525379Y603765D01*
X526116Y603313D01*
X526815Y602805D01*
X527473Y602244D01*
X528084Y601633D01*
X528645Y600975D01*
X529153Y600276D01*
X529605Y599539D01*
X529997Y598769D01*
X530328Y597970D01*
X530595Y597148D01*
X530797Y596308D01*
X530932Y595454D01*
X531000Y594592D01*
X531000Y593728D01*
X351000Y29568D02*
X350932Y28706D01*
X350797Y27852D01*
X350595Y27012D01*
X350328Y26190D01*
X349997Y25391D01*
X349605Y24621D01*
X349153Y23884D01*
X348645Y23185D01*
X348084Y22527D01*
X347473Y21916D01*
X346815Y21355D01*
X346116Y20847D01*
X345379Y20395D01*
X344609Y20003D01*
X343810Y19672D01*
X342988Y19405D01*
X342148Y19203D01*
X341294Y19068D01*
X340432Y19000D01*
X339568Y19000D01*
X338706Y19068D01*
X337852Y19203D01*
X337012Y19405D01*
X336190Y19672D01*
X335391Y20003D01*
X334621Y20395D01*
X333884Y20847D01*
X333185Y21355D01*
X332527Y21916D01*
X331916Y22527D01*
X331355Y23185D01*
X330847Y23884D01*
X330395Y24621D01*
X330003Y25391D01*
X329672Y26190D01*
X329405Y27012D01*
X329203Y27852D01*
X329068Y28706D01*
X329000Y29568D01*
X329000Y30432D01*
X329068Y31294D01*
X329203Y32148D01*
X329405Y32988D01*
X329672Y33810D01*
X330003Y34609D01*
X330395Y35379D01*
X330847Y36116D01*
X331355Y36815D01*
X331916Y37473D01*
X332527Y38084D01*
X333185Y38645D01*
X333884Y39153D01*
X334621Y39605D01*
X335391Y39997D01*
X336190Y40328D01*
X337012Y40595D01*
X337852Y40797D01*
X338706Y40932D01*
X339568Y41000D01*
X340432Y41000D01*
X341294Y40932D01*
X342148Y40797D01*
X342988Y40595D01*
X343810Y40328D01*
X344609Y39997D01*
X345379Y39605D01*
X346116Y39153D01*
X346815Y38645D01*
X347473Y38084D01*
X348084Y37473D01*
X348645Y36815D01*
X349153Y36116D01*
X349605Y35379D01*
X349997Y34609D01*
X350328Y33810D01*
X350595Y32988D01*
X350797Y32148D01*
X350932Y31294D01*
X351000Y30432D01*
X351000Y29568D01*
X171000Y593728D02*
X170932Y592866D01*
X170797Y592012D01*
X170595Y591172D01*
X170328Y590350D01*
X169997Y589551D01*
X169605Y588781D01*
X169153Y588044D01*
X168645Y587345D01*
X168084Y586687D01*
X167473Y586076D01*
X166815Y585515D01*
X166116Y585007D01*
X165379Y584555D01*
X164609Y584163D01*
X163810Y583832D01*
X162988Y583565D01*
X162148Y583363D01*
X161294Y583228D01*
X160432Y583160D01*
X159568Y583160D01*
X158706Y583228D01*
X157852Y583363D01*
X157012Y583565D01*
X156190Y583832D01*
X155391Y584163D01*
X154621Y584555D01*
X153884Y585007D01*
X153185Y585515D01*
X152527Y586076D01*
X151916Y586687D01*
X151355Y587345D01*
X150847Y588044D01*
X150395Y588781D01*
X150003Y589551D01*
X149672Y590350D01*
X149405Y591172D01*
X149203Y592012D01*
X149068Y592866D01*
X149000Y593728D01*
X149000Y594592D01*
X149068Y595454D01*
X149203Y596308D01*
X149405Y597148D01*
X149672Y597970D01*
X150003Y598769D01*
X150395Y599539D01*
X150847Y600276D01*
X151355Y600975D01*
X151916Y601633D01*
X152527Y602244D01*
X153185Y602805D01*
X153884Y603313D01*
X154621Y603765D01*
X155391Y604157D01*
X156190Y604488D01*
X157012Y604755D01*
X157852Y604957D01*
X158706Y605092D01*
X159568Y605160D01*
X160432Y605160D01*
X161294Y605092D01*
X162148Y604957D01*
X162988Y604755D01*
X163810Y604488D01*
X164609Y604157D01*
X165379Y603765D01*
X166116Y603313D01*
X166815Y602805D01*
X167473Y602244D01*
X168084Y601633D01*
X168645Y600975D01*
X169153Y600276D01*
X169605Y599539D01*
X169997Y598769D01*
X170328Y597970D01*
X170595Y597148D01*
X170797Y596308D01*
X170932Y595454D01*
X171000Y594592D01*
X171000Y593728D01*
M02*
