G04 EAGLE Gerber RS-274X export*
G75*
%MOMM*%
%FSLAX34Y34*%
%LPD*%
%INSilkscreen Top*%
%IPPOS*%
%AMOC8*
5,1,8,0,0,1.08239X$1,22.5*%
G01*
%ADD10C,0.101600*%
%ADD11C,0.076200*%
%ADD12C,0.203200*%
%ADD13C,0.127000*%
%ADD14C,0.240000*%
%ADD15C,0.100000*%
%ADD16C,0.152400*%
%ADD17R,0.250000X0.250000*%

G36*
X23861Y405743D02*
X23861Y405743D01*
X23863Y405745D01*
X23864Y405744D01*
X24247Y405903D01*
X24248Y405905D01*
X24250Y405904D01*
X24579Y406156D01*
X24579Y406159D01*
X24581Y406159D01*
X24833Y406487D01*
X24833Y406490D01*
X24835Y406490D01*
X24993Y406873D01*
X24993Y406875D01*
X24994Y406876D01*
X25048Y407287D01*
X25047Y407288D01*
X25047Y407289D01*
X25048Y407290D01*
X24994Y407701D01*
X24992Y407702D01*
X24993Y407704D01*
X24835Y408087D01*
X24833Y408088D01*
X24833Y408090D01*
X24581Y408418D01*
X24579Y408419D01*
X24579Y408420D01*
X24250Y408673D01*
X24248Y408673D01*
X24247Y408674D01*
X23864Y408833D01*
X23862Y408832D01*
X23861Y408834D01*
X23450Y408888D01*
X23449Y408887D01*
X23447Y408888D01*
X23036Y408834D01*
X23035Y408832D01*
X23033Y408833D01*
X22650Y408674D01*
X22650Y408672D01*
X22648Y408673D01*
X22319Y408420D01*
X22319Y408418D01*
X22317Y408418D01*
X22064Y408090D01*
X22065Y408087D01*
X22063Y408087D01*
X21904Y407704D01*
X21905Y407702D01*
X21904Y407701D01*
X21849Y407290D01*
X21851Y407288D01*
X21849Y407287D01*
X21904Y406876D01*
X21905Y406875D01*
X21904Y406873D01*
X22063Y406490D01*
X22065Y406489D01*
X22064Y406487D01*
X22317Y406159D01*
X22319Y406158D01*
X22319Y406156D01*
X22648Y405904D01*
X22650Y405904D01*
X22650Y405903D01*
X23033Y405744D01*
X23035Y405745D01*
X23036Y405743D01*
X23447Y405689D01*
X23449Y405690D01*
X23450Y405689D01*
X23861Y405743D01*
G37*
D10*
X285644Y643968D02*
X285644Y635155D01*
X292254Y635155D01*
X290050Y639562D01*
X290050Y641765D01*
X292254Y643968D01*
X296660Y643968D01*
X298863Y641765D01*
X298863Y637358D01*
X296660Y635155D01*
X312439Y627660D02*
X312439Y618847D01*
X325658Y618847D01*
X325658Y627660D01*
X319049Y623253D02*
X319049Y618847D01*
X325658Y631944D02*
X312439Y631944D01*
X325658Y640757D01*
X312439Y640757D01*
X365753Y634626D02*
X367957Y636829D01*
X365753Y634626D02*
X365753Y630219D01*
X367957Y628016D01*
X376769Y628016D01*
X378973Y630219D01*
X378973Y634626D01*
X376769Y636829D01*
X372363Y636829D01*
X372363Y632423D01*
X391575Y628493D02*
X404794Y628493D01*
X404794Y635102D01*
X402591Y637305D01*
X393778Y637305D01*
X391575Y635102D01*
X391575Y628493D01*
D11*
X227974Y644820D02*
X226745Y646048D01*
X224288Y646048D01*
X223059Y644820D01*
X223059Y639905D01*
X224288Y638676D01*
X226745Y638676D01*
X227974Y639905D01*
X230543Y643591D02*
X233001Y646048D01*
X233001Y638676D01*
X235458Y638676D02*
X230543Y638676D01*
X238027Y646048D02*
X242942Y646048D01*
X238027Y646048D02*
X238027Y642362D01*
X240485Y643591D01*
X241713Y643591D01*
X242942Y642362D01*
X242942Y639905D01*
X241713Y638676D01*
X239256Y638676D01*
X238027Y639905D01*
D12*
X52024Y422695D02*
X52024Y414107D01*
X26624Y414107D02*
X26624Y422695D01*
D11*
X32470Y388536D02*
X32470Y382393D01*
X33698Y381164D01*
X36156Y381164D01*
X37384Y382393D01*
X37384Y388536D01*
X39954Y381164D02*
X44869Y381164D01*
X39954Y381164D02*
X44869Y386079D01*
X44869Y387308D01*
X43640Y388536D01*
X41182Y388536D01*
X39954Y387308D01*
D13*
X108092Y530016D02*
X116535Y539901D01*
X108092Y530016D02*
X85280Y549499D01*
X93723Y559384D01*
X116535Y539901D01*
D11*
X97741Y551980D02*
X93751Y547308D01*
X93888Y545576D01*
X95756Y543980D01*
X97489Y544116D01*
X101478Y548788D01*
X102634Y546185D02*
X104366Y546321D01*
X106235Y544725D01*
X106371Y542993D01*
X105573Y542059D01*
X103841Y541923D01*
X102907Y542720D01*
X103841Y541923D02*
X103977Y540190D01*
X103179Y539256D01*
X101447Y539120D01*
X99579Y540716D01*
X99442Y542448D01*
X72188Y502387D02*
X78540Y498645D01*
X72188Y502387D02*
X74059Y505563D01*
X75741Y505998D01*
X77859Y504751D01*
X78294Y503069D01*
X76423Y499893D01*
X77670Y502010D02*
X81035Y502880D01*
X82339Y505094D02*
X84833Y509329D01*
X82339Y505094D02*
X80598Y511823D01*
X79540Y512447D01*
X77857Y512012D01*
X76610Y509894D01*
X77045Y508212D01*
X53378Y464773D02*
X60043Y461622D01*
X53378Y464773D02*
X54954Y468105D01*
X56589Y468691D01*
X58811Y467641D01*
X59397Y466005D01*
X57822Y462672D01*
X58872Y464894D02*
X62144Y466066D01*
X58798Y470489D02*
X57627Y473761D01*
X64292Y470610D01*
X63242Y468389D02*
X65342Y472832D01*
X61997Y477255D02*
X60825Y480527D01*
X67490Y477376D01*
X66440Y475155D02*
X68541Y479598D01*
D13*
X258000Y605000D02*
X268000Y605000D01*
X268000Y585000D02*
X262000Y585000D01*
X288000Y605000D02*
X298000Y605000D01*
X298000Y585000D02*
X292000Y585000D01*
X318000Y605000D02*
X328000Y605000D01*
X328000Y585000D02*
X322000Y585000D01*
X348000Y605000D02*
X358000Y605000D01*
X358000Y585000D02*
X352000Y585000D01*
X378000Y605000D02*
X388000Y605000D01*
X388000Y585000D02*
X382000Y585000D01*
X408000Y605000D02*
X418000Y605000D01*
X418000Y585000D02*
X412000Y585000D01*
X208000Y575000D02*
X198000Y575000D01*
X202000Y555000D02*
X208000Y555000D01*
X228000Y575000D02*
X238000Y575000D01*
X238000Y555000D02*
X232000Y555000D01*
X258000Y575000D02*
X268000Y575000D01*
X268000Y555000D02*
X262000Y555000D01*
X288000Y575000D02*
X298000Y575000D01*
X298000Y555000D02*
X292000Y555000D01*
X318000Y575000D02*
X328000Y575000D01*
X328000Y555000D02*
X322000Y555000D01*
X348000Y575000D02*
X358000Y575000D01*
X358000Y555000D02*
X352000Y555000D01*
X378000Y575000D02*
X388000Y575000D01*
X388000Y555000D02*
X382000Y555000D01*
X408000Y575000D02*
X418000Y575000D01*
X418000Y555000D02*
X412000Y555000D01*
X438000Y575000D02*
X448000Y575000D01*
X448000Y555000D02*
X442000Y555000D01*
X468000Y575000D02*
X478000Y575000D01*
X478000Y555000D02*
X472000Y555000D01*
X178000Y545000D02*
X168000Y545000D01*
X172000Y525000D02*
X178000Y525000D01*
X198000Y545000D02*
X208000Y545000D01*
X208000Y525000D02*
X202000Y525000D01*
X228000Y545000D02*
X238000Y545000D01*
X238000Y525000D02*
X232000Y525000D01*
X258000Y545000D02*
X268000Y545000D01*
X268000Y525000D02*
X262000Y525000D01*
X288000Y545000D02*
X298000Y545000D01*
X298000Y525000D02*
X292000Y525000D01*
X318000Y545000D02*
X328000Y545000D01*
X328000Y525000D02*
X322000Y525000D01*
X348000Y545000D02*
X358000Y545000D01*
X358000Y525000D02*
X352000Y525000D01*
X378000Y545000D02*
X388000Y545000D01*
X388000Y525000D02*
X382000Y525000D01*
X408000Y545000D02*
X418000Y545000D01*
X418000Y525000D02*
X412000Y525000D01*
X438000Y545000D02*
X448000Y545000D01*
X448000Y525000D02*
X442000Y525000D01*
X468000Y545000D02*
X478000Y545000D01*
X478000Y525000D02*
X472000Y525000D01*
X498000Y545000D02*
X508000Y545000D01*
X508000Y525000D02*
X502000Y525000D01*
X148000Y515000D02*
X138000Y515000D01*
X142000Y495000D02*
X148000Y495000D01*
X168000Y515000D02*
X178000Y515000D01*
X178000Y495000D02*
X172000Y495000D01*
X198000Y515000D02*
X208000Y515000D01*
X208000Y495000D02*
X202000Y495000D01*
X228000Y515000D02*
X238000Y515000D01*
X238000Y495000D02*
X232000Y495000D01*
X258000Y515000D02*
X268000Y515000D01*
X268000Y495000D02*
X262000Y495000D01*
X288000Y515000D02*
X298000Y515000D01*
X298000Y495000D02*
X292000Y495000D01*
X318000Y515000D02*
X328000Y515000D01*
X328000Y495000D02*
X322000Y495000D01*
X348000Y515000D02*
X358000Y515000D01*
X358000Y495000D02*
X352000Y495000D01*
X378000Y515000D02*
X388000Y515000D01*
X388000Y495000D02*
X382000Y495000D01*
X408000Y515000D02*
X418000Y515000D01*
X418000Y495000D02*
X412000Y495000D01*
X438000Y515000D02*
X448000Y515000D01*
X448000Y495000D02*
X442000Y495000D01*
X468000Y515000D02*
X478000Y515000D01*
X478000Y495000D02*
X472000Y495000D01*
X498000Y515000D02*
X508000Y515000D01*
X508000Y495000D02*
X502000Y495000D01*
X528000Y515000D02*
X538000Y515000D01*
X538000Y495000D02*
X532000Y495000D01*
X118000Y485000D02*
X108000Y485000D01*
X112000Y465000D02*
X118000Y465000D01*
X138000Y485000D02*
X148000Y485000D01*
X148000Y465000D02*
X142000Y465000D01*
X168000Y485000D02*
X178000Y485000D01*
X178000Y465000D02*
X172000Y465000D01*
X198000Y485000D02*
X208000Y485000D01*
X208000Y465000D02*
X202000Y465000D01*
X228000Y485000D02*
X238000Y485000D01*
X238000Y465000D02*
X232000Y465000D01*
X258000Y485000D02*
X268000Y485000D01*
X268000Y465000D02*
X262000Y465000D01*
X288000Y485000D02*
X298000Y485000D01*
X298000Y465000D02*
X292000Y465000D01*
X318000Y485000D02*
X328000Y485000D01*
X328000Y465000D02*
X322000Y465000D01*
X348000Y485000D02*
X358000Y485000D01*
X358000Y465000D02*
X352000Y465000D01*
X378000Y485000D02*
X388000Y485000D01*
X388000Y465000D02*
X382000Y465000D01*
X408000Y485000D02*
X418000Y485000D01*
X418000Y465000D02*
X412000Y465000D01*
X438000Y485000D02*
X448000Y485000D01*
X448000Y465000D02*
X442000Y465000D01*
X468000Y485000D02*
X478000Y485000D01*
X478000Y465000D02*
X472000Y465000D01*
X498000Y485000D02*
X508000Y485000D01*
X508000Y465000D02*
X502000Y465000D01*
X528000Y485000D02*
X538000Y485000D01*
X538000Y465000D02*
X532000Y465000D01*
X558000Y485000D02*
X568000Y485000D01*
X568000Y465000D02*
X562000Y465000D01*
X118000Y455000D02*
X108000Y455000D01*
X112000Y435000D02*
X118000Y435000D01*
X138000Y455000D02*
X148000Y455000D01*
X148000Y435000D02*
X142000Y435000D01*
X168000Y455000D02*
X178000Y455000D01*
X178000Y435000D02*
X172000Y435000D01*
X198000Y455000D02*
X208000Y455000D01*
X208000Y435000D02*
X202000Y435000D01*
X228000Y455000D02*
X238000Y455000D01*
X238000Y435000D02*
X232000Y435000D01*
X258000Y455000D02*
X268000Y455000D01*
X268000Y435000D02*
X262000Y435000D01*
X288000Y455000D02*
X298000Y455000D01*
X298000Y435000D02*
X292000Y435000D01*
X318000Y455000D02*
X328000Y455000D01*
X328000Y435000D02*
X322000Y435000D01*
X348000Y455000D02*
X358000Y455000D01*
X358000Y435000D02*
X352000Y435000D01*
X378000Y455000D02*
X388000Y455000D01*
X388000Y435000D02*
X382000Y435000D01*
X408000Y455000D02*
X418000Y455000D01*
X418000Y435000D02*
X412000Y435000D01*
X438000Y455000D02*
X448000Y455000D01*
X448000Y435000D02*
X442000Y435000D01*
X468000Y455000D02*
X478000Y455000D01*
X478000Y435000D02*
X472000Y435000D01*
X498000Y455000D02*
X508000Y455000D01*
X508000Y435000D02*
X502000Y435000D01*
X528000Y455000D02*
X538000Y455000D01*
X538000Y435000D02*
X532000Y435000D01*
X558000Y455000D02*
X568000Y455000D01*
X568000Y435000D02*
X562000Y435000D01*
X88000Y425000D02*
X78000Y425000D01*
X82000Y405000D02*
X88000Y405000D01*
X108000Y425000D02*
X118000Y425000D01*
X118000Y405000D02*
X112000Y405000D01*
X138000Y425000D02*
X148000Y425000D01*
X148000Y405000D02*
X142000Y405000D01*
X168000Y425000D02*
X178000Y425000D01*
X178000Y405000D02*
X172000Y405000D01*
X198000Y425000D02*
X208000Y425000D01*
X208000Y405000D02*
X202000Y405000D01*
X228000Y425000D02*
X238000Y425000D01*
X238000Y405000D02*
X232000Y405000D01*
X258000Y425000D02*
X268000Y425000D01*
X268000Y405000D02*
X262000Y405000D01*
X288000Y425000D02*
X298000Y425000D01*
X298000Y405000D02*
X292000Y405000D01*
X318000Y425000D02*
X328000Y425000D01*
X328000Y405000D02*
X322000Y405000D01*
X348000Y425000D02*
X358000Y425000D01*
X358000Y405000D02*
X352000Y405000D01*
X378000Y425000D02*
X388000Y425000D01*
X388000Y405000D02*
X382000Y405000D01*
X408000Y425000D02*
X418000Y425000D01*
X418000Y405000D02*
X412000Y405000D01*
X438000Y425000D02*
X448000Y425000D01*
X448000Y405000D02*
X442000Y405000D01*
X468000Y425000D02*
X478000Y425000D01*
X478000Y405000D02*
X472000Y405000D01*
X498000Y425000D02*
X508000Y425000D01*
X508000Y405000D02*
X502000Y405000D01*
X528000Y425000D02*
X538000Y425000D01*
X538000Y405000D02*
X532000Y405000D01*
X558000Y425000D02*
X568000Y425000D01*
X568000Y405000D02*
X562000Y405000D01*
X588000Y425000D02*
X598000Y425000D01*
X598000Y405000D02*
X592000Y405000D01*
X88000Y395000D02*
X78000Y395000D01*
X82000Y375000D02*
X88000Y375000D01*
X108000Y395000D02*
X118000Y395000D01*
X118000Y375000D02*
X112000Y375000D01*
X138000Y395000D02*
X148000Y395000D01*
X148000Y375000D02*
X142000Y375000D01*
X168000Y395000D02*
X178000Y395000D01*
X178000Y375000D02*
X172000Y375000D01*
X198000Y395000D02*
X208000Y395000D01*
X208000Y375000D02*
X202000Y375000D01*
X228000Y395000D02*
X238000Y395000D01*
X238000Y375000D02*
X232000Y375000D01*
X258000Y395000D02*
X268000Y395000D01*
X268000Y375000D02*
X262000Y375000D01*
X288000Y395000D02*
X298000Y395000D01*
X298000Y375000D02*
X292000Y375000D01*
X318000Y395000D02*
X328000Y395000D01*
X328000Y375000D02*
X322000Y375000D01*
X348000Y395000D02*
X358000Y395000D01*
X358000Y375000D02*
X352000Y375000D01*
X378000Y395000D02*
X388000Y395000D01*
X388000Y375000D02*
X382000Y375000D01*
X408000Y395000D02*
X418000Y395000D01*
X418000Y375000D02*
X412000Y375000D01*
X438000Y395000D02*
X448000Y395000D01*
X448000Y375000D02*
X442000Y375000D01*
X468000Y395000D02*
X478000Y395000D01*
X478000Y375000D02*
X472000Y375000D01*
X498000Y395000D02*
X508000Y395000D01*
X508000Y375000D02*
X502000Y375000D01*
X528000Y395000D02*
X538000Y395000D01*
X538000Y375000D02*
X532000Y375000D01*
X558000Y395000D02*
X568000Y395000D01*
X568000Y375000D02*
X562000Y375000D01*
X588000Y395000D02*
X598000Y395000D01*
X598000Y375000D02*
X592000Y375000D01*
X88000Y365000D02*
X78000Y365000D01*
X82000Y345000D02*
X88000Y345000D01*
X108000Y365000D02*
X118000Y365000D01*
X118000Y345000D02*
X112000Y345000D01*
X138000Y365000D02*
X148000Y365000D01*
X148000Y345000D02*
X142000Y345000D01*
X168000Y365000D02*
X178000Y365000D01*
X178000Y345000D02*
X172000Y345000D01*
X198000Y365000D02*
X208000Y365000D01*
X208000Y345000D02*
X202000Y345000D01*
X228000Y365000D02*
X238000Y365000D01*
X238000Y345000D02*
X232000Y345000D01*
X258000Y365000D02*
X268000Y365000D01*
X268000Y345000D02*
X262000Y345000D01*
X288000Y365000D02*
X298000Y365000D01*
X298000Y345000D02*
X292000Y345000D01*
X318000Y365000D02*
X328000Y365000D01*
X328000Y345000D02*
X322000Y345000D01*
X348000Y365000D02*
X358000Y365000D01*
X358000Y345000D02*
X352000Y345000D01*
X378000Y365000D02*
X388000Y365000D01*
X388000Y345000D02*
X382000Y345000D01*
X408000Y365000D02*
X418000Y365000D01*
X418000Y345000D02*
X412000Y345000D01*
X438000Y365000D02*
X448000Y365000D01*
X448000Y345000D02*
X442000Y345000D01*
X468000Y365000D02*
X478000Y365000D01*
X478000Y345000D02*
X472000Y345000D01*
X498000Y365000D02*
X508000Y365000D01*
X508000Y345000D02*
X502000Y345000D01*
X528000Y365000D02*
X538000Y365000D01*
X538000Y345000D02*
X532000Y345000D01*
X558000Y365000D02*
X568000Y365000D01*
X568000Y345000D02*
X562000Y345000D01*
X588000Y365000D02*
X598000Y365000D01*
X598000Y345000D02*
X592000Y345000D01*
X88000Y335000D02*
X78000Y335000D01*
X82000Y315000D02*
X88000Y315000D01*
X108000Y335000D02*
X118000Y335000D01*
X118000Y315000D02*
X112000Y315000D01*
X138000Y335000D02*
X148000Y335000D01*
X148000Y315000D02*
X142000Y315000D01*
X168000Y335000D02*
X178000Y335000D01*
X178000Y315000D02*
X172000Y315000D01*
X198000Y335000D02*
X208000Y335000D01*
X208000Y315000D02*
X202000Y315000D01*
X228000Y335000D02*
X238000Y335000D01*
X238000Y315000D02*
X232000Y315000D01*
X258000Y335000D02*
X268000Y335000D01*
X268000Y315000D02*
X262000Y315000D01*
X288000Y335000D02*
X298000Y335000D01*
X298000Y315000D02*
X292000Y315000D01*
X318000Y335000D02*
X328000Y335000D01*
X328000Y315000D02*
X322000Y315000D01*
X348000Y335000D02*
X358000Y335000D01*
X358000Y315000D02*
X352000Y315000D01*
X378000Y335000D02*
X388000Y335000D01*
X388000Y315000D02*
X382000Y315000D01*
X408000Y335000D02*
X418000Y335000D01*
X418000Y315000D02*
X412000Y315000D01*
X438000Y335000D02*
X448000Y335000D01*
X448000Y315000D02*
X442000Y315000D01*
X468000Y335000D02*
X478000Y335000D01*
X478000Y315000D02*
X472000Y315000D01*
X498000Y335000D02*
X508000Y335000D01*
X508000Y315000D02*
X502000Y315000D01*
X528000Y335000D02*
X538000Y335000D01*
X538000Y315000D02*
X532000Y315000D01*
X558000Y335000D02*
X568000Y335000D01*
X568000Y315000D02*
X562000Y315000D01*
X588000Y335000D02*
X598000Y335000D01*
X598000Y315000D02*
X592000Y315000D01*
X88000Y305000D02*
X78000Y305000D01*
X82000Y285000D02*
X88000Y285000D01*
X108000Y305000D02*
X118000Y305000D01*
X118000Y285000D02*
X112000Y285000D01*
X138000Y305000D02*
X148000Y305000D01*
X148000Y285000D02*
X142000Y285000D01*
X168000Y305000D02*
X178000Y305000D01*
X178000Y285000D02*
X172000Y285000D01*
X198000Y305000D02*
X208000Y305000D01*
X208000Y285000D02*
X202000Y285000D01*
X228000Y305000D02*
X238000Y305000D01*
X238000Y285000D02*
X232000Y285000D01*
X258000Y305000D02*
X268000Y305000D01*
X268000Y285000D02*
X262000Y285000D01*
X288000Y305000D02*
X298000Y305000D01*
X298000Y285000D02*
X292000Y285000D01*
X318000Y305000D02*
X328000Y305000D01*
X328000Y285000D02*
X322000Y285000D01*
X348000Y305000D02*
X358000Y305000D01*
X358000Y285000D02*
X352000Y285000D01*
X378000Y305000D02*
X388000Y305000D01*
X388000Y285000D02*
X382000Y285000D01*
X408000Y305000D02*
X418000Y305000D01*
X418000Y285000D02*
X412000Y285000D01*
X438000Y305000D02*
X448000Y305000D01*
X448000Y285000D02*
X442000Y285000D01*
X468000Y305000D02*
X478000Y305000D01*
X478000Y285000D02*
X472000Y285000D01*
X498000Y305000D02*
X508000Y305000D01*
X508000Y285000D02*
X502000Y285000D01*
X528000Y305000D02*
X538000Y305000D01*
X538000Y285000D02*
X532000Y285000D01*
X558000Y305000D02*
X568000Y305000D01*
X568000Y285000D02*
X562000Y285000D01*
X588000Y305000D02*
X598000Y305000D01*
X598000Y285000D02*
X592000Y285000D01*
X88000Y275000D02*
X78000Y275000D01*
X82000Y255000D02*
X88000Y255000D01*
X108000Y275000D02*
X118000Y275000D01*
X118000Y255000D02*
X112000Y255000D01*
X138000Y275000D02*
X148000Y275000D01*
X148000Y255000D02*
X142000Y255000D01*
X168000Y275000D02*
X178000Y275000D01*
X178000Y255000D02*
X172000Y255000D01*
X198000Y275000D02*
X208000Y275000D01*
X208000Y255000D02*
X202000Y255000D01*
X228000Y275000D02*
X238000Y275000D01*
X238000Y255000D02*
X232000Y255000D01*
X258000Y275000D02*
X268000Y275000D01*
X268000Y255000D02*
X262000Y255000D01*
X288000Y275000D02*
X298000Y275000D01*
X298000Y255000D02*
X292000Y255000D01*
X318000Y275000D02*
X328000Y275000D01*
X328000Y255000D02*
X322000Y255000D01*
X348000Y275000D02*
X358000Y275000D01*
X358000Y255000D02*
X352000Y255000D01*
X378000Y275000D02*
X388000Y275000D01*
X388000Y255000D02*
X382000Y255000D01*
X408000Y275000D02*
X418000Y275000D01*
X418000Y255000D02*
X412000Y255000D01*
X438000Y275000D02*
X448000Y275000D01*
X448000Y255000D02*
X442000Y255000D01*
X468000Y275000D02*
X478000Y275000D01*
X478000Y255000D02*
X472000Y255000D01*
X498000Y275000D02*
X508000Y275000D01*
X508000Y255000D02*
X502000Y255000D01*
X528000Y275000D02*
X538000Y275000D01*
X538000Y255000D02*
X532000Y255000D01*
X558000Y275000D02*
X568000Y275000D01*
X568000Y255000D02*
X562000Y255000D01*
X588000Y275000D02*
X598000Y275000D01*
X598000Y255000D02*
X592000Y255000D01*
X118000Y245000D02*
X108000Y245000D01*
X112000Y225000D02*
X118000Y225000D01*
X138000Y245000D02*
X148000Y245000D01*
X148000Y225000D02*
X142000Y225000D01*
X168000Y245000D02*
X178000Y245000D01*
X178000Y225000D02*
X172000Y225000D01*
X198000Y245000D02*
X208000Y245000D01*
X208000Y225000D02*
X202000Y225000D01*
X228000Y245000D02*
X238000Y245000D01*
X238000Y225000D02*
X232000Y225000D01*
X258000Y245000D02*
X268000Y245000D01*
X268000Y225000D02*
X262000Y225000D01*
X288000Y245000D02*
X298000Y245000D01*
X298000Y225000D02*
X292000Y225000D01*
X318000Y245000D02*
X328000Y245000D01*
X328000Y225000D02*
X322000Y225000D01*
X348000Y245000D02*
X358000Y245000D01*
X358000Y225000D02*
X352000Y225000D01*
X378000Y245000D02*
X388000Y245000D01*
X388000Y225000D02*
X382000Y225000D01*
X408000Y245000D02*
X418000Y245000D01*
X418000Y225000D02*
X412000Y225000D01*
X438000Y245000D02*
X448000Y245000D01*
X448000Y225000D02*
X442000Y225000D01*
X468000Y245000D02*
X478000Y245000D01*
X478000Y225000D02*
X472000Y225000D01*
X498000Y245000D02*
X508000Y245000D01*
X508000Y225000D02*
X502000Y225000D01*
X528000Y245000D02*
X538000Y245000D01*
X538000Y225000D02*
X532000Y225000D01*
X558000Y245000D02*
X568000Y245000D01*
X568000Y225000D02*
X562000Y225000D01*
X118000Y215000D02*
X108000Y215000D01*
X112000Y195000D02*
X118000Y195000D01*
X138000Y215000D02*
X148000Y215000D01*
X148000Y195000D02*
X142000Y195000D01*
X168000Y215000D02*
X178000Y215000D01*
X178000Y195000D02*
X172000Y195000D01*
X198000Y215000D02*
X208000Y215000D01*
X208000Y195000D02*
X202000Y195000D01*
X228000Y215000D02*
X238000Y215000D01*
X238000Y195000D02*
X232000Y195000D01*
X258000Y215000D02*
X268000Y215000D01*
X268000Y195000D02*
X262000Y195000D01*
X288000Y215000D02*
X298000Y215000D01*
X298000Y195000D02*
X292000Y195000D01*
X318000Y215000D02*
X328000Y215000D01*
X328000Y195000D02*
X322000Y195000D01*
X348000Y215000D02*
X358000Y215000D01*
X358000Y195000D02*
X352000Y195000D01*
X378000Y215000D02*
X388000Y215000D01*
X388000Y195000D02*
X382000Y195000D01*
X408000Y215000D02*
X418000Y215000D01*
X418000Y195000D02*
X412000Y195000D01*
X438000Y215000D02*
X448000Y215000D01*
X448000Y195000D02*
X442000Y195000D01*
X468000Y215000D02*
X478000Y215000D01*
X478000Y195000D02*
X472000Y195000D01*
X498000Y215000D02*
X508000Y215000D01*
X508000Y195000D02*
X502000Y195000D01*
X528000Y215000D02*
X538000Y215000D01*
X538000Y195000D02*
X532000Y195000D01*
X558000Y215000D02*
X568000Y215000D01*
X568000Y195000D02*
X562000Y195000D01*
X148000Y185000D02*
X138000Y185000D01*
X142000Y165000D02*
X148000Y165000D01*
X168000Y185000D02*
X178000Y185000D01*
X178000Y165000D02*
X172000Y165000D01*
X198000Y185000D02*
X208000Y185000D01*
X208000Y165000D02*
X202000Y165000D01*
X228000Y185000D02*
X238000Y185000D01*
X238000Y165000D02*
X232000Y165000D01*
X258000Y185000D02*
X268000Y185000D01*
X268000Y165000D02*
X262000Y165000D01*
X288000Y185000D02*
X298000Y185000D01*
X298000Y165000D02*
X292000Y165000D01*
X318000Y185000D02*
X328000Y185000D01*
X328000Y165000D02*
X322000Y165000D01*
X348000Y185000D02*
X358000Y185000D01*
X358000Y165000D02*
X352000Y165000D01*
X378000Y185000D02*
X388000Y185000D01*
X388000Y165000D02*
X382000Y165000D01*
X408000Y185000D02*
X418000Y185000D01*
X418000Y165000D02*
X412000Y165000D01*
X438000Y185000D02*
X448000Y185000D01*
X448000Y165000D02*
X442000Y165000D01*
X468000Y185000D02*
X478000Y185000D01*
X478000Y165000D02*
X472000Y165000D01*
X498000Y185000D02*
X508000Y185000D01*
X508000Y165000D02*
X502000Y165000D01*
X528000Y185000D02*
X538000Y185000D01*
X538000Y165000D02*
X532000Y165000D01*
X178000Y155000D02*
X168000Y155000D01*
X172000Y135000D02*
X178000Y135000D01*
X198000Y155000D02*
X208000Y155000D01*
X208000Y135000D02*
X202000Y135000D01*
X228000Y155000D02*
X238000Y155000D01*
X238000Y135000D02*
X232000Y135000D01*
X258000Y155000D02*
X268000Y155000D01*
X268000Y135000D02*
X262000Y135000D01*
X288000Y155000D02*
X298000Y155000D01*
X298000Y135000D02*
X292000Y135000D01*
X318000Y155000D02*
X328000Y155000D01*
X328000Y135000D02*
X322000Y135000D01*
X348000Y155000D02*
X358000Y155000D01*
X358000Y135000D02*
X352000Y135000D01*
X378000Y155000D02*
X388000Y155000D01*
X388000Y135000D02*
X382000Y135000D01*
X408000Y155000D02*
X418000Y155000D01*
X418000Y135000D02*
X412000Y135000D01*
X438000Y155000D02*
X448000Y155000D01*
X448000Y135000D02*
X442000Y135000D01*
X468000Y155000D02*
X478000Y155000D01*
X478000Y135000D02*
X472000Y135000D01*
X498000Y155000D02*
X508000Y155000D01*
X508000Y135000D02*
X502000Y135000D01*
X208000Y125000D02*
X198000Y125000D01*
X202000Y105000D02*
X208000Y105000D01*
X228000Y125000D02*
X238000Y125000D01*
X238000Y105000D02*
X232000Y105000D01*
X258000Y125000D02*
X268000Y125000D01*
X268000Y105000D02*
X262000Y105000D01*
X288000Y125000D02*
X298000Y125000D01*
X298000Y105000D02*
X292000Y105000D01*
X318000Y125000D02*
X328000Y125000D01*
X328000Y105000D02*
X322000Y105000D01*
X348000Y125000D02*
X358000Y125000D01*
X358000Y105000D02*
X352000Y105000D01*
X378000Y125000D02*
X388000Y125000D01*
X388000Y105000D02*
X382000Y105000D01*
X408000Y125000D02*
X418000Y125000D01*
X418000Y105000D02*
X412000Y105000D01*
X438000Y125000D02*
X448000Y125000D01*
X448000Y105000D02*
X442000Y105000D01*
X468000Y125000D02*
X478000Y125000D01*
X478000Y105000D02*
X472000Y105000D01*
X268000Y95000D02*
X258000Y95000D01*
X262000Y75000D02*
X268000Y75000D01*
X288000Y95000D02*
X298000Y95000D01*
X298000Y75000D02*
X292000Y75000D01*
X318000Y95000D02*
X328000Y95000D01*
X328000Y75000D02*
X322000Y75000D01*
X348000Y95000D02*
X358000Y95000D01*
X358000Y75000D02*
X352000Y75000D01*
X378000Y95000D02*
X388000Y95000D01*
X388000Y75000D02*
X382000Y75000D01*
X408000Y95000D02*
X418000Y95000D01*
X418000Y75000D02*
X412000Y75000D01*
D14*
X232769Y637764D03*
D15*
X237269Y636364D02*
X257269Y636364D01*
X257269Y616364D02*
X237269Y616364D01*
D10*
X239150Y613101D02*
X239150Y607169D01*
X240336Y605983D01*
X242709Y605983D01*
X243895Y607169D01*
X243895Y613101D01*
X246634Y610728D02*
X249007Y613101D01*
X249007Y605983D01*
X251379Y605983D02*
X246634Y605983D01*
D16*
X193566Y634365D02*
X193566Y640975D01*
X196871Y640975D01*
X197972Y639873D01*
X197972Y637670D01*
X196871Y636568D01*
X193566Y636568D01*
X195769Y636568D02*
X197972Y634365D01*
X201050Y638771D02*
X203253Y640975D01*
X203253Y634365D01*
X201050Y634365D02*
X205456Y634365D01*
D17*
X203180Y606933D03*
D10*
X179451Y601101D02*
X179451Y589407D01*
X179451Y601101D02*
X187247Y601101D01*
X183349Y595254D02*
X179451Y595254D01*
X191145Y597203D02*
X191145Y589407D01*
X191145Y597203D02*
X195043Y601101D01*
X198941Y597203D01*
X198941Y589407D01*
X198941Y595254D02*
X191145Y595254D01*
X202839Y591356D02*
X202839Y601101D01*
X202839Y591356D02*
X204788Y589407D01*
X208686Y589407D01*
X210635Y591356D01*
X210635Y601101D01*
X214533Y601101D02*
X214533Y589407D01*
X222329Y589407D01*
X230125Y589407D02*
X230125Y601101D01*
X226227Y601101D02*
X234023Y601101D01*
M02*
