G04 EAGLE Gerber RS-274X export*
G75*
%MOMM*%
%FSLAX34Y34*%
%LPD*%
%INSoldermask Top*%
%IPPOS*%
%AMOC8*
5,1,8,0,0,1.08239X$1,22.5*%
G01*
%ADD10C,2.301600*%
%ADD11R,0.651600X1.301600*%
%ADD12R,0.651600X0.651600*%
%ADD13C,1.778000*%
%ADD14R,1.101600X0.701600*%
%ADD15R,0.701600X0.701600*%
%ADD16R,1.201600X1.101600*%
%ADD17R,0.801600X0.801600*%
%ADD18R,0.771600X0.501600*%
%ADD19R,1.051600X1.801600*%
%ADD20R,0.701600X0.701600*%
%ADD21R,0.901600X0.901600*%


D10*
X520000Y594160D03*
X340000Y30000D03*
X160000Y594160D03*
D11*
X48824Y431402D03*
X39324Y431402D03*
X29824Y431402D03*
X29824Y405400D03*
X48824Y405400D03*
X39324Y405400D03*
D12*
X250545Y648841D03*
X241145Y648841D03*
D13*
X289200Y655400D03*
X314600Y655400D03*
X340000Y655400D03*
X365400Y655400D03*
X390800Y655400D03*
D14*
G36*
X111520Y554057D02*
X119896Y546904D01*
X115340Y541569D01*
X106964Y548722D01*
X111520Y554057D01*
G37*
D15*
G36*
X100114Y563799D02*
X105448Y559243D01*
X100892Y553909D01*
X95558Y558465D01*
X100114Y563799D01*
G37*
G36*
X86476Y547831D02*
X91810Y543275D01*
X87254Y537941D01*
X81920Y542497D01*
X86476Y547831D01*
G37*
G36*
X100923Y535491D02*
X106257Y530935D01*
X101701Y525601D01*
X96367Y530157D01*
X100923Y535491D01*
G37*
D16*
G36*
X69921Y508583D02*
X63822Y498230D01*
X54331Y503821D01*
X60430Y514174D01*
X69921Y508583D01*
G37*
G36*
X78549Y523230D02*
X72450Y512877D01*
X62959Y518468D01*
X69058Y528821D01*
X78549Y523230D01*
G37*
G36*
X42883Y479266D02*
X48018Y490128D01*
X57977Y485420D01*
X52842Y474558D01*
X42883Y479266D01*
G37*
G36*
X35618Y463896D02*
X40753Y474758D01*
X50712Y470050D01*
X45577Y459188D01*
X35618Y463896D01*
G37*
D17*
X274150Y589500D03*
X274150Y600500D03*
X255850Y600500D03*
X255850Y589500D03*
X304150Y589500D03*
X304150Y600500D03*
X285850Y600500D03*
X285850Y589500D03*
D12*
X283700Y610000D03*
X274300Y610000D03*
D17*
X334150Y589500D03*
X334150Y600500D03*
X315850Y600500D03*
X315850Y589500D03*
X364150Y589500D03*
X364150Y600500D03*
X345850Y600500D03*
X345850Y589500D03*
X394150Y589500D03*
X394150Y600500D03*
X375850Y600500D03*
X375850Y589500D03*
X424150Y589500D03*
X424150Y600500D03*
X405850Y600500D03*
X405850Y589500D03*
D12*
X313700Y610000D03*
X304300Y610000D03*
X343700Y610000D03*
X334300Y610000D03*
X373700Y610000D03*
X364300Y610000D03*
X403700Y610000D03*
X394300Y610000D03*
X433700Y610000D03*
X424300Y610000D03*
D17*
X214150Y559500D03*
X214150Y570500D03*
X195850Y570500D03*
X195850Y559500D03*
X244150Y559500D03*
X244150Y570500D03*
X225850Y570500D03*
X225850Y559500D03*
X274150Y559500D03*
X274150Y570500D03*
X255850Y570500D03*
X255850Y559500D03*
X304150Y559500D03*
X304150Y570500D03*
X285850Y570500D03*
X285850Y559500D03*
X334150Y559500D03*
X334150Y570500D03*
X315850Y570500D03*
X315850Y559500D03*
X364150Y559500D03*
X364150Y570500D03*
X345850Y570500D03*
X345850Y559500D03*
X394150Y559500D03*
X394150Y570500D03*
X375850Y570500D03*
X375850Y559500D03*
X424150Y559500D03*
X424150Y570500D03*
X405850Y570500D03*
X405850Y559500D03*
X454150Y559500D03*
X454150Y570500D03*
X435850Y570500D03*
X435850Y559500D03*
X484150Y559500D03*
X484150Y570500D03*
X465850Y570500D03*
X465850Y559500D03*
D12*
X223748Y580000D03*
X214348Y580000D03*
X253437Y580000D03*
X244037Y580000D03*
X283530Y580000D03*
X274130Y580000D03*
X313503Y580000D03*
X304103Y580000D03*
X343494Y580000D03*
X334094Y580000D03*
X373519Y580000D03*
X364119Y580000D03*
X403592Y580000D03*
X394192Y580000D03*
X433523Y580000D03*
X424123Y580000D03*
X463498Y580000D03*
X454098Y580000D03*
X493406Y580000D03*
X484006Y580000D03*
D17*
X184150Y529500D03*
X184150Y540500D03*
X165850Y540500D03*
X165850Y529500D03*
X214150Y529500D03*
X214150Y540500D03*
X195850Y540500D03*
X195850Y529500D03*
X244150Y529500D03*
X244150Y540500D03*
X225850Y540500D03*
X225850Y529500D03*
X274150Y529500D03*
X274150Y540500D03*
X255850Y540500D03*
X255850Y529500D03*
X304150Y529500D03*
X304150Y540500D03*
X285850Y540500D03*
X285850Y529500D03*
X334150Y529500D03*
X334150Y540500D03*
X315850Y540500D03*
X315850Y529500D03*
X364150Y529500D03*
X364150Y540500D03*
X345850Y540500D03*
X345850Y529500D03*
X394150Y529500D03*
X394150Y540500D03*
X375850Y540500D03*
X375850Y529500D03*
X424150Y529500D03*
X424150Y540500D03*
X405850Y540500D03*
X405850Y529500D03*
X454150Y529500D03*
X454150Y540500D03*
X435850Y540500D03*
X435850Y529500D03*
X484150Y529500D03*
X484150Y540500D03*
X465850Y540500D03*
X465850Y529500D03*
X514150Y529500D03*
X514150Y540500D03*
X495850Y540500D03*
X495850Y529500D03*
D12*
X193574Y550000D03*
X184174Y550000D03*
X223507Y550000D03*
X214107Y550000D03*
X253482Y550000D03*
X244082Y550000D03*
X283501Y550000D03*
X274101Y550000D03*
X313571Y550000D03*
X304171Y550000D03*
X343513Y550000D03*
X334113Y550000D03*
X373610Y550000D03*
X364210Y550000D03*
X403602Y550000D03*
X394202Y550000D03*
X433621Y550000D03*
X424221Y550000D03*
X463614Y550000D03*
X454214Y550000D03*
X493592Y550000D03*
X484192Y550000D03*
X523597Y550000D03*
X514197Y550000D03*
D17*
X154150Y499500D03*
X154150Y510500D03*
X135850Y510500D03*
X135850Y499500D03*
X184150Y499500D03*
X184150Y510500D03*
X165850Y510500D03*
X165850Y499500D03*
X214150Y499500D03*
X214150Y510500D03*
X195850Y510500D03*
X195850Y499500D03*
X244150Y499500D03*
X244150Y510500D03*
X225850Y510500D03*
X225850Y499500D03*
X274150Y499500D03*
X274150Y510500D03*
X255850Y510500D03*
X255850Y499500D03*
X304150Y499500D03*
X304150Y510500D03*
X285850Y510500D03*
X285850Y499500D03*
X334150Y499500D03*
X334150Y510500D03*
X315850Y510500D03*
X315850Y499500D03*
X364150Y499500D03*
X364150Y510500D03*
X345850Y510500D03*
X345850Y499500D03*
X394150Y499500D03*
X394150Y510500D03*
X375850Y510500D03*
X375850Y499500D03*
X424150Y499500D03*
X424150Y510500D03*
X405850Y510500D03*
X405850Y499500D03*
X454150Y499500D03*
X454150Y510500D03*
X435850Y510500D03*
X435850Y499500D03*
X484150Y499500D03*
X484150Y510500D03*
X465850Y510500D03*
X465850Y499500D03*
X514150Y499500D03*
X514150Y510500D03*
X495850Y510500D03*
X495850Y499500D03*
X544150Y499500D03*
X544150Y510500D03*
X525850Y510500D03*
X525850Y499500D03*
D12*
X163678Y520000D03*
X154278Y520000D03*
X193606Y520000D03*
X184206Y520000D03*
X223657Y520000D03*
X214257Y520000D03*
X253472Y520000D03*
X244072Y520000D03*
X283601Y520000D03*
X274201Y520000D03*
X313572Y520000D03*
X304172Y520000D03*
X343623Y520000D03*
X334223Y520000D03*
X373533Y520000D03*
X364133Y520000D03*
X403457Y520000D03*
X394057Y520000D03*
X433649Y520000D03*
X424249Y520000D03*
X463590Y520000D03*
X454190Y520000D03*
X493421Y520000D03*
X484021Y520000D03*
X523565Y520000D03*
X514165Y520000D03*
X553506Y520000D03*
X544106Y520000D03*
D17*
X124150Y469500D03*
X124150Y480500D03*
X105850Y480500D03*
X105850Y469500D03*
X154150Y469500D03*
X154150Y480500D03*
X135850Y480500D03*
X135850Y469500D03*
X184150Y469500D03*
X184150Y480500D03*
X165850Y480500D03*
X165850Y469500D03*
X214150Y469500D03*
X214150Y480500D03*
X195850Y480500D03*
X195850Y469500D03*
X244150Y469500D03*
X244150Y480500D03*
X225850Y480500D03*
X225850Y469500D03*
X274150Y469500D03*
X274150Y480500D03*
X255850Y480500D03*
X255850Y469500D03*
X304150Y469500D03*
X304150Y480500D03*
X285850Y480500D03*
X285850Y469500D03*
X334150Y469500D03*
X334150Y480500D03*
X315850Y480500D03*
X315850Y469500D03*
X364150Y469500D03*
X364150Y480500D03*
X345850Y480500D03*
X345850Y469500D03*
X394150Y469500D03*
X394150Y480500D03*
X375850Y480500D03*
X375850Y469500D03*
X424150Y469500D03*
X424150Y480500D03*
X405850Y480500D03*
X405850Y469500D03*
X454150Y469500D03*
X454150Y480500D03*
X435850Y480500D03*
X435850Y469500D03*
X484150Y469500D03*
X484150Y480500D03*
X465850Y480500D03*
X465850Y469500D03*
X514150Y469500D03*
X514150Y480500D03*
X495850Y480500D03*
X495850Y469500D03*
X544150Y469500D03*
X544150Y480500D03*
X525850Y480500D03*
X525850Y469500D03*
X574150Y469500D03*
X574150Y480500D03*
X555850Y480500D03*
X555850Y469500D03*
D12*
X133577Y490000D03*
X124177Y490000D03*
X163518Y490000D03*
X154118Y490000D03*
X193525Y490000D03*
X184125Y490000D03*
X223537Y490000D03*
X214137Y490000D03*
X253504Y490000D03*
X244104Y490000D03*
X283516Y490000D03*
X274116Y490000D03*
X313658Y490000D03*
X304258Y490000D03*
X343575Y490000D03*
X334175Y490000D03*
X373462Y490000D03*
X364062Y490000D03*
X403579Y490000D03*
X394179Y490000D03*
X433631Y490000D03*
X424231Y490000D03*
X463513Y490000D03*
X454113Y490000D03*
X493505Y490000D03*
X484105Y490000D03*
X523582Y490000D03*
X514182Y490000D03*
X553584Y490000D03*
X544184Y490000D03*
X583566Y490000D03*
X574166Y490000D03*
D17*
X124150Y439500D03*
X124150Y450500D03*
X105850Y450500D03*
X105850Y439500D03*
X154150Y439500D03*
X154150Y450500D03*
X135850Y450500D03*
X135850Y439500D03*
X184150Y439500D03*
X184150Y450500D03*
X165850Y450500D03*
X165850Y439500D03*
X214150Y439500D03*
X214150Y450500D03*
X195850Y450500D03*
X195850Y439500D03*
X244150Y439500D03*
X244150Y450500D03*
X225850Y450500D03*
X225850Y439500D03*
X274150Y439500D03*
X274150Y450500D03*
X255850Y450500D03*
X255850Y439500D03*
X304150Y439500D03*
X304150Y450500D03*
X285850Y450500D03*
X285850Y439500D03*
X334150Y439500D03*
X334150Y450500D03*
X315850Y450500D03*
X315850Y439500D03*
X364150Y439500D03*
X364150Y450500D03*
X345850Y450500D03*
X345850Y439500D03*
X394150Y439500D03*
X394150Y450500D03*
X375850Y450500D03*
X375850Y439500D03*
X424150Y439500D03*
X424150Y450500D03*
X405850Y450500D03*
X405850Y439500D03*
X454150Y439500D03*
X454150Y450500D03*
X435850Y450500D03*
X435850Y439500D03*
X484150Y439500D03*
X484150Y450500D03*
X465850Y450500D03*
X465850Y439500D03*
X514150Y439500D03*
X514150Y450500D03*
X495850Y450500D03*
X495850Y439500D03*
X544150Y439500D03*
X544150Y450500D03*
X525850Y450500D03*
X525850Y439500D03*
X574150Y439500D03*
X574150Y450500D03*
X555850Y450500D03*
X555850Y439500D03*
D12*
X133486Y460000D03*
X124086Y460000D03*
X163628Y460000D03*
X154228Y460000D03*
X193554Y460000D03*
X184154Y460000D03*
X223508Y460000D03*
X214108Y460000D03*
X253452Y460000D03*
X244052Y460000D03*
X283487Y460000D03*
X274087Y460000D03*
X313583Y460000D03*
X304183Y460000D03*
X343634Y460000D03*
X334234Y460000D03*
X373606Y460000D03*
X364206Y460000D03*
X403532Y460000D03*
X394132Y460000D03*
X433548Y460000D03*
X424148Y460000D03*
X463519Y460000D03*
X454119Y460000D03*
X493462Y460000D03*
X484062Y460000D03*
X523641Y460000D03*
X514241Y460000D03*
X553630Y460000D03*
X544230Y460000D03*
X583636Y460000D03*
X574236Y460000D03*
D17*
X94150Y409500D03*
X94150Y420500D03*
X75850Y420500D03*
X75850Y409500D03*
X124150Y409500D03*
X124150Y420500D03*
X105850Y420500D03*
X105850Y409500D03*
X154150Y409500D03*
X154150Y420500D03*
X135850Y420500D03*
X135850Y409500D03*
X184150Y409500D03*
X184150Y420500D03*
X165850Y420500D03*
X165850Y409500D03*
X214150Y409500D03*
X214150Y420500D03*
X195850Y420500D03*
X195850Y409500D03*
X244150Y409500D03*
X244150Y420500D03*
X225850Y420500D03*
X225850Y409500D03*
X274150Y409500D03*
X274150Y420500D03*
X255850Y420500D03*
X255850Y409500D03*
X304150Y409500D03*
X304150Y420500D03*
X285850Y420500D03*
X285850Y409500D03*
X334150Y409500D03*
X334150Y420500D03*
X315850Y420500D03*
X315850Y409500D03*
X364150Y409500D03*
X364150Y420500D03*
X345850Y420500D03*
X345850Y409500D03*
X394150Y409500D03*
X394150Y420500D03*
X375850Y420500D03*
X375850Y409500D03*
X424150Y409500D03*
X424150Y420500D03*
X405850Y420500D03*
X405850Y409500D03*
X454150Y409500D03*
X454150Y420500D03*
X435850Y420500D03*
X435850Y409500D03*
X484150Y409500D03*
X484150Y420500D03*
X465850Y420500D03*
X465850Y409500D03*
X514150Y409500D03*
X514150Y420500D03*
X495850Y420500D03*
X495850Y409500D03*
X544150Y409500D03*
X544150Y420500D03*
X525850Y420500D03*
X525850Y409500D03*
X574150Y409500D03*
X574150Y420500D03*
X555850Y420500D03*
X555850Y409500D03*
X604150Y409500D03*
X604150Y420500D03*
X585850Y420500D03*
X585850Y409500D03*
D12*
X103507Y430000D03*
X94107Y430000D03*
X133482Y430000D03*
X124082Y430000D03*
X163588Y430000D03*
X154188Y430000D03*
X193490Y430000D03*
X184090Y430000D03*
X223545Y430000D03*
X214145Y430000D03*
X253499Y430000D03*
X244099Y430000D03*
X283673Y430000D03*
X274273Y430000D03*
X313558Y430000D03*
X304158Y430000D03*
X343665Y430000D03*
X334265Y430000D03*
X373533Y430000D03*
X364133Y430000D03*
X403452Y430000D03*
X394052Y430000D03*
X433627Y430000D03*
X424227Y430000D03*
X463649Y430000D03*
X454249Y430000D03*
X493499Y430000D03*
X484099Y430000D03*
X523554Y430000D03*
X514154Y430000D03*
X553679Y430000D03*
X544279Y430000D03*
X583512Y430000D03*
X574112Y430000D03*
X613602Y430000D03*
X604202Y430000D03*
D17*
X94150Y379500D03*
X94150Y390500D03*
X75850Y390500D03*
X75850Y379500D03*
X124150Y379500D03*
X124150Y390500D03*
X105850Y390500D03*
X105850Y379500D03*
X154150Y379500D03*
X154150Y390500D03*
X135850Y390500D03*
X135850Y379500D03*
X184150Y379500D03*
X184150Y390500D03*
X165850Y390500D03*
X165850Y379500D03*
X214150Y379500D03*
X214150Y390500D03*
X195850Y390500D03*
X195850Y379500D03*
X244150Y379500D03*
X244150Y390500D03*
X225850Y390500D03*
X225850Y379500D03*
X274150Y379500D03*
X274150Y390500D03*
X255850Y390500D03*
X255850Y379500D03*
X304150Y379500D03*
X304150Y390500D03*
X285850Y390500D03*
X285850Y379500D03*
X334150Y379500D03*
X334150Y390500D03*
X315850Y390500D03*
X315850Y379500D03*
X364150Y379500D03*
X364150Y390500D03*
X345850Y390500D03*
X345850Y379500D03*
X394150Y379500D03*
X394150Y390500D03*
X375850Y390500D03*
X375850Y379500D03*
X424150Y379500D03*
X424150Y390500D03*
X405850Y390500D03*
X405850Y379500D03*
X454150Y379500D03*
X454150Y390500D03*
X435850Y390500D03*
X435850Y379500D03*
X484150Y379500D03*
X484150Y390500D03*
X465850Y390500D03*
X465850Y379500D03*
X514150Y379500D03*
X514150Y390500D03*
X495850Y390500D03*
X495850Y379500D03*
X544150Y379500D03*
X544150Y390500D03*
X525850Y390500D03*
X525850Y379500D03*
X574150Y379500D03*
X574150Y390500D03*
X555850Y390500D03*
X555850Y379500D03*
X604150Y379500D03*
X604150Y390500D03*
X585850Y390500D03*
X585850Y379500D03*
D12*
X103589Y400000D03*
X94189Y400000D03*
X133560Y400000D03*
X124160Y400000D03*
X163553Y400000D03*
X154153Y400000D03*
X193484Y400000D03*
X184084Y400000D03*
X223581Y400000D03*
X214181Y400000D03*
X253490Y400000D03*
X244090Y400000D03*
X283492Y400000D03*
X274092Y400000D03*
X313548Y400000D03*
X304148Y400000D03*
X343503Y400000D03*
X334103Y400000D03*
X373566Y400000D03*
X364166Y400000D03*
X403575Y400000D03*
X394175Y400000D03*
X433602Y400000D03*
X424202Y400000D03*
X463518Y400000D03*
X454118Y400000D03*
X493596Y400000D03*
X484196Y400000D03*
X523537Y400000D03*
X514137Y400000D03*
X553507Y400000D03*
X544107Y400000D03*
X583541Y400000D03*
X574141Y400000D03*
X613557Y400000D03*
X604157Y400000D03*
D17*
X94150Y349500D03*
X94150Y360500D03*
X75850Y360500D03*
X75850Y349500D03*
X124150Y349500D03*
X124150Y360500D03*
X105850Y360500D03*
X105850Y349500D03*
X154150Y349500D03*
X154150Y360500D03*
X135850Y360500D03*
X135850Y349500D03*
X184150Y349500D03*
X184150Y360500D03*
X165850Y360500D03*
X165850Y349500D03*
X214150Y349500D03*
X214150Y360500D03*
X195850Y360500D03*
X195850Y349500D03*
X244150Y349500D03*
X244150Y360500D03*
X225850Y360500D03*
X225850Y349500D03*
X274150Y349500D03*
X274150Y360500D03*
X255850Y360500D03*
X255850Y349500D03*
X304150Y349500D03*
X304150Y360500D03*
X285850Y360500D03*
X285850Y349500D03*
X334150Y349500D03*
X334150Y360500D03*
X315850Y360500D03*
X315850Y349500D03*
X364150Y349500D03*
X364150Y360500D03*
X345850Y360500D03*
X345850Y349500D03*
X394150Y349500D03*
X394150Y360500D03*
X375850Y360500D03*
X375850Y349500D03*
X424150Y349500D03*
X424150Y360500D03*
X405850Y360500D03*
X405850Y349500D03*
X454150Y349500D03*
X454150Y360500D03*
X435850Y360500D03*
X435850Y349500D03*
X484150Y349500D03*
X484150Y360500D03*
X465850Y360500D03*
X465850Y349500D03*
X514150Y349500D03*
X514150Y360500D03*
X495850Y360500D03*
X495850Y349500D03*
X544150Y349500D03*
X544150Y360500D03*
X525850Y360500D03*
X525850Y349500D03*
X574150Y349500D03*
X574150Y360500D03*
X555850Y360500D03*
X555850Y349500D03*
X604150Y349500D03*
X604150Y360500D03*
X585850Y360500D03*
X585850Y349500D03*
D12*
X103452Y370000D03*
X94052Y370000D03*
X133508Y370000D03*
X124108Y370000D03*
X163556Y370000D03*
X154156Y370000D03*
X193403Y370000D03*
X184003Y370000D03*
X223455Y370000D03*
X214055Y370000D03*
X253428Y370000D03*
X244028Y370000D03*
X283633Y370000D03*
X274233Y370000D03*
X313512Y370000D03*
X304112Y370000D03*
X343516Y370000D03*
X334116Y370000D03*
X373458Y370000D03*
X364058Y370000D03*
X403446Y370000D03*
X394046Y370000D03*
X433607Y370000D03*
X424207Y370000D03*
X463515Y370000D03*
X454115Y370000D03*
X493630Y370000D03*
X484230Y370000D03*
X523572Y370000D03*
X514172Y370000D03*
X553496Y370000D03*
X544096Y370000D03*
X583688Y370000D03*
X574288Y370000D03*
X613551Y370000D03*
X604151Y370000D03*
D17*
X94150Y319500D03*
X94150Y330500D03*
X75850Y330500D03*
X75850Y319500D03*
X124150Y319500D03*
X124150Y330500D03*
X105850Y330500D03*
X105850Y319500D03*
X154150Y319500D03*
X154150Y330500D03*
X135850Y330500D03*
X135850Y319500D03*
X184150Y319500D03*
X184150Y330500D03*
X165850Y330500D03*
X165850Y319500D03*
X214150Y319500D03*
X214150Y330500D03*
X195850Y330500D03*
X195850Y319500D03*
X244150Y319500D03*
X244150Y330500D03*
X225850Y330500D03*
X225850Y319500D03*
X274150Y319500D03*
X274150Y330500D03*
X255850Y330500D03*
X255850Y319500D03*
X304150Y319500D03*
X304150Y330500D03*
X285850Y330500D03*
X285850Y319500D03*
X334150Y319500D03*
X334150Y330500D03*
X315850Y330500D03*
X315850Y319500D03*
X364150Y319500D03*
X364150Y330500D03*
X345850Y330500D03*
X345850Y319500D03*
X394150Y319500D03*
X394150Y330500D03*
X375850Y330500D03*
X375850Y319500D03*
X424150Y319500D03*
X424150Y330500D03*
X405850Y330500D03*
X405850Y319500D03*
X454150Y319500D03*
X454150Y330500D03*
X435850Y330500D03*
X435850Y319500D03*
X484150Y319500D03*
X484150Y330500D03*
X465850Y330500D03*
X465850Y319500D03*
X514150Y319500D03*
X514150Y330500D03*
X495850Y330500D03*
X495850Y319500D03*
X544150Y319500D03*
X544150Y330500D03*
X525850Y330500D03*
X525850Y319500D03*
X574150Y319500D03*
X574150Y330500D03*
X555850Y330500D03*
X555850Y319500D03*
X604150Y319500D03*
X604150Y330500D03*
X585850Y330500D03*
X585850Y319500D03*
D12*
X103486Y340000D03*
X94086Y340000D03*
X133499Y340000D03*
X124099Y340000D03*
X163589Y340000D03*
X154189Y340000D03*
X193492Y340000D03*
X184092Y340000D03*
X223620Y340000D03*
X214220Y340000D03*
X253489Y340000D03*
X244089Y340000D03*
X283606Y340000D03*
X274206Y340000D03*
X313520Y340000D03*
X304120Y340000D03*
X343565Y340000D03*
X334165Y340000D03*
X373563Y340000D03*
X364163Y340000D03*
X403589Y340000D03*
X394189Y340000D03*
X433582Y340000D03*
X424182Y340000D03*
X463736Y340021D03*
X454336Y340021D03*
X493573Y340000D03*
X484173Y340000D03*
X523579Y340000D03*
X514179Y340000D03*
X553558Y340000D03*
X544158Y340000D03*
X583551Y340000D03*
X574151Y340000D03*
X613544Y340000D03*
X604144Y340000D03*
D17*
X94150Y289500D03*
X94150Y300500D03*
X75850Y300500D03*
X75850Y289500D03*
X124150Y289500D03*
X124150Y300500D03*
X105850Y300500D03*
X105850Y289500D03*
X154150Y289500D03*
X154150Y300500D03*
X135850Y300500D03*
X135850Y289500D03*
X184150Y289500D03*
X184150Y300500D03*
X165850Y300500D03*
X165850Y289500D03*
X214150Y289500D03*
X214150Y300500D03*
X195850Y300500D03*
X195850Y289500D03*
X244150Y289500D03*
X244150Y300500D03*
X225850Y300500D03*
X225850Y289500D03*
X274150Y289500D03*
X274150Y300500D03*
X255850Y300500D03*
X255850Y289500D03*
X304150Y289500D03*
X304150Y300500D03*
X285850Y300500D03*
X285850Y289500D03*
X334150Y289500D03*
X334150Y300500D03*
X315850Y300500D03*
X315850Y289500D03*
X364150Y289500D03*
X364150Y300500D03*
X345850Y300500D03*
X345850Y289500D03*
X394150Y289500D03*
X394150Y300500D03*
X375850Y300500D03*
X375850Y289500D03*
X424150Y289500D03*
X424150Y300500D03*
X405850Y300500D03*
X405850Y289500D03*
X454150Y289500D03*
X454150Y300500D03*
X435850Y300500D03*
X435850Y289500D03*
X484150Y289500D03*
X484150Y300500D03*
X465850Y300500D03*
X465850Y289500D03*
X514150Y289500D03*
X514150Y300500D03*
X495850Y300500D03*
X495850Y289500D03*
X544150Y289500D03*
X544150Y300500D03*
X525850Y300500D03*
X525850Y289500D03*
X574150Y289500D03*
X574150Y300500D03*
X555850Y300500D03*
X555850Y289500D03*
X604150Y289500D03*
X604150Y300500D03*
X585850Y300500D03*
X585850Y289500D03*
D12*
X103604Y310000D03*
X94204Y310000D03*
X133514Y310000D03*
X124114Y310000D03*
X163503Y310000D03*
X154103Y310000D03*
X193615Y310000D03*
X184215Y310000D03*
X223750Y310000D03*
X214350Y310000D03*
X253484Y310000D03*
X244084Y310000D03*
X283674Y310000D03*
X274274Y310000D03*
X313526Y310000D03*
X304126Y310000D03*
X343539Y310000D03*
X334139Y310000D03*
X373484Y310000D03*
X364084Y310000D03*
X403551Y310000D03*
X394151Y310000D03*
X433697Y310000D03*
X424297Y310000D03*
X463519Y310000D03*
X454119Y310000D03*
X493586Y310000D03*
X484186Y310000D03*
X523599Y310000D03*
X514199Y310000D03*
X553598Y310000D03*
X544198Y310000D03*
X583655Y310000D03*
X574255Y310000D03*
X613532Y310000D03*
X604132Y310000D03*
D17*
X94150Y259500D03*
X94150Y270500D03*
X75850Y270500D03*
X75850Y259500D03*
X124150Y259500D03*
X124150Y270500D03*
X105850Y270500D03*
X105850Y259500D03*
X154150Y259500D03*
X154150Y270500D03*
X135850Y270500D03*
X135850Y259500D03*
X184150Y259500D03*
X184150Y270500D03*
X165850Y270500D03*
X165850Y259500D03*
X214150Y259500D03*
X214150Y270500D03*
X195850Y270500D03*
X195850Y259500D03*
X244150Y259500D03*
X244150Y270500D03*
X225850Y270500D03*
X225850Y259500D03*
X274150Y259500D03*
X274150Y270500D03*
X255850Y270500D03*
X255850Y259500D03*
X304150Y259500D03*
X304150Y270500D03*
X285850Y270500D03*
X285850Y259500D03*
X334150Y259500D03*
X334150Y270500D03*
X315850Y270500D03*
X315850Y259500D03*
X364150Y259500D03*
X364150Y270500D03*
X345850Y270500D03*
X345850Y259500D03*
X394150Y259500D03*
X394150Y270500D03*
X375850Y270500D03*
X375850Y259500D03*
X424150Y259500D03*
X424150Y270500D03*
X405850Y270500D03*
X405850Y259500D03*
X454150Y259500D03*
X454150Y270500D03*
X435850Y270500D03*
X435850Y259500D03*
X484150Y259500D03*
X484150Y270500D03*
X465850Y270500D03*
X465850Y259500D03*
X514150Y259500D03*
X514150Y270500D03*
X495850Y270500D03*
X495850Y259500D03*
X544150Y259500D03*
X544150Y270500D03*
X525850Y270500D03*
X525850Y259500D03*
X574150Y259500D03*
X574150Y270500D03*
X555850Y270500D03*
X555850Y259500D03*
X604150Y259500D03*
X604150Y270500D03*
X585850Y270500D03*
X585850Y259500D03*
D12*
X103494Y280000D03*
X94094Y280000D03*
X133575Y280000D03*
X124175Y280000D03*
X163470Y280000D03*
X154070Y280000D03*
X193621Y280000D03*
X184221Y280000D03*
X223539Y280000D03*
X214139Y280000D03*
X253450Y280000D03*
X244050Y280000D03*
X283492Y280000D03*
X274092Y280000D03*
X313511Y280000D03*
X304111Y280000D03*
X343499Y280000D03*
X334099Y280000D03*
X373619Y280000D03*
X364219Y280000D03*
X403507Y280000D03*
X394107Y280000D03*
X433472Y280000D03*
X424072Y280000D03*
X463553Y280000D03*
X454153Y280000D03*
X493479Y280000D03*
X484079Y280000D03*
X523590Y280000D03*
X514190Y280000D03*
X553587Y280000D03*
X544187Y280000D03*
X583629Y280000D03*
X574229Y280000D03*
X613486Y280000D03*
X604086Y280000D03*
D17*
X124150Y229500D03*
X124150Y240500D03*
X105850Y240500D03*
X105850Y229500D03*
X154150Y229500D03*
X154150Y240500D03*
X135850Y240500D03*
X135850Y229500D03*
X184150Y229500D03*
X184150Y240500D03*
X165850Y240500D03*
X165850Y229500D03*
X214150Y229500D03*
X214150Y240500D03*
X195850Y240500D03*
X195850Y229500D03*
X244150Y229500D03*
X244150Y240500D03*
X225850Y240500D03*
X225850Y229500D03*
X274150Y229500D03*
X274150Y240500D03*
X255850Y240500D03*
X255850Y229500D03*
X304150Y229500D03*
X304150Y240500D03*
X285850Y240500D03*
X285850Y229500D03*
X334150Y229500D03*
X334150Y240500D03*
X315850Y240500D03*
X315850Y229500D03*
X364150Y229500D03*
X364150Y240500D03*
X345850Y240500D03*
X345850Y229500D03*
X394150Y229500D03*
X394150Y240500D03*
X375850Y240500D03*
X375850Y229500D03*
X424150Y229500D03*
X424150Y240500D03*
X405850Y240500D03*
X405850Y229500D03*
X454150Y229500D03*
X454150Y240500D03*
X435850Y240500D03*
X435850Y229500D03*
X484150Y229500D03*
X484150Y240500D03*
X465850Y240500D03*
X465850Y229500D03*
X514150Y229500D03*
X514150Y240500D03*
X495850Y240500D03*
X495850Y229500D03*
X544150Y229500D03*
X544150Y240500D03*
X525850Y240500D03*
X525850Y229500D03*
X574150Y229500D03*
X574150Y240500D03*
X555850Y240500D03*
X555850Y229500D03*
D12*
X133516Y250000D03*
X124116Y250000D03*
X163495Y250000D03*
X154095Y250000D03*
X193508Y250000D03*
X184108Y250000D03*
X223517Y250000D03*
X214117Y250000D03*
X253554Y250000D03*
X244154Y250000D03*
X283655Y250000D03*
X274255Y250000D03*
X313522Y250000D03*
X304122Y250000D03*
X343589Y250000D03*
X334189Y250000D03*
X373578Y250000D03*
X364178Y250000D03*
X403499Y250000D03*
X394099Y250000D03*
X433532Y250000D03*
X424132Y250000D03*
X463657Y250000D03*
X454257Y250000D03*
X493470Y250000D03*
X484070Y250000D03*
X523581Y250000D03*
X514181Y250000D03*
X553624Y250000D03*
X544224Y250000D03*
X583539Y250000D03*
X574139Y250000D03*
D17*
X124150Y199500D03*
X124150Y210500D03*
X105850Y210500D03*
X105850Y199500D03*
X154150Y199500D03*
X154150Y210500D03*
X135850Y210500D03*
X135850Y199500D03*
X184150Y199500D03*
X184150Y210500D03*
X165850Y210500D03*
X165850Y199500D03*
X214150Y199500D03*
X214150Y210500D03*
X195850Y210500D03*
X195850Y199500D03*
X244150Y199500D03*
X244150Y210500D03*
X225850Y210500D03*
X225850Y199500D03*
X274150Y199500D03*
X274150Y210500D03*
X255850Y210500D03*
X255850Y199500D03*
X304150Y199500D03*
X304150Y210500D03*
X285850Y210500D03*
X285850Y199500D03*
X334150Y199500D03*
X334150Y210500D03*
X315850Y210500D03*
X315850Y199500D03*
X364150Y199500D03*
X364150Y210500D03*
X345850Y210500D03*
X345850Y199500D03*
X394150Y199500D03*
X394150Y210500D03*
X375850Y210500D03*
X375850Y199500D03*
X424150Y199500D03*
X424150Y210500D03*
X405850Y210500D03*
X405850Y199500D03*
X454150Y199500D03*
X454150Y210500D03*
X435850Y210500D03*
X435850Y199500D03*
X484150Y199500D03*
X484150Y210500D03*
X465850Y210500D03*
X465850Y199500D03*
X514150Y199500D03*
X514150Y210500D03*
X495850Y210500D03*
X495850Y199500D03*
X544150Y199500D03*
X544150Y210500D03*
X525850Y210500D03*
X525850Y199500D03*
X574150Y199500D03*
X574150Y210500D03*
X555850Y210500D03*
X555850Y199500D03*
D12*
X133618Y220000D03*
X124218Y220000D03*
X163541Y220000D03*
X154141Y220000D03*
X193508Y220000D03*
X184108Y220000D03*
X223618Y220000D03*
X214218Y220000D03*
X253508Y220000D03*
X244108Y220000D03*
X283570Y220000D03*
X274170Y220000D03*
X313602Y220000D03*
X304202Y220000D03*
X343632Y220000D03*
X334232Y220000D03*
X373491Y220000D03*
X364091Y220000D03*
X403521Y220000D03*
X394121Y220000D03*
X433662Y220000D03*
X424262Y220000D03*
X463568Y220000D03*
X454168Y220000D03*
X493599Y220000D03*
X484199Y220000D03*
X523661Y220000D03*
X514261Y220000D03*
X553489Y220000D03*
X544089Y220000D03*
X583660Y220000D03*
X574260Y220000D03*
D17*
X154150Y169500D03*
X154150Y180500D03*
X135850Y180500D03*
X135850Y169500D03*
X184150Y169500D03*
X184150Y180500D03*
X165850Y180500D03*
X165850Y169500D03*
X214150Y169500D03*
X214150Y180500D03*
X195850Y180500D03*
X195850Y169500D03*
X244150Y169500D03*
X244150Y180500D03*
X225850Y180500D03*
X225850Y169500D03*
X274150Y169500D03*
X274150Y180500D03*
X255850Y180500D03*
X255850Y169500D03*
X304150Y169500D03*
X304150Y180500D03*
X285850Y180500D03*
X285850Y169500D03*
X334150Y169500D03*
X334150Y180500D03*
X315850Y180500D03*
X315850Y169500D03*
X364150Y169500D03*
X364150Y180500D03*
X345850Y180500D03*
X345850Y169500D03*
X394150Y169500D03*
X394150Y180500D03*
X375850Y180500D03*
X375850Y169500D03*
X424150Y169500D03*
X424150Y180500D03*
X405850Y180500D03*
X405850Y169500D03*
X454150Y169500D03*
X454150Y180500D03*
X435850Y180500D03*
X435850Y169500D03*
X484150Y169500D03*
X484150Y180500D03*
X465850Y180500D03*
X465850Y169500D03*
X514150Y169500D03*
X514150Y180500D03*
X495850Y180500D03*
X495850Y169500D03*
X544150Y169500D03*
X544150Y180500D03*
X525850Y180500D03*
X525850Y169500D03*
D12*
X163531Y190000D03*
X154131Y190000D03*
X193549Y190000D03*
X184149Y190000D03*
X223502Y190000D03*
X214102Y190000D03*
X253566Y190000D03*
X244166Y190000D03*
X283489Y190000D03*
X274089Y190000D03*
X313569Y190000D03*
X304169Y190000D03*
X343555Y190000D03*
X334155Y190000D03*
X373493Y190000D03*
X364093Y190000D03*
X403541Y190000D03*
X394141Y190000D03*
X433652Y190000D03*
X424252Y190000D03*
X463669Y190000D03*
X454269Y190000D03*
X493623Y190000D03*
X484223Y190000D03*
X523656Y190000D03*
X514256Y190000D03*
X553609Y190000D03*
X544209Y190000D03*
D17*
X184150Y139500D03*
X184150Y150500D03*
X165850Y150500D03*
X165850Y139500D03*
X214150Y139500D03*
X214150Y150500D03*
X195850Y150500D03*
X195850Y139500D03*
X244150Y139500D03*
X244150Y150500D03*
X225850Y150500D03*
X225850Y139500D03*
X274150Y139500D03*
X274150Y150500D03*
X255850Y150500D03*
X255850Y139500D03*
X304150Y139500D03*
X304150Y150500D03*
X285850Y150500D03*
X285850Y139500D03*
X334150Y139500D03*
X334150Y150500D03*
X315850Y150500D03*
X315850Y139500D03*
X364150Y139500D03*
X364150Y150500D03*
X345850Y150500D03*
X345850Y139500D03*
X394150Y139500D03*
X394150Y150500D03*
X375850Y150500D03*
X375850Y139500D03*
X424150Y139500D03*
X424150Y150500D03*
X405850Y150500D03*
X405850Y139500D03*
X454150Y139500D03*
X454150Y150500D03*
X435850Y150500D03*
X435850Y139500D03*
X484150Y139500D03*
X484150Y150500D03*
X465850Y150500D03*
X465850Y139500D03*
X514150Y139500D03*
X514150Y150500D03*
X495850Y150500D03*
X495850Y139500D03*
D12*
X193513Y160000D03*
X184113Y160000D03*
X223389Y160000D03*
X213989Y160000D03*
X253641Y160000D03*
X244241Y160000D03*
X283471Y160000D03*
X274071Y160000D03*
X313658Y160000D03*
X304258Y160000D03*
X343474Y160000D03*
X334074Y160000D03*
X373490Y160000D03*
X364090Y160000D03*
X403585Y160000D03*
X394185Y160000D03*
X433539Y160000D03*
X424139Y160000D03*
X463666Y160000D03*
X454266Y160000D03*
X493511Y160000D03*
X484111Y160000D03*
X523464Y160000D03*
X514064Y160000D03*
D17*
X214150Y109500D03*
X214150Y120500D03*
X195850Y120500D03*
X195850Y109500D03*
X244150Y109500D03*
X244150Y120500D03*
X225850Y120500D03*
X225850Y109500D03*
X274150Y109500D03*
X274150Y120500D03*
X255850Y120500D03*
X255850Y109500D03*
X304150Y109500D03*
X304150Y120500D03*
X285850Y120500D03*
X285850Y109500D03*
X334150Y109500D03*
X334150Y120500D03*
X315850Y120500D03*
X315850Y109500D03*
X364150Y109500D03*
X364150Y120500D03*
X345850Y120500D03*
X345850Y109500D03*
X394150Y109500D03*
X394150Y120500D03*
X375850Y120500D03*
X375850Y109500D03*
X424150Y109500D03*
X424150Y120500D03*
X405850Y120500D03*
X405850Y109500D03*
X454150Y109500D03*
X454150Y120500D03*
X435850Y120500D03*
X435850Y109500D03*
X484150Y109500D03*
X484150Y120500D03*
X465850Y120500D03*
X465850Y109500D03*
D12*
X223625Y130000D03*
X214225Y130000D03*
X253517Y130000D03*
X244117Y130000D03*
X283590Y130000D03*
X274190Y130000D03*
X313552Y130000D03*
X304152Y130000D03*
X343539Y130000D03*
X334139Y130000D03*
X373632Y130000D03*
X364232Y130000D03*
X403525Y130000D03*
X394125Y130000D03*
X433621Y130000D03*
X424221Y130000D03*
X463514Y130000D03*
X454114Y130000D03*
X493570Y130000D03*
X484170Y130000D03*
D17*
X274150Y79500D03*
X274150Y90500D03*
X255850Y90500D03*
X255850Y79500D03*
X304150Y79500D03*
X304150Y90500D03*
X285850Y90500D03*
X285850Y79500D03*
X334150Y79500D03*
X334150Y90500D03*
X315850Y90500D03*
X315850Y79500D03*
X364150Y79500D03*
X364150Y90500D03*
X345850Y90500D03*
X345850Y79500D03*
X394150Y79500D03*
X394150Y90500D03*
X375850Y90500D03*
X375850Y79500D03*
X424150Y79500D03*
X424150Y90500D03*
X405850Y90500D03*
X405850Y79500D03*
D12*
X283520Y100000D03*
X274120Y100000D03*
X313524Y100000D03*
X304124Y100000D03*
X343524Y100000D03*
X334124Y100000D03*
X373603Y100000D03*
X364203Y100000D03*
X403475Y100000D03*
X394075Y100000D03*
X433574Y100000D03*
X424174Y100000D03*
D18*
X237119Y632864D03*
X257419Y619864D03*
X257419Y626364D03*
X257419Y632864D03*
X237119Y626364D03*
X237119Y619864D03*
D19*
X247269Y626364D03*
D16*
X202429Y624840D03*
X185429Y624840D03*
D20*
X267081Y634068D03*
X267081Y644568D03*
D21*
X209430Y606933D03*
X194430Y606933D03*
D20*
X250233Y656844D03*
X239733Y656844D03*
X282024Y625221D03*
X292524Y625221D03*
M02*
